G04 #@! TF.FileFunction,Legend,Top*
%FSLAX46Y46*%
G04 Gerber Fmt 4.6, Leading zero omitted, Abs format (unit mm)*
G04 Created by KiCad (PCBNEW (2015-11-02 BZR 6290)-product) date Mon 07 Dec 2015 12:03:44 PM CET*
%MOMM*%
G01*
G04 APERTURE LIST*
%ADD10C,0.150000*%
%ADD11C,0.297180*%
%ADD12C,0.299720*%
%ADD13C,0.381000*%
%ADD14C,0.066040*%
%ADD15C,0.101600*%
%ADD16C,0.304800*%
%ADD17C,0.127000*%
%ADD18C,0.254000*%
%ADD19C,0.114300*%
G04 APERTURE END LIST*
D10*
D11*
X40464257Y-55642897D02*
X40962944Y-57138957D01*
X41461630Y-55642897D01*
X42530244Y-57067716D02*
X42387762Y-57138957D01*
X42102799Y-57138957D01*
X41960317Y-57067716D01*
X41889076Y-56925234D01*
X41889076Y-56355307D01*
X41960317Y-56212825D01*
X42102799Y-56141584D01*
X42387762Y-56141584D01*
X42530244Y-56212825D01*
X42601485Y-56355307D01*
X42601485Y-56497788D01*
X41889076Y-56640270D01*
X43242654Y-57138957D02*
X43242654Y-56141584D01*
X43242654Y-56426548D02*
X43313895Y-56284066D01*
X43385136Y-56212825D01*
X43527618Y-56141584D01*
X43670099Y-56141584D01*
X44097545Y-57067716D02*
X44240027Y-57138957D01*
X44524991Y-57138957D01*
X44667472Y-57067716D01*
X44738713Y-56925234D01*
X44738713Y-56853993D01*
X44667472Y-56711511D01*
X44524991Y-56640270D01*
X44311268Y-56640270D01*
X44168786Y-56569029D01*
X44097545Y-56426548D01*
X44097545Y-56355307D01*
X44168786Y-56212825D01*
X44311268Y-56141584D01*
X44524991Y-56141584D01*
X44667472Y-56212825D01*
X45379882Y-57138957D02*
X45379882Y-56141584D01*
X45379882Y-55642897D02*
X45308641Y-55714138D01*
X45379882Y-55785379D01*
X45451123Y-55714138D01*
X45379882Y-55642897D01*
X45379882Y-55785379D01*
X46306015Y-57138957D02*
X46163533Y-57067716D01*
X46092292Y-56996475D01*
X46021051Y-56853993D01*
X46021051Y-56426548D01*
X46092292Y-56284066D01*
X46163533Y-56212825D01*
X46306015Y-56141584D01*
X46519737Y-56141584D01*
X46662219Y-56212825D01*
X46733460Y-56284066D01*
X46804701Y-56426548D01*
X46804701Y-56853993D01*
X46733460Y-56996475D01*
X46662219Y-57067716D01*
X46519737Y-57138957D01*
X46306015Y-57138957D01*
X47445870Y-56141584D02*
X47445870Y-57138957D01*
X47445870Y-56284066D02*
X47517111Y-56212825D01*
X47659593Y-56141584D01*
X47873315Y-56141584D01*
X48015797Y-56212825D01*
X48087038Y-56355307D01*
X48087038Y-57138957D01*
X50722953Y-57138957D02*
X49868062Y-57138957D01*
X50295508Y-57138957D02*
X50295508Y-55642897D01*
X50153026Y-55856620D01*
X50010544Y-55999102D01*
X49868062Y-56070343D01*
X51364122Y-56996475D02*
X51435363Y-57067716D01*
X51364122Y-57138957D01*
X51292881Y-57067716D01*
X51364122Y-56996475D01*
X51364122Y-57138957D01*
X52717700Y-56141584D02*
X52717700Y-57138957D01*
X52361496Y-55571656D02*
X52005291Y-56640270D01*
X52931423Y-56640270D01*
X44168786Y-58177043D02*
X44240027Y-58105802D01*
X44382509Y-58034561D01*
X44738713Y-58034561D01*
X44881195Y-58105802D01*
X44952436Y-58177043D01*
X45023677Y-58319525D01*
X45023677Y-58462007D01*
X44952436Y-58675730D01*
X44097545Y-59530621D01*
X45023677Y-59530621D01*
X45949810Y-58034561D02*
X46092291Y-58034561D01*
X46234773Y-58105802D01*
X46306014Y-58177043D01*
X46377255Y-58319525D01*
X46448496Y-58604489D01*
X46448496Y-58960693D01*
X46377255Y-59245657D01*
X46306014Y-59388139D01*
X46234773Y-59459380D01*
X46092291Y-59530621D01*
X45949810Y-59530621D01*
X45807328Y-59459380D01*
X45736087Y-59388139D01*
X45664846Y-59245657D01*
X45593605Y-58960693D01*
X45593605Y-58604489D01*
X45664846Y-58319525D01*
X45736087Y-58177043D01*
X45807328Y-58105802D01*
X45949810Y-58034561D01*
X47873315Y-59530621D02*
X47018424Y-59530621D01*
X47445870Y-59530621D02*
X47445870Y-58034561D01*
X47303388Y-58248284D01*
X47160906Y-58390766D01*
X47018424Y-58462007D01*
X49226893Y-58034561D02*
X48514484Y-58034561D01*
X48443243Y-58746971D01*
X48514484Y-58675730D01*
X48656966Y-58604489D01*
X49013170Y-58604489D01*
X49155652Y-58675730D01*
X49226893Y-58746971D01*
X49298134Y-58889452D01*
X49298134Y-59245657D01*
X49226893Y-59388139D01*
X49155652Y-59459380D01*
X49013170Y-59530621D01*
X48656966Y-59530621D01*
X48514484Y-59459380D01*
X48443243Y-59388139D01*
D12*
X42815208Y-49849701D02*
X43527617Y-49849701D01*
X42672726Y-50277147D02*
X43171413Y-48781087D01*
X43670099Y-50277147D01*
X44097545Y-50205906D02*
X44311268Y-50277147D01*
X44667472Y-50277147D01*
X44809954Y-50205906D01*
X44881195Y-50134665D01*
X44952436Y-49992183D01*
X44952436Y-49849701D01*
X44881195Y-49707219D01*
X44809954Y-49635978D01*
X44667472Y-49564738D01*
X44382509Y-49493497D01*
X44240027Y-49422256D01*
X44168786Y-49351015D01*
X44097545Y-49208533D01*
X44097545Y-49066051D01*
X44168786Y-48923569D01*
X44240027Y-48852328D01*
X44382509Y-48781087D01*
X44738713Y-48781087D01*
X44952436Y-48852328D01*
X46306014Y-48781087D02*
X45593605Y-48781087D01*
X45522364Y-49493497D01*
X45593605Y-49422256D01*
X45736087Y-49351015D01*
X46092291Y-49351015D01*
X46234773Y-49422256D01*
X46306014Y-49493497D01*
X46377255Y-49635978D01*
X46377255Y-49992183D01*
X46306014Y-50134665D01*
X46234773Y-50205906D01*
X46092291Y-50277147D01*
X45736087Y-50277147D01*
X45593605Y-50205906D01*
X45522364Y-50134665D01*
X47303388Y-48781087D02*
X47445869Y-48781087D01*
X47588351Y-48852328D01*
X47659592Y-48923569D01*
X47730833Y-49066051D01*
X47802074Y-49351015D01*
X47802074Y-49707219D01*
X47730833Y-49992183D01*
X47659592Y-50134665D01*
X47588351Y-50205906D01*
X47445869Y-50277147D01*
X47303388Y-50277147D01*
X47160906Y-50205906D01*
X47089665Y-50134665D01*
X47018424Y-49992183D01*
X46947183Y-49707219D01*
X46947183Y-49351015D01*
X47018424Y-49066051D01*
X47089665Y-48923569D01*
X47160906Y-48852328D01*
X47303388Y-48781087D01*
X49084411Y-49279774D02*
X49084411Y-50277147D01*
X48728207Y-48709846D02*
X48372002Y-49778460D01*
X49298134Y-49778460D01*
X49725580Y-48781087D02*
X50651712Y-48781087D01*
X50153026Y-49351015D01*
X50366748Y-49351015D01*
X50509230Y-49422256D01*
X50580471Y-49493497D01*
X50651712Y-49635978D01*
X50651712Y-49992183D01*
X50580471Y-50134665D01*
X50509230Y-50205906D01*
X50366748Y-50277147D01*
X49939303Y-50277147D01*
X49796821Y-50205906D01*
X49725580Y-50134665D01*
X38861336Y-51887701D02*
X39075059Y-51958942D01*
X39146300Y-52030182D01*
X39217541Y-52172664D01*
X39217541Y-52386387D01*
X39146300Y-52528869D01*
X39075059Y-52600110D01*
X38932577Y-52671351D01*
X38362650Y-52671351D01*
X38362650Y-51175291D01*
X38861336Y-51175291D01*
X39003818Y-51246532D01*
X39075059Y-51317773D01*
X39146300Y-51460255D01*
X39146300Y-51602737D01*
X39075059Y-51745219D01*
X39003818Y-51816460D01*
X38861336Y-51887701D01*
X38362650Y-51887701D01*
X39858710Y-52671351D02*
X39858710Y-51673978D01*
X39858710Y-51958942D02*
X39929951Y-51816460D01*
X40001192Y-51745219D01*
X40143674Y-51673978D01*
X40286155Y-51673978D01*
X41354769Y-52600110D02*
X41212287Y-52671351D01*
X40927324Y-52671351D01*
X40784842Y-52600110D01*
X40713601Y-52457628D01*
X40713601Y-51887701D01*
X40784842Y-51745219D01*
X40927324Y-51673978D01*
X41212287Y-51673978D01*
X41354769Y-51745219D01*
X41426010Y-51887701D01*
X41426010Y-52030182D01*
X40713601Y-52172664D01*
X42708347Y-52671351D02*
X42708347Y-51887701D01*
X42637106Y-51745219D01*
X42494624Y-51673978D01*
X42209661Y-51673978D01*
X42067179Y-51745219D01*
X42708347Y-52600110D02*
X42565865Y-52671351D01*
X42209661Y-52671351D01*
X42067179Y-52600110D01*
X41995938Y-52457628D01*
X41995938Y-52315146D01*
X42067179Y-52172664D01*
X42209661Y-52101423D01*
X42565865Y-52101423D01*
X42708347Y-52030182D01*
X43420757Y-52671351D02*
X43420757Y-51175291D01*
X43563239Y-52101423D02*
X43990684Y-52671351D01*
X43990684Y-51673978D02*
X43420757Y-52243905D01*
X44845576Y-52671351D02*
X44703094Y-52600110D01*
X44631853Y-52528869D01*
X44560612Y-52386387D01*
X44560612Y-51958942D01*
X44631853Y-51816460D01*
X44703094Y-51745219D01*
X44845576Y-51673978D01*
X45059298Y-51673978D01*
X45201780Y-51745219D01*
X45273021Y-51816460D01*
X45344262Y-51958942D01*
X45344262Y-52386387D01*
X45273021Y-52528869D01*
X45201780Y-52600110D01*
X45059298Y-52671351D01*
X44845576Y-52671351D01*
X46626599Y-51673978D02*
X46626599Y-52671351D01*
X45985431Y-51673978D02*
X45985431Y-52457628D01*
X46056672Y-52600110D01*
X46199154Y-52671351D01*
X46412876Y-52671351D01*
X46555358Y-52600110D01*
X46626599Y-52528869D01*
X47125286Y-51673978D02*
X47695214Y-51673978D01*
X47339009Y-51175291D02*
X47339009Y-52457628D01*
X47410250Y-52600110D01*
X47552732Y-52671351D01*
X47695214Y-52671351D01*
X49832441Y-51887701D02*
X50046164Y-51958942D01*
X50117405Y-52030182D01*
X50188646Y-52172664D01*
X50188646Y-52386387D01*
X50117405Y-52528869D01*
X50046164Y-52600110D01*
X49903682Y-52671351D01*
X49333755Y-52671351D01*
X49333755Y-51175291D01*
X49832441Y-51175291D01*
X49974923Y-51246532D01*
X50046164Y-51317773D01*
X50117405Y-51460255D01*
X50117405Y-51602737D01*
X50046164Y-51745219D01*
X49974923Y-51816460D01*
X49832441Y-51887701D01*
X49333755Y-51887701D01*
X51043538Y-52671351D02*
X50901056Y-52600110D01*
X50829815Y-52528869D01*
X50758574Y-52386387D01*
X50758574Y-51958942D01*
X50829815Y-51816460D01*
X50901056Y-51745219D01*
X51043538Y-51673978D01*
X51257260Y-51673978D01*
X51399742Y-51745219D01*
X51470983Y-51816460D01*
X51542224Y-51958942D01*
X51542224Y-52386387D01*
X51470983Y-52528869D01*
X51399742Y-52600110D01*
X51257260Y-52671351D01*
X51043538Y-52671351D01*
X52824561Y-52671351D02*
X52824561Y-51887701D01*
X52753320Y-51745219D01*
X52610838Y-51673978D01*
X52325875Y-51673978D01*
X52183393Y-51745219D01*
X52824561Y-52600110D02*
X52682079Y-52671351D01*
X52325875Y-52671351D01*
X52183393Y-52600110D01*
X52112152Y-52457628D01*
X52112152Y-52315146D01*
X52183393Y-52172664D01*
X52325875Y-52101423D01*
X52682079Y-52101423D01*
X52824561Y-52030182D01*
X53536971Y-52671351D02*
X53536971Y-51673978D01*
X53536971Y-51958942D02*
X53608212Y-51816460D01*
X53679453Y-51745219D01*
X53821935Y-51673978D01*
X53964416Y-51673978D01*
X55104271Y-52671351D02*
X55104271Y-51175291D01*
X55104271Y-52600110D02*
X54961789Y-52671351D01*
X54676826Y-52671351D01*
X54534344Y-52600110D01*
X54463103Y-52528869D01*
X54391862Y-52386387D01*
X54391862Y-51958942D01*
X54463103Y-51816460D01*
X54534344Y-51745219D01*
X54676826Y-51673978D01*
X54961789Y-51673978D01*
X55104271Y-51745219D01*
D13*
X31750000Y-66548000D02*
X31750000Y-30988000D01*
X67310000Y-30988000D02*
X31750000Y-30988000D01*
X67310000Y-66548000D02*
X67310000Y-30988000D01*
X31750000Y-66548000D02*
X67310000Y-66548000D01*
X58166000Y-34925000D02*
G75*
G03X58166000Y-34925000I-2286000J0D01*
G01*
X37846000Y-34925000D02*
G75*
G03X37846000Y-34925000I-2286000J0D01*
G01*
X58166000Y-62865000D02*
G75*
G03X58166000Y-62865000I-2286000J0D01*
G01*
X37846000Y-62865000D02*
G75*
G03X37846000Y-62865000I-2286000J0D01*
G01*
D14*
X47183040Y-40327580D02*
X46283880Y-40327580D01*
X46283880Y-40327580D02*
X46283880Y-40726360D01*
X47183040Y-40726360D02*
X46283880Y-40726360D01*
X47183040Y-40327580D02*
X47183040Y-40726360D01*
X47183040Y-39029640D02*
X46283880Y-39029640D01*
X46283880Y-39029640D02*
X46283880Y-39428420D01*
X47183040Y-39428420D02*
X46283880Y-39428420D01*
X47183040Y-39029640D02*
X47183040Y-39428420D01*
X47183040Y-39878000D02*
X47033180Y-39878000D01*
X47033180Y-39878000D02*
X47033180Y-40177720D01*
X47183040Y-40177720D02*
X47033180Y-40177720D01*
X47183040Y-39878000D02*
X47183040Y-40177720D01*
X46433740Y-39878000D02*
X46283880Y-39878000D01*
X46283880Y-39878000D02*
X46283880Y-40177720D01*
X46433740Y-40177720D02*
X46283880Y-40177720D01*
X46433740Y-39878000D02*
X46433740Y-40177720D01*
X46883320Y-39878000D02*
X46583600Y-39878000D01*
X46583600Y-39878000D02*
X46583600Y-40177720D01*
X46883320Y-40177720D02*
X46583600Y-40177720D01*
X46883320Y-39878000D02*
X46883320Y-40177720D01*
D15*
X47132240Y-40327580D02*
X47132240Y-39428420D01*
X46334680Y-40327580D02*
X46334680Y-39428420D01*
D16*
X66545460Y-64770000D02*
X57909460Y-64770000D01*
X57909460Y-64770000D02*
X57909460Y-32766000D01*
X66545460Y-32766000D02*
X66545460Y-64770000D01*
X58671460Y-39878000D02*
X65783460Y-39878000D01*
X58671460Y-57658000D02*
X65783460Y-57658000D01*
X57909460Y-46228000D02*
X58671460Y-46228000D01*
X58671460Y-46228000D02*
X58671460Y-39878000D01*
X65783460Y-39878000D02*
X65783460Y-57658000D01*
X58671460Y-57658000D02*
X58671460Y-51308000D01*
X58671460Y-51308000D02*
X57909460Y-51308000D01*
X57909460Y-32766000D02*
X66545460Y-32766000D01*
X60957460Y-42164000D02*
X61719460Y-40894000D01*
X61719460Y-40894000D02*
X60195460Y-40894000D01*
X60195460Y-40894000D02*
X60957460Y-42164000D01*
D17*
X45339000Y-41783000D02*
X43053000Y-41783000D01*
X43053000Y-41783000D02*
X43053000Y-40513000D01*
X43053000Y-40513000D02*
X45339000Y-40513000D01*
X45339000Y-40513000D02*
X45339000Y-41783000D01*
D18*
D17*
X47979270Y-40252953D02*
X47471270Y-40252953D01*
X47471270Y-40132000D01*
X47495460Y-40059429D01*
X47543841Y-40011048D01*
X47592222Y-39986857D01*
X47688984Y-39962667D01*
X47761555Y-39962667D01*
X47858317Y-39986857D01*
X47906698Y-40011048D01*
X47955079Y-40059429D01*
X47979270Y-40132000D01*
X47979270Y-40252953D01*
X47519650Y-39769143D02*
X47495460Y-39744953D01*
X47471270Y-39696572D01*
X47471270Y-39575619D01*
X47495460Y-39527238D01*
X47519650Y-39503048D01*
X47568031Y-39478857D01*
X47616412Y-39478857D01*
X47688984Y-39503048D01*
X47979270Y-39793334D01*
X47979270Y-39478857D01*
X45947270Y-40204571D02*
X45947270Y-40446476D01*
X45439270Y-40446476D01*
X45681174Y-40035238D02*
X45681174Y-39865904D01*
X45947270Y-39793333D02*
X45947270Y-40035238D01*
X45439270Y-40035238D01*
X45439270Y-39793333D01*
X45947270Y-39575619D02*
X45439270Y-39575619D01*
X45439270Y-39454666D01*
X45463460Y-39382095D01*
X45511841Y-39333714D01*
X45560222Y-39309523D01*
X45656984Y-39285333D01*
X45729555Y-39285333D01*
X45826317Y-39309523D01*
X45874698Y-39333714D01*
X45923079Y-39382095D01*
X45947270Y-39454666D01*
X45947270Y-39575619D01*
D16*
X68873793Y-43984333D02*
X67095793Y-43984333D01*
X67095793Y-43306999D01*
X67180460Y-43137666D01*
X67265127Y-43052999D01*
X67434460Y-42968333D01*
X67688460Y-42968333D01*
X67857793Y-43052999D01*
X67942460Y-43137666D01*
X68027127Y-43306999D01*
X68027127Y-43984333D01*
X68873793Y-41274999D02*
X68873793Y-42290999D01*
X68873793Y-41782999D02*
X67095793Y-41782999D01*
X67349793Y-41952333D01*
X67519127Y-42121666D01*
X67603793Y-42290999D01*
X57020460Y-60325000D02*
X57105127Y-60409666D01*
X57189793Y-60663666D01*
X57189793Y-60833000D01*
X57105127Y-61087000D01*
X56935793Y-61256333D01*
X56766460Y-61341000D01*
X56427793Y-61425666D01*
X56173793Y-61425666D01*
X55835127Y-61341000D01*
X55665793Y-61256333D01*
X55496460Y-61087000D01*
X55411793Y-60833000D01*
X55411793Y-60663666D01*
X55496460Y-60409666D01*
X55581127Y-60325000D01*
X55411793Y-59224333D02*
X55411793Y-58885666D01*
X55496460Y-58716333D01*
X55665793Y-58547000D01*
X56004460Y-58462333D01*
X56597127Y-58462333D01*
X56935793Y-58547000D01*
X57105127Y-58716333D01*
X57189793Y-58885666D01*
X57189793Y-59224333D01*
X57105127Y-59393666D01*
X56935793Y-59563000D01*
X56597127Y-59647666D01*
X56004460Y-59647666D01*
X55665793Y-59563000D01*
X55496460Y-59393666D01*
X55411793Y-59224333D01*
X57189793Y-57700333D02*
X55411793Y-57700333D01*
X57189793Y-56684333D01*
X55411793Y-56684333D01*
X57189793Y-55837666D02*
X55411793Y-55837666D01*
X57189793Y-54821666D01*
X55411793Y-54821666D01*
X57359127Y-54398332D02*
X57359127Y-53043665D01*
X55411793Y-51773665D02*
X55411793Y-52620332D01*
X56258460Y-52704998D01*
X56173793Y-52620332D01*
X56089127Y-52450998D01*
X56089127Y-52027665D01*
X56173793Y-51858332D01*
X56258460Y-51773665D01*
X56427793Y-51688998D01*
X56851127Y-51688998D01*
X57020460Y-51773665D01*
X57105127Y-51858332D01*
X57189793Y-52027665D01*
X57189793Y-52450998D01*
X57105127Y-52620332D01*
X57020460Y-52704998D01*
X55411793Y-51096332D02*
X57189793Y-49910999D01*
X55411793Y-49910999D02*
X57189793Y-51096332D01*
X55581127Y-49318332D02*
X55496460Y-49233666D01*
X55411793Y-49064332D01*
X55411793Y-48640999D01*
X55496460Y-48471666D01*
X55581127Y-48386999D01*
X55750460Y-48302332D01*
X55919793Y-48302332D01*
X56173793Y-48386999D01*
X57189793Y-49402999D01*
X57189793Y-48302332D01*
D19*
X44119800Y-41377810D02*
X43967400Y-41135905D01*
X43858543Y-41377810D02*
X43858543Y-40869810D01*
X44032715Y-40869810D01*
X44076257Y-40894000D01*
X44098029Y-40918190D01*
X44119800Y-40966571D01*
X44119800Y-41039143D01*
X44098029Y-41087524D01*
X44076257Y-41111714D01*
X44032715Y-41135905D01*
X43858543Y-41135905D01*
X44511686Y-40869810D02*
X44424600Y-40869810D01*
X44381057Y-40894000D01*
X44359286Y-40918190D01*
X44315743Y-40990762D01*
X44293972Y-41087524D01*
X44293972Y-41281048D01*
X44315743Y-41329429D01*
X44337515Y-41353619D01*
X44381057Y-41377810D01*
X44468143Y-41377810D01*
X44511686Y-41353619D01*
X44533457Y-41329429D01*
X44555229Y-41281048D01*
X44555229Y-41160095D01*
X44533457Y-41111714D01*
X44511686Y-41087524D01*
X44468143Y-41063333D01*
X44381057Y-41063333D01*
X44337515Y-41087524D01*
X44315743Y-41111714D01*
X44293972Y-41160095D01*
M02*
