G04 #@! TF.FileFunction,Copper,L1,Top,Signal*
%FSLAX46Y46*%
G04 Gerber Fmt 4.6, Leading zero omitted, Abs format (unit mm)*
G04 Created by KiCad (PCBNEW (2015-11-02 BZR 6290)-product) date Mon 07 Dec 2015 12:03:44 PM CET*
%MOMM*%
G01*
G04 APERTURE LIST*
%ADD10C,0.150000*%
%ADD11C,0.381000*%
%ADD12C,5.001260*%
%ADD13R,0.797560X0.797560*%
%ADD14R,1.524000X1.524000*%
%ADD15C,1.524000*%
%ADD16R,0.635000X1.143000*%
%ADD17C,0.600000*%
%ADD18C,0.373380*%
%ADD19C,0.375920*%
%ADD20C,0.099060*%
G04 APERTURE END LIST*
D10*
D11*
X31750000Y-66548000D02*
X31750000Y-30988000D01*
X67310000Y-30988000D02*
X31750000Y-30988000D01*
X67310000Y-66548000D02*
X67310000Y-30988000D01*
X31750000Y-66548000D02*
X67310000Y-66548000D01*
D12*
X55880000Y-34922460D03*
X35560000Y-34922460D03*
X55880000Y-62865000D03*
X35560000Y-62865000D03*
D13*
X46733460Y-39128700D03*
X46733460Y-40627300D03*
D14*
X60957460Y-43688000D03*
D15*
X63497460Y-43688000D03*
X60957460Y-46228000D03*
X63497460Y-46228000D03*
X60957460Y-48768000D03*
X63497460Y-48768000D03*
X60957460Y-51308000D03*
X63497460Y-51308000D03*
X60957460Y-53848000D03*
X63497460Y-53848000D03*
D16*
X44958000Y-41148000D03*
X43434000Y-41148000D03*
D17*
X48006000Y-39116000D03*
X43180000Y-43180000D03*
D18*
X46736000Y-39128700D02*
X47993300Y-39128700D01*
X47993300Y-39128700D02*
X48006000Y-39116000D01*
D19*
X46212760Y-41148000D02*
X46733460Y-40627300D01*
X45201840Y-41148000D02*
X46212760Y-41148000D01*
X43434000Y-41148000D02*
X43434000Y-41910000D01*
X43180000Y-42164000D02*
X43180000Y-43180000D01*
X43434000Y-41910000D02*
X43180000Y-42164000D01*
D20*
X32338010Y-31576010D02*
X66721990Y-31576010D01*
X32338010Y-31626810D02*
X66721990Y-31626810D01*
X32338010Y-31677610D02*
X66721990Y-31677610D01*
X32338010Y-31728410D02*
X66721990Y-31728410D01*
X32338010Y-31779210D02*
X66721990Y-31779210D01*
X32338010Y-31830010D02*
X66721990Y-31830010D01*
X32338010Y-31880810D02*
X35224342Y-31880810D01*
X35913821Y-31880810D02*
X55544342Y-31880810D01*
X56233821Y-31880810D02*
X66721990Y-31880810D01*
X32338010Y-31931610D02*
X34958039Y-31931610D01*
X36161300Y-31931610D02*
X55278039Y-31931610D01*
X56481300Y-31931610D02*
X66721990Y-31931610D01*
X32338010Y-31982410D02*
X34693215Y-31982410D01*
X36408779Y-31982410D02*
X55013215Y-31982410D01*
X56728779Y-31982410D02*
X66721990Y-31982410D01*
X32338010Y-32033210D02*
X34567481Y-32033210D01*
X36559129Y-32033210D02*
X54887481Y-32033210D01*
X56879129Y-32033210D02*
X66721990Y-32033210D01*
X32338010Y-32084010D02*
X34441746Y-32084010D01*
X36679977Y-32084010D02*
X54761746Y-32084010D01*
X56999977Y-32084010D02*
X66721990Y-32084010D01*
X32338010Y-32134810D02*
X34316012Y-32134810D01*
X36800825Y-32134810D02*
X54636012Y-32134810D01*
X57120825Y-32134810D02*
X66721990Y-32134810D01*
X32338010Y-32185610D02*
X34190277Y-32185610D01*
X36921674Y-32185610D02*
X54510277Y-32185610D01*
X57241674Y-32185610D02*
X66721990Y-32185610D01*
X32338010Y-32236410D02*
X34093357Y-32236410D01*
X37033257Y-32236410D02*
X54413357Y-32236410D01*
X57353257Y-32236410D02*
X66721990Y-32236410D01*
X32338010Y-32287210D02*
X34015727Y-32287210D01*
X37108571Y-32287210D02*
X54335727Y-32287210D01*
X57428571Y-32287210D02*
X66721990Y-32287210D01*
X32338010Y-32338010D02*
X33938096Y-32338010D01*
X37183885Y-32338010D02*
X54258096Y-32338010D01*
X57503885Y-32338010D02*
X66721990Y-32338010D01*
X32338010Y-32388810D02*
X33860465Y-32388810D01*
X37259199Y-32388810D02*
X54180465Y-32388810D01*
X57579199Y-32388810D02*
X66721990Y-32388810D01*
X32338010Y-32439610D02*
X33782835Y-32439610D01*
X37334513Y-32439610D02*
X54102835Y-32439610D01*
X57654513Y-32439610D02*
X66721990Y-32439610D01*
X32338010Y-32490410D02*
X33705204Y-32490410D01*
X37409827Y-32490410D02*
X54025204Y-32490410D01*
X57729827Y-32490410D02*
X66721990Y-32490410D01*
X32338010Y-32541210D02*
X33631454Y-32541210D01*
X37485141Y-32541210D02*
X53951454Y-32541210D01*
X57805141Y-32541210D02*
X66721990Y-32541210D01*
X32338010Y-32592010D02*
X33579579Y-32592010D01*
X37545082Y-32592010D02*
X53899579Y-32592010D01*
X57865082Y-32592010D02*
X66721990Y-32592010D01*
X32338010Y-32642810D02*
X33527704Y-32642810D01*
X37595528Y-32642810D02*
X53847704Y-32642810D01*
X57915528Y-32642810D02*
X66721990Y-32642810D01*
X32338010Y-32693610D02*
X33475829Y-32693610D01*
X37645975Y-32693610D02*
X53795829Y-32693610D01*
X57965975Y-32693610D02*
X66721990Y-32693610D01*
X32338010Y-32744410D02*
X33423954Y-32744410D01*
X37696421Y-32744410D02*
X53743954Y-32744410D01*
X58016421Y-32744410D02*
X66721990Y-32744410D01*
X32338010Y-32795210D02*
X33372079Y-32795210D01*
X37746868Y-32795210D02*
X53692079Y-32795210D01*
X58066868Y-32795210D02*
X66721990Y-32795210D01*
X32338010Y-32846010D02*
X33320203Y-32846010D01*
X37797314Y-32846010D02*
X53640203Y-32846010D01*
X58117314Y-32846010D02*
X66721990Y-32846010D01*
X32338010Y-32896810D02*
X33268328Y-32896810D01*
X37847761Y-32896810D02*
X53588328Y-32896810D01*
X58167761Y-32896810D02*
X66721990Y-32896810D01*
X32338010Y-32947610D02*
X33216453Y-32947610D01*
X37898207Y-32947610D02*
X53536453Y-32947610D01*
X58218207Y-32947610D02*
X66721990Y-32947610D01*
X32338010Y-32998410D02*
X33180151Y-32998410D01*
X37944280Y-32998410D02*
X53500151Y-32998410D01*
X58264280Y-32998410D02*
X66721990Y-32998410D01*
X32338010Y-33049210D02*
X33145368Y-33049210D01*
X37978031Y-33049210D02*
X53465368Y-33049210D01*
X58298031Y-33049210D02*
X66721990Y-33049210D01*
X32338010Y-33100010D02*
X33110584Y-33100010D01*
X38011783Y-33100010D02*
X53430584Y-33100010D01*
X58331783Y-33100010D02*
X66721990Y-33100010D01*
X32338010Y-33150810D02*
X33075801Y-33150810D01*
X38045534Y-33150810D02*
X53395801Y-33150810D01*
X58365534Y-33150810D02*
X66721990Y-33150810D01*
X32338010Y-33201610D02*
X33041017Y-33201610D01*
X38079286Y-33201610D02*
X53361017Y-33201610D01*
X58399286Y-33201610D02*
X66721990Y-33201610D01*
X32338010Y-33252410D02*
X33006233Y-33252410D01*
X38113037Y-33252410D02*
X53326233Y-33252410D01*
X58433037Y-33252410D02*
X66721990Y-33252410D01*
X32338010Y-33303210D02*
X32971450Y-33303210D01*
X38146789Y-33303210D02*
X53291450Y-33303210D01*
X58466789Y-33303210D02*
X66721990Y-33303210D01*
X32338010Y-33354010D02*
X32936666Y-33354010D01*
X38180540Y-33354010D02*
X53256666Y-33354010D01*
X58500540Y-33354010D02*
X66721990Y-33354010D01*
X32338010Y-33404810D02*
X32901883Y-33404810D01*
X38214292Y-33404810D02*
X53221883Y-33404810D01*
X58534292Y-33404810D02*
X66721990Y-33404810D01*
X32338010Y-33455610D02*
X32869627Y-33455610D01*
X38248043Y-33455610D02*
X53189627Y-33455610D01*
X58568043Y-33455610D02*
X66721990Y-33455610D01*
X32338010Y-33506410D02*
X32847854Y-33506410D01*
X38275988Y-33506410D02*
X53167854Y-33506410D01*
X58595988Y-33506410D02*
X66721990Y-33506410D01*
X32338010Y-33557210D02*
X32826082Y-33557210D01*
X38296926Y-33557210D02*
X53146082Y-33557210D01*
X58616926Y-33557210D02*
X66721990Y-33557210D01*
X32338010Y-33608010D02*
X32804309Y-33608010D01*
X38317865Y-33608010D02*
X53124309Y-33608010D01*
X58637865Y-33608010D02*
X66721990Y-33608010D01*
X32338010Y-33658810D02*
X32782536Y-33658810D01*
X38338803Y-33658810D02*
X53102536Y-33658810D01*
X58658803Y-33658810D02*
X66721990Y-33658810D01*
X32338010Y-33709610D02*
X32760763Y-33709610D01*
X38359741Y-33709610D02*
X53080763Y-33709610D01*
X58679741Y-33709610D02*
X66721990Y-33709610D01*
X32338010Y-33760410D02*
X32738990Y-33760410D01*
X38380679Y-33760410D02*
X53058990Y-33760410D01*
X58700679Y-33760410D02*
X66721990Y-33760410D01*
X32338010Y-33811210D02*
X32717217Y-33811210D01*
X38401617Y-33811210D02*
X53037217Y-33811210D01*
X58721617Y-33811210D02*
X66721990Y-33811210D01*
X32338010Y-33862010D02*
X32695445Y-33862010D01*
X38422556Y-33862010D02*
X53015445Y-33862010D01*
X58742556Y-33862010D02*
X66721990Y-33862010D01*
X32338010Y-33912810D02*
X32673672Y-33912810D01*
X38443494Y-33912810D02*
X52993672Y-33912810D01*
X58763494Y-33912810D02*
X66721990Y-33912810D01*
X32338010Y-33963610D02*
X32651899Y-33963610D01*
X38464432Y-33963610D02*
X52971899Y-33963610D01*
X58784432Y-33963610D02*
X66721990Y-33963610D01*
X32338010Y-34014410D02*
X32634189Y-34014410D01*
X38485370Y-34014410D02*
X52954189Y-34014410D01*
X58805370Y-34014410D02*
X66721990Y-34014410D01*
X32338010Y-34065210D02*
X32623391Y-34065210D01*
X38500158Y-34065210D02*
X52943391Y-34065210D01*
X58820158Y-34065210D02*
X66721990Y-34065210D01*
X32338010Y-34116010D02*
X32612593Y-34116010D01*
X38510217Y-34116010D02*
X52932593Y-34116010D01*
X58830217Y-34116010D02*
X66721990Y-34116010D01*
X32338010Y-34166810D02*
X32601795Y-34166810D01*
X38520276Y-34166810D02*
X52921795Y-34166810D01*
X58840276Y-34166810D02*
X66721990Y-34166810D01*
X32338010Y-34217610D02*
X32590997Y-34217610D01*
X38530334Y-34217610D02*
X52910997Y-34217610D01*
X58850334Y-34217610D02*
X66721990Y-34217610D01*
X32338010Y-34268410D02*
X32580199Y-34268410D01*
X38540393Y-34268410D02*
X52900199Y-34268410D01*
X58860393Y-34268410D02*
X66721990Y-34268410D01*
X32338010Y-34319210D02*
X32569401Y-34319210D01*
X38550452Y-34319210D02*
X52889401Y-34319210D01*
X58870452Y-34319210D02*
X66721990Y-34319210D01*
X32338010Y-34370010D02*
X32558603Y-34370010D01*
X38560511Y-34370010D02*
X52878603Y-34370010D01*
X58880511Y-34370010D02*
X66721990Y-34370010D01*
X32338010Y-34420810D02*
X32547805Y-34420810D01*
X38570569Y-34420810D02*
X52867805Y-34420810D01*
X58890569Y-34420810D02*
X66721990Y-34420810D01*
X32338010Y-34471610D02*
X32537007Y-34471610D01*
X38580628Y-34471610D02*
X52857007Y-34471610D01*
X58900628Y-34471610D02*
X66721990Y-34471610D01*
X32338010Y-34522410D02*
X32526209Y-34522410D01*
X38590687Y-34522410D02*
X52846209Y-34522410D01*
X58910687Y-34522410D02*
X66721990Y-34522410D01*
X32338010Y-34573210D02*
X32515411Y-34573210D01*
X38600746Y-34573210D02*
X52835411Y-34573210D01*
X58920746Y-34573210D02*
X66721990Y-34573210D01*
X32338010Y-34624010D02*
X32513200Y-34624010D01*
X38610661Y-34624010D02*
X52833200Y-34624010D01*
X58930661Y-34624010D02*
X66721990Y-34624010D01*
X32338010Y-34674810D02*
X32512490Y-34674810D01*
X38609952Y-34674810D02*
X52832490Y-34674810D01*
X58929952Y-34674810D02*
X66721990Y-34674810D01*
X32338010Y-34725610D02*
X32511781Y-34725610D01*
X38609242Y-34725610D02*
X52831781Y-34725610D01*
X58929242Y-34725610D02*
X66721990Y-34725610D01*
X32338010Y-34776410D02*
X32511072Y-34776410D01*
X38608533Y-34776410D02*
X52831072Y-34776410D01*
X58928533Y-34776410D02*
X66721990Y-34776410D01*
X32338010Y-34827210D02*
X32510362Y-34827210D01*
X38607824Y-34827210D02*
X52830362Y-34827210D01*
X58927824Y-34827210D02*
X66721990Y-34827210D01*
X32338010Y-34878010D02*
X32509653Y-34878010D01*
X38607114Y-34878010D02*
X52829653Y-34878010D01*
X58927114Y-34878010D02*
X66721990Y-34878010D01*
X32338010Y-34928810D02*
X32508944Y-34928810D01*
X38606405Y-34928810D02*
X52828944Y-34928810D01*
X58926405Y-34928810D02*
X66721990Y-34928810D01*
X32338010Y-34979610D02*
X32508234Y-34979610D01*
X38605695Y-34979610D02*
X52828234Y-34979610D01*
X58925695Y-34979610D02*
X66721990Y-34979610D01*
X32338010Y-35030410D02*
X32507525Y-35030410D01*
X38604986Y-35030410D02*
X52827525Y-35030410D01*
X58924986Y-35030410D02*
X66721990Y-35030410D01*
X32338010Y-35081210D02*
X32506815Y-35081210D01*
X38604277Y-35081210D02*
X52826815Y-35081210D01*
X58924277Y-35081210D02*
X66721990Y-35081210D01*
X32338010Y-35132010D02*
X32506106Y-35132010D01*
X38603567Y-35132010D02*
X52826106Y-35132010D01*
X58923567Y-35132010D02*
X66721990Y-35132010D01*
X32338010Y-35182810D02*
X32506156Y-35182810D01*
X38602858Y-35182810D02*
X52826156Y-35182810D01*
X58922858Y-35182810D02*
X66721990Y-35182810D01*
X32338010Y-35233610D02*
X32515480Y-35233610D01*
X38602148Y-35233610D02*
X52835480Y-35233610D01*
X58922148Y-35233610D02*
X66721990Y-35233610D01*
X32338010Y-35284410D02*
X32524804Y-35284410D01*
X38601439Y-35284410D02*
X52844804Y-35284410D01*
X58921439Y-35284410D02*
X66721990Y-35284410D01*
X32338010Y-35335210D02*
X32534127Y-35335210D01*
X38594638Y-35335210D02*
X52854127Y-35335210D01*
X58914638Y-35335210D02*
X66721990Y-35335210D01*
X32338010Y-35386010D02*
X32543451Y-35386010D01*
X38583097Y-35386010D02*
X52863451Y-35386010D01*
X58903097Y-35386010D02*
X66721990Y-35386010D01*
X32338010Y-35436810D02*
X32552775Y-35436810D01*
X38571556Y-35436810D02*
X52872775Y-35436810D01*
X58891556Y-35436810D02*
X66721990Y-35436810D01*
X32338010Y-35487610D02*
X32562098Y-35487610D01*
X38560014Y-35487610D02*
X52882098Y-35487610D01*
X58880014Y-35487610D02*
X66721990Y-35487610D01*
X32338010Y-35538410D02*
X32571422Y-35538410D01*
X38548473Y-35538410D02*
X52891422Y-35538410D01*
X58868473Y-35538410D02*
X66721990Y-35538410D01*
X32338010Y-35589210D02*
X32580746Y-35589210D01*
X38536931Y-35589210D02*
X52900746Y-35589210D01*
X58856931Y-35589210D02*
X66721990Y-35589210D01*
X32338010Y-35640010D02*
X32590069Y-35640010D01*
X38525390Y-35640010D02*
X52910069Y-35640010D01*
X58845390Y-35640010D02*
X66721990Y-35640010D01*
X32338010Y-35690810D02*
X32599393Y-35690810D01*
X38513848Y-35690810D02*
X52919393Y-35690810D01*
X58833848Y-35690810D02*
X66721990Y-35690810D01*
X32338010Y-35741610D02*
X32608716Y-35741610D01*
X38502307Y-35741610D02*
X52928716Y-35741610D01*
X58822307Y-35741610D02*
X66721990Y-35741610D01*
X32338010Y-35792410D02*
X32623358Y-35792410D01*
X38490766Y-35792410D02*
X52943358Y-35792410D01*
X58810766Y-35792410D02*
X66721990Y-35792410D01*
X32338010Y-35843210D02*
X32643471Y-35843210D01*
X38479224Y-35843210D02*
X52963471Y-35843210D01*
X58799224Y-35843210D02*
X66721990Y-35843210D01*
X32338010Y-35894010D02*
X32663584Y-35894010D01*
X38466813Y-35894010D02*
X52983584Y-35894010D01*
X58786813Y-35894010D02*
X66721990Y-35894010D01*
X32338010Y-35944810D02*
X32683697Y-35944810D01*
X38444195Y-35944810D02*
X53003697Y-35944810D01*
X58764195Y-35944810D02*
X66721990Y-35944810D01*
X32338010Y-35995610D02*
X32703811Y-35995610D01*
X38421577Y-35995610D02*
X53023811Y-35995610D01*
X58741577Y-35995610D02*
X66721990Y-35995610D01*
X32338010Y-36046410D02*
X32723924Y-36046410D01*
X38398960Y-36046410D02*
X53043924Y-36046410D01*
X58718960Y-36046410D02*
X66721990Y-36046410D01*
X32338010Y-36097210D02*
X32744037Y-36097210D01*
X38376342Y-36097210D02*
X53064037Y-36097210D01*
X58696342Y-36097210D02*
X66721990Y-36097210D01*
X32338010Y-36148010D02*
X32764150Y-36148010D01*
X38353724Y-36148010D02*
X53084150Y-36148010D01*
X58673724Y-36148010D02*
X66721990Y-36148010D01*
X32338010Y-36198810D02*
X32784263Y-36198810D01*
X38331107Y-36198810D02*
X53104263Y-36198810D01*
X58651107Y-36198810D02*
X66721990Y-36198810D01*
X32338010Y-36249610D02*
X32804376Y-36249610D01*
X38308489Y-36249610D02*
X53124376Y-36249610D01*
X58628489Y-36249610D02*
X66721990Y-36249610D01*
X32338010Y-36300410D02*
X32824489Y-36300410D01*
X38285872Y-36300410D02*
X53144489Y-36300410D01*
X58605872Y-36300410D02*
X66721990Y-36300410D01*
X32338010Y-36351210D02*
X32851464Y-36351210D01*
X38263254Y-36351210D02*
X53171464Y-36351210D01*
X58583254Y-36351210D02*
X66721990Y-36351210D01*
X32338010Y-36402010D02*
X32884202Y-36402010D01*
X38240636Y-36402010D02*
X53204202Y-36402010D01*
X58560636Y-36402010D02*
X66721990Y-36402010D01*
X32338010Y-36452810D02*
X32916940Y-36452810D01*
X38213785Y-36452810D02*
X53236940Y-36452810D01*
X58533785Y-36452810D02*
X66721990Y-36452810D01*
X32338010Y-36503610D02*
X32949679Y-36503610D01*
X38177950Y-36503610D02*
X53269679Y-36503610D01*
X58497950Y-36503610D02*
X66721990Y-36503610D01*
X32338010Y-36554410D02*
X32982417Y-36554410D01*
X38142114Y-36554410D02*
X53302417Y-36554410D01*
X58462114Y-36554410D02*
X66721990Y-36554410D01*
X32338010Y-36605210D02*
X33015155Y-36605210D01*
X38106279Y-36605210D02*
X53335155Y-36605210D01*
X58426279Y-36605210D02*
X66721990Y-36605210D01*
X32338010Y-36656010D02*
X33047894Y-36656010D01*
X38070443Y-36656010D02*
X53367894Y-36656010D01*
X58390443Y-36656010D02*
X66721990Y-36656010D01*
X32338010Y-36706810D02*
X33080632Y-36706810D01*
X38034608Y-36706810D02*
X53400632Y-36706810D01*
X58354608Y-36706810D02*
X66721990Y-36706810D01*
X32338010Y-36757610D02*
X33113370Y-36757610D01*
X37998772Y-36757610D02*
X53433370Y-36757610D01*
X58318772Y-36757610D02*
X66721990Y-36757610D01*
X32338010Y-36808410D02*
X33146109Y-36808410D01*
X37962937Y-36808410D02*
X53466109Y-36808410D01*
X58282937Y-36808410D02*
X66721990Y-36808410D01*
X32338010Y-36859210D02*
X33189366Y-36859210D01*
X37927101Y-36859210D02*
X53509366Y-36859210D01*
X58247101Y-36859210D02*
X66721990Y-36859210D01*
X32338010Y-36910010D02*
X33238423Y-36910010D01*
X37891266Y-36910010D02*
X53558423Y-36910010D01*
X58211266Y-36910010D02*
X66721990Y-36910010D01*
X32338010Y-36960810D02*
X33287480Y-36960810D01*
X37843222Y-36960810D02*
X53607480Y-36960810D01*
X58163222Y-36960810D02*
X66721990Y-36960810D01*
X32338010Y-37011610D02*
X33336537Y-37011610D01*
X37789877Y-37011610D02*
X53656537Y-37011610D01*
X58109877Y-37011610D02*
X66721990Y-37011610D01*
X32338010Y-37062410D02*
X33385594Y-37062410D01*
X37736531Y-37062410D02*
X53705594Y-37062410D01*
X58056531Y-37062410D02*
X66721990Y-37062410D01*
X32338010Y-37113210D02*
X33434651Y-37113210D01*
X37683186Y-37113210D02*
X53754651Y-37113210D01*
X58003186Y-37113210D02*
X66721990Y-37113210D01*
X32338010Y-37164010D02*
X33483708Y-37164010D01*
X37629841Y-37164010D02*
X53803708Y-37164010D01*
X57949841Y-37164010D02*
X66721990Y-37164010D01*
X32338010Y-37214810D02*
X33532765Y-37214810D01*
X37576495Y-37214810D02*
X53852765Y-37214810D01*
X57896495Y-37214810D02*
X66721990Y-37214810D01*
X32338010Y-37265610D02*
X33585989Y-37265610D01*
X37523150Y-37265610D02*
X53905989Y-37265610D01*
X57843150Y-37265610D02*
X66721990Y-37265610D01*
X32338010Y-37316410D02*
X33659081Y-37316410D01*
X37469805Y-37316410D02*
X53979081Y-37316410D01*
X57789805Y-37316410D02*
X66721990Y-37316410D01*
X32338010Y-37367210D02*
X33732172Y-37367210D01*
X37401079Y-37367210D02*
X54052172Y-37367210D01*
X57721079Y-37367210D02*
X66721990Y-37367210D01*
X32338010Y-37418010D02*
X33805264Y-37418010D01*
X37321031Y-37418010D02*
X54125264Y-37418010D01*
X57641031Y-37418010D02*
X66721990Y-37418010D01*
X32338010Y-37468810D02*
X33878355Y-37468810D01*
X37240983Y-37468810D02*
X54198355Y-37468810D01*
X57560983Y-37468810D02*
X66721990Y-37468810D01*
X32338010Y-37519610D02*
X33951447Y-37519610D01*
X37160935Y-37519610D02*
X54271447Y-37519610D01*
X57480935Y-37519610D02*
X66721990Y-37519610D01*
X32338010Y-37570410D02*
X34024539Y-37570410D01*
X37080887Y-37570410D02*
X54344539Y-37570410D01*
X57400887Y-37570410D02*
X66721990Y-37570410D01*
X32338010Y-37621210D02*
X34117167Y-37621210D01*
X37000839Y-37621210D02*
X54437167Y-37621210D01*
X57320839Y-37621210D02*
X66721990Y-37621210D01*
X32338010Y-37672010D02*
X34233443Y-37672010D01*
X36907251Y-37672010D02*
X54553443Y-37672010D01*
X57227251Y-37672010D02*
X66721990Y-37672010D01*
X32338010Y-37722810D02*
X34349720Y-37722810D01*
X36776281Y-37722810D02*
X54669720Y-37722810D01*
X57096281Y-37722810D02*
X66721990Y-37722810D01*
X32338010Y-37773610D02*
X34465996Y-37773610D01*
X36645311Y-37773610D02*
X54785996Y-37773610D01*
X56965311Y-37773610D02*
X66721990Y-37773610D01*
X32338010Y-37824410D02*
X34582272Y-37824410D01*
X36514341Y-37824410D02*
X54902272Y-37824410D01*
X56834341Y-37824410D02*
X66721990Y-37824410D01*
X32338010Y-37875210D02*
X34783221Y-37875210D01*
X36382232Y-37875210D02*
X55103221Y-37875210D01*
X56702232Y-37875210D02*
X66721990Y-37875210D01*
X32338010Y-37926010D02*
X35014274Y-37926010D01*
X36094133Y-37926010D02*
X55334274Y-37926010D01*
X56414133Y-37926010D02*
X66721990Y-37926010D01*
X32338010Y-37976810D02*
X35703700Y-37976810D01*
X35806033Y-37976810D02*
X56023700Y-37976810D01*
X56126033Y-37976810D02*
X66721990Y-37976810D01*
X32338010Y-38027610D02*
X66721990Y-38027610D01*
X32338010Y-38078410D02*
X66721990Y-38078410D01*
X32338010Y-38129210D02*
X66721990Y-38129210D01*
X32338010Y-38180010D02*
X66721990Y-38180010D01*
X32338010Y-38230810D02*
X66721990Y-38230810D01*
X32338010Y-38281610D02*
X66721990Y-38281610D01*
X32338010Y-38332410D02*
X46310566Y-38332410D01*
X47145772Y-38332410D02*
X66721990Y-38332410D01*
X32338010Y-38383210D02*
X46142119Y-38383210D01*
X47325400Y-38383210D02*
X66721990Y-38383210D01*
X32338010Y-38434010D02*
X46067277Y-38434010D01*
X47394704Y-38434010D02*
X47858548Y-38434010D01*
X48152605Y-38434010D02*
X66721990Y-38434010D01*
X32338010Y-38484810D02*
X46023981Y-38484810D01*
X47444323Y-38484810D02*
X47706190Y-38484810D01*
X48304489Y-38484810D02*
X66721990Y-38484810D01*
X32338010Y-38535610D02*
X45988489Y-38535610D01*
X47477798Y-38535610D02*
X47619031Y-38535610D01*
X48392941Y-38535610D02*
X66721990Y-38535610D01*
X32338010Y-38586410D02*
X45965590Y-38586410D01*
X48463140Y-38586410D02*
X66721990Y-38586410D01*
X32338010Y-38637210D02*
X45948423Y-38637210D01*
X48513587Y-38637210D02*
X66721990Y-38637210D01*
X32338010Y-38688010D02*
X45941203Y-38688010D01*
X48559107Y-38688010D02*
X66721990Y-38688010D01*
X32338010Y-38738810D02*
X45935247Y-38738810D01*
X48592859Y-38738810D02*
X66721990Y-38738810D01*
X32338010Y-38789610D02*
X45935247Y-38789610D01*
X48625940Y-38789610D02*
X66721990Y-38789610D01*
X32338010Y-38840410D02*
X45935247Y-38840410D01*
X48646878Y-38840410D02*
X66721990Y-38840410D01*
X32338010Y-38891210D02*
X45935247Y-38891210D01*
X48667816Y-38891210D02*
X66721990Y-38891210D01*
X32338010Y-38942010D02*
X45935247Y-38942010D01*
X48682632Y-38942010D02*
X66721990Y-38942010D01*
X32338010Y-38992810D02*
X45935247Y-38992810D01*
X48692691Y-38992810D02*
X66721990Y-38992810D01*
X32338010Y-39043610D02*
X45935247Y-39043610D01*
X48702749Y-39043610D02*
X66721990Y-39043610D01*
X32338010Y-39094410D02*
X45935247Y-39094410D01*
X48702886Y-39094410D02*
X66721990Y-39094410D01*
X32338010Y-39145210D02*
X45935247Y-39145210D01*
X48702176Y-39145210D02*
X66721990Y-39145210D01*
X32338010Y-39196010D02*
X45935247Y-39196010D01*
X48701467Y-39196010D02*
X66721990Y-39196010D01*
X32338010Y-39246810D02*
X45935247Y-39246810D01*
X48691596Y-39246810D02*
X66721990Y-39246810D01*
X32338010Y-39297610D02*
X45935247Y-39297610D01*
X48680055Y-39297610D02*
X66721990Y-39297610D01*
X32338010Y-39348410D02*
X45935247Y-39348410D01*
X48666077Y-39348410D02*
X66721990Y-39348410D01*
X32338010Y-39399210D02*
X45935247Y-39399210D01*
X48643459Y-39399210D02*
X66721990Y-39399210D01*
X32338010Y-39450010D02*
X45935247Y-39450010D01*
X48620841Y-39450010D02*
X66721990Y-39450010D01*
X32338010Y-39500810D02*
X45935247Y-39500810D01*
X48588176Y-39500810D02*
X66721990Y-39500810D01*
X32338010Y-39551610D02*
X45937171Y-39551610D01*
X48552341Y-39551610D02*
X66721990Y-39551610D01*
X32338010Y-39602410D02*
X45943895Y-39602410D01*
X48506704Y-39602410D02*
X66721990Y-39602410D01*
X32338010Y-39653210D02*
X45959627Y-39653210D01*
X48453359Y-39653210D02*
X66721990Y-39653210D01*
X32338010Y-39704010D02*
X45977406Y-39704010D01*
X48381245Y-39704010D02*
X66721990Y-39704010D01*
X32338010Y-39754810D02*
X46010881Y-39754810D01*
X47458093Y-39754810D02*
X47725848Y-39754810D01*
X48287955Y-39754810D02*
X66721990Y-39754810D01*
X32338010Y-39805610D02*
X46051355Y-39805610D01*
X47414797Y-39805610D02*
X47894154Y-39805610D01*
X48111998Y-39805610D02*
X66721990Y-39805610D01*
X32338010Y-39856410D02*
X46110959Y-39856410D01*
X47351783Y-39856410D02*
X66721990Y-39856410D01*
X32338010Y-39907210D02*
X46103573Y-39907210D01*
X47364901Y-39907210D02*
X66721990Y-39907210D01*
X32338010Y-39958010D02*
X46045629Y-39958010D01*
X47424506Y-39958010D02*
X66721990Y-39958010D01*
X32338010Y-40008810D02*
X46002333Y-40008810D01*
X47461061Y-40008810D02*
X66721990Y-40008810D01*
X32338010Y-40059610D02*
X45977040Y-40059610D01*
X47493921Y-40059610D02*
X66721990Y-40059610D01*
X32338010Y-40110410D02*
X45954141Y-40110410D01*
X47509653Y-40110410D02*
X66721990Y-40110410D01*
X32338010Y-40161210D02*
X45944813Y-40161210D01*
X47525384Y-40161210D02*
X66721990Y-40161210D01*
X32338010Y-40212010D02*
X42956662Y-40212010D01*
X43905216Y-40212010D02*
X44480662Y-40212010D01*
X45429216Y-40212010D02*
X45937594Y-40212010D01*
X47530357Y-40212010D02*
X66721990Y-40212010D01*
X32338010Y-40262810D02*
X42873830Y-40262810D01*
X43993102Y-40262810D02*
X44397830Y-40262810D01*
X45517102Y-40262810D02*
X45935247Y-40262810D01*
X47531673Y-40262810D02*
X66721990Y-40262810D01*
X32338010Y-40313610D02*
X42820954Y-40313610D01*
X44051867Y-40313610D02*
X44344954Y-40313610D01*
X45575867Y-40313610D02*
X45935247Y-40313610D01*
X47531673Y-40313610D02*
X66721990Y-40313610D01*
X32338010Y-40364410D02*
X42778324Y-40364410D01*
X44085342Y-40364410D02*
X44302324Y-40364410D01*
X45609342Y-40364410D02*
X45935247Y-40364410D01*
X47531673Y-40364410D02*
X66721990Y-40364410D01*
X32338010Y-40415210D02*
X42755425Y-40415210D01*
X44115541Y-40415210D02*
X44279425Y-40415210D01*
X45639541Y-40415210D02*
X45935247Y-40415210D01*
X47531673Y-40415210D02*
X66721990Y-40415210D01*
X32338010Y-40466010D02*
X42732769Y-40466010D01*
X44131273Y-40466010D02*
X44256769Y-40466010D01*
X45655273Y-40466010D02*
X45935247Y-40466010D01*
X47531673Y-40466010D02*
X66721990Y-40466010D01*
X32338010Y-40516810D02*
X42725550Y-40516810D01*
X44146174Y-40516810D02*
X44249550Y-40516810D01*
X45670174Y-40516810D02*
X45935247Y-40516810D01*
X47531673Y-40516810D02*
X66721990Y-40516810D01*
X32338010Y-40567610D02*
X42718331Y-40567610D01*
X44150225Y-40567610D02*
X44242331Y-40567610D01*
X47531673Y-40567610D02*
X66721990Y-40567610D01*
X32338010Y-40618410D02*
X42717067Y-40618410D01*
X44150933Y-40618410D02*
X44241067Y-40618410D01*
X47531673Y-40618410D02*
X66721990Y-40618410D01*
X32338010Y-40669210D02*
X42717067Y-40669210D01*
X44150933Y-40669210D02*
X44241067Y-40669210D01*
X47531673Y-40669210D02*
X66721990Y-40669210D01*
X32338010Y-40720010D02*
X42717067Y-40720010D01*
X44150933Y-40720010D02*
X44241067Y-40720010D01*
X47531673Y-40720010D02*
X66721990Y-40720010D01*
X32338010Y-40770810D02*
X42717067Y-40770810D01*
X44150933Y-40770810D02*
X44241067Y-40770810D01*
X47531673Y-40770810D02*
X66721990Y-40770810D01*
X32338010Y-40821610D02*
X42717067Y-40821610D01*
X44150933Y-40821610D02*
X44241067Y-40821610D01*
X47531673Y-40821610D02*
X66721990Y-40821610D01*
X32338010Y-40872410D02*
X42717067Y-40872410D01*
X44150933Y-40872410D02*
X44241067Y-40872410D01*
X47531673Y-40872410D02*
X66721990Y-40872410D01*
X32338010Y-40923210D02*
X42717067Y-40923210D01*
X44150933Y-40923210D02*
X44241067Y-40923210D01*
X47531673Y-40923210D02*
X66721990Y-40923210D01*
X32338010Y-40974010D02*
X42717067Y-40974010D01*
X44150933Y-40974010D02*
X44241067Y-40974010D01*
X47531673Y-40974010D02*
X66721990Y-40974010D01*
X32338010Y-41024810D02*
X42717067Y-41024810D01*
X44150933Y-41024810D02*
X44241067Y-41024810D01*
X47531673Y-41024810D02*
X66721990Y-41024810D01*
X32338010Y-41075610D02*
X42717067Y-41075610D01*
X44150933Y-41075610D02*
X44241067Y-41075610D01*
X47524634Y-41075610D02*
X66721990Y-41075610D01*
X32338010Y-41126410D02*
X42717067Y-41126410D01*
X44150933Y-41126410D02*
X44241067Y-41126410D01*
X47517414Y-41126410D02*
X66721990Y-41126410D01*
X32338010Y-41177210D02*
X42717067Y-41177210D01*
X44150933Y-41177210D02*
X44241067Y-41177210D01*
X47497895Y-41177210D02*
X66721990Y-41177210D01*
X32338010Y-41228010D02*
X42717067Y-41228010D01*
X44150933Y-41228010D02*
X44241067Y-41228010D01*
X47474996Y-41228010D02*
X66721990Y-41228010D01*
X32338010Y-41278810D02*
X42717067Y-41278810D01*
X44150933Y-41278810D02*
X44241067Y-41278810D01*
X47436445Y-41278810D02*
X66721990Y-41278810D01*
X32338010Y-41329610D02*
X42717067Y-41329610D01*
X44150933Y-41329610D02*
X44241067Y-41329610D01*
X47390329Y-41329610D02*
X66721990Y-41329610D01*
X32338010Y-41380410D02*
X42717067Y-41380410D01*
X44150933Y-41380410D02*
X44241067Y-41380410D01*
X47313237Y-41380410D02*
X66721990Y-41380410D01*
X32338010Y-41431210D02*
X42717067Y-41431210D01*
X44150933Y-41431210D02*
X44241067Y-41431210D01*
X46757530Y-41431210D02*
X66721990Y-41431210D01*
X32338010Y-41482010D02*
X42717067Y-41482010D01*
X44150933Y-41482010D02*
X44241067Y-41482010D01*
X46706730Y-41482010D02*
X66721990Y-41482010D01*
X32338010Y-41532810D02*
X42717067Y-41532810D01*
X44150933Y-41532810D02*
X44241067Y-41532810D01*
X46655930Y-41532810D02*
X66721990Y-41532810D01*
X32338010Y-41583610D02*
X42717067Y-41583610D01*
X44150933Y-41583610D02*
X44241067Y-41583610D01*
X46601036Y-41583610D02*
X66721990Y-41583610D01*
X32338010Y-41634410D02*
X42717067Y-41634410D01*
X44150933Y-41634410D02*
X44241067Y-41634410D01*
X46538274Y-41634410D02*
X66721990Y-41634410D01*
X32338010Y-41685210D02*
X42717067Y-41685210D01*
X44150933Y-41685210D02*
X44241067Y-41685210D01*
X46443545Y-41685210D02*
X66721990Y-41685210D01*
X32338010Y-41736010D02*
X42718383Y-41736010D01*
X44148586Y-41736010D02*
X44242383Y-41736010D01*
X45672587Y-41736010D02*
X66721990Y-41736010D01*
X32338010Y-41786810D02*
X42723356Y-41786810D01*
X44141367Y-41786810D02*
X44247356Y-41786810D01*
X45665367Y-41786810D02*
X66721990Y-41786810D01*
X32338010Y-41837610D02*
X42694055Y-41837610D01*
X44132039Y-41837610D02*
X44263087Y-41837610D01*
X45656039Y-41837610D02*
X66721990Y-41837610D01*
X32338010Y-41888410D02*
X42666586Y-41888410D01*
X44109140Y-41888410D02*
X44278819Y-41888410D01*
X45633140Y-41888410D02*
X66721990Y-41888410D01*
X32338010Y-41939210D02*
X42639426Y-41939210D01*
X44083847Y-41939210D02*
X44311679Y-41939210D01*
X45607847Y-41939210D02*
X66721990Y-41939210D01*
X32338010Y-41990010D02*
X42623895Y-41990010D01*
X44040551Y-41990010D02*
X44348234Y-41990010D01*
X45564551Y-41990010D02*
X66721990Y-41990010D01*
X32338010Y-42040810D02*
X42607789Y-42040810D01*
X44003794Y-42040810D02*
X44407839Y-42040810D01*
X45506607Y-42040810D02*
X66721990Y-42040810D01*
X32338010Y-42091610D02*
X42601680Y-42091610D01*
X43987775Y-42091610D02*
X44503688Y-42091610D01*
X45410731Y-42091610D02*
X66721990Y-42091610D01*
X32338010Y-42142410D02*
X42596092Y-42142410D01*
X43971153Y-42142410D02*
X66721990Y-42142410D01*
X32338010Y-42193210D02*
X42594530Y-42193210D01*
X43943295Y-42193210D02*
X66721990Y-42193210D01*
X32338010Y-42244010D02*
X42594530Y-42244010D01*
X43914361Y-42244010D02*
X66721990Y-42244010D01*
X32338010Y-42294810D02*
X42594530Y-42294810D01*
X43871958Y-42294810D02*
X66721990Y-42294810D01*
X32338010Y-42345610D02*
X42594530Y-42345610D01*
X43826370Y-42345610D02*
X66721990Y-42345610D01*
X32338010Y-42396410D02*
X42594530Y-42396410D01*
X43775570Y-42396410D02*
X66721990Y-42396410D01*
X32338010Y-42447210D02*
X42594530Y-42447210D01*
X43765470Y-42447210D02*
X66721990Y-42447210D01*
X32338010Y-42498010D02*
X42594530Y-42498010D01*
X43765470Y-42498010D02*
X66721990Y-42498010D01*
X32338010Y-42548810D02*
X42594530Y-42548810D01*
X43765470Y-42548810D02*
X60076633Y-42548810D01*
X61845002Y-42548810D02*
X63281069Y-42548810D01*
X63714475Y-42548810D02*
X66721990Y-42548810D01*
X32338010Y-42599610D02*
X42594530Y-42599610D01*
X43765470Y-42599610D02*
X59972063Y-42599610D01*
X61946161Y-42599610D02*
X63095914Y-42599610D01*
X63900574Y-42599610D02*
X66721990Y-42599610D01*
X32338010Y-42650410D02*
X42594530Y-42650410D01*
X43765470Y-42650410D02*
X59910738Y-42650410D01*
X62005765Y-42650410D02*
X62970180Y-42650410D01*
X64021422Y-42650410D02*
X66721990Y-42650410D01*
X32338010Y-42701210D02*
X42594530Y-42701210D01*
X43765470Y-42701210D02*
X59867442Y-42701210D01*
X62044933Y-42701210D02*
X62887761Y-42701210D01*
X64108114Y-42701210D02*
X66721990Y-42701210D01*
X32338010Y-42752010D02*
X42594530Y-42752010D01*
X43765470Y-42752010D02*
X59840109Y-42752010D01*
X62078408Y-42752010D02*
X62810131Y-42752010D01*
X64183428Y-42752010D02*
X66721990Y-42752010D01*
X32338010Y-42802810D02*
X42592882Y-42802810D01*
X43766858Y-42802810D02*
X59817211Y-42802810D01*
X62095300Y-42802810D02*
X62744076Y-42802810D01*
X64252598Y-42802810D02*
X66721990Y-42802810D01*
X32338010Y-42853610D02*
X42560983Y-42853610D01*
X43799940Y-42853610D02*
X59806315Y-42853610D01*
X62111031Y-42853610D02*
X62692201Y-42853610D01*
X64303045Y-42853610D02*
X66721990Y-42853610D01*
X32338010Y-42904410D02*
X42539210Y-42904410D01*
X43820879Y-42904410D02*
X59799096Y-42904410D01*
X62117172Y-42904410D02*
X62640325Y-42904410D01*
X64353492Y-42904410D02*
X66721990Y-42904410D01*
X32338010Y-42955210D02*
X42517437Y-42955210D01*
X43841817Y-42955210D02*
X59796027Y-42955210D01*
X62118893Y-42955210D02*
X62593879Y-42955210D01*
X64402755Y-42955210D02*
X66721990Y-42955210D01*
X32338010Y-43006010D02*
X42503860Y-43006010D01*
X43856632Y-43006010D02*
X59796027Y-43006010D01*
X62118893Y-43006010D02*
X62559095Y-43006010D01*
X64436507Y-43006010D02*
X66721990Y-43006010D01*
X32338010Y-43056810D02*
X42493062Y-43056810D01*
X43866691Y-43056810D02*
X59796027Y-43056810D01*
X62118893Y-43056810D02*
X62524312Y-43056810D01*
X64470259Y-43056810D02*
X66721990Y-43056810D01*
X32338010Y-43107610D02*
X42483403Y-43107610D01*
X43876749Y-43107610D02*
X59796027Y-43107610D01*
X62118893Y-43107610D02*
X62489529Y-43107610D01*
X64504010Y-43107610D02*
X66721990Y-43107610D01*
X32338010Y-43158410D02*
X42482694Y-43158410D01*
X43876886Y-43158410D02*
X59796027Y-43158410D01*
X62118893Y-43158410D02*
X62462867Y-43158410D01*
X64533373Y-43158410D02*
X66721990Y-43158410D01*
X32338010Y-43209210D02*
X42481985Y-43209210D01*
X43876176Y-43209210D02*
X59796027Y-43209210D01*
X62118893Y-43209210D02*
X62441094Y-43209210D01*
X64554311Y-43209210D02*
X66721990Y-43209210D01*
X32338010Y-43260010D02*
X42485493Y-43260010D01*
X43875467Y-43260010D02*
X59796027Y-43260010D01*
X62118893Y-43260010D02*
X62419321Y-43260010D01*
X64575249Y-43260010D02*
X66721990Y-43260010D01*
X32338010Y-43310810D02*
X42494817Y-43310810D01*
X43865596Y-43310810D02*
X59796027Y-43310810D01*
X62118893Y-43310810D02*
X62397548Y-43310810D01*
X64596187Y-43310810D02*
X66721990Y-43310810D01*
X32338010Y-43361610D02*
X42504140Y-43361610D01*
X43854055Y-43361610D02*
X59796027Y-43361610D01*
X62118893Y-43361610D02*
X62381372Y-43361610D01*
X64614905Y-43361610D02*
X66721990Y-43361610D01*
X32338010Y-43412410D02*
X42521794Y-43412410D01*
X43840077Y-43412410D02*
X59796027Y-43412410D01*
X62118893Y-43412410D02*
X62370574Y-43412410D01*
X64624964Y-43412410D02*
X66721990Y-43412410D01*
X32338010Y-43463210D02*
X42541907Y-43463210D01*
X43817459Y-43463210D02*
X59796027Y-43463210D01*
X62118893Y-43463210D02*
X62359776Y-43463210D01*
X64635022Y-43463210D02*
X66721990Y-43463210D01*
X32338010Y-43514010D02*
X42565409Y-43514010D01*
X43794841Y-43514010D02*
X59796027Y-43514010D01*
X62118893Y-43514010D02*
X62348978Y-43514010D01*
X64645081Y-43514010D02*
X66721990Y-43514010D01*
X32338010Y-43564810D02*
X42598148Y-43564810D01*
X43762176Y-43564810D02*
X59796027Y-43564810D01*
X62118893Y-43564810D02*
X62339508Y-43564810D01*
X64655140Y-43564810D02*
X66721990Y-43564810D01*
X32338010Y-43615610D02*
X42630969Y-43615610D01*
X43726341Y-43615610D02*
X59796027Y-43615610D01*
X62118893Y-43615610D02*
X62338799Y-43615610D01*
X64656442Y-43615610D02*
X66721990Y-43615610D01*
X32338010Y-43666410D02*
X42680025Y-43666410D01*
X43680704Y-43666410D02*
X59796027Y-43666410D01*
X62118893Y-43666410D02*
X62338089Y-43666410D01*
X64655733Y-43666410D02*
X66721990Y-43666410D01*
X32338010Y-43717210D02*
X42730718Y-43717210D01*
X43627359Y-43717210D02*
X59796027Y-43717210D01*
X62118893Y-43717210D02*
X62337380Y-43717210D01*
X64655023Y-43717210D02*
X66721990Y-43717210D01*
X32338010Y-43768010D02*
X42803810Y-43768010D01*
X43555245Y-43768010D02*
X59796027Y-43768010D01*
X62118893Y-43768010D02*
X62336671Y-43768010D01*
X64654314Y-43768010D02*
X66721990Y-43768010D01*
X32338010Y-43818810D02*
X42899848Y-43818810D01*
X43461955Y-43818810D02*
X59796027Y-43818810D01*
X62118893Y-43818810D02*
X62342540Y-43818810D01*
X64653605Y-43818810D02*
X66721990Y-43818810D01*
X32338010Y-43869610D02*
X43068154Y-43869610D01*
X43285998Y-43869610D02*
X59796027Y-43869610D01*
X62118893Y-43869610D02*
X62351864Y-43869610D01*
X64645308Y-43869610D02*
X66721990Y-43869610D01*
X32338010Y-43920410D02*
X59796027Y-43920410D01*
X62118893Y-43920410D02*
X62361187Y-43920410D01*
X64633767Y-43920410D02*
X66721990Y-43920410D01*
X32338010Y-43971210D02*
X59796027Y-43971210D01*
X62118893Y-43971210D02*
X62370511Y-43971210D01*
X64622225Y-43971210D02*
X66721990Y-43971210D01*
X32338010Y-44022010D02*
X59796027Y-44022010D01*
X62118893Y-44022010D02*
X62382566Y-44022010D01*
X64610683Y-44022010D02*
X66721990Y-44022010D01*
X32338010Y-44072810D02*
X59796027Y-44072810D01*
X62118893Y-44072810D02*
X62402679Y-44072810D01*
X64595426Y-44072810D02*
X66721990Y-44072810D01*
X32338010Y-44123610D02*
X59796027Y-44123610D01*
X62118893Y-44123610D02*
X62422792Y-44123610D01*
X64572809Y-44123610D02*
X66721990Y-44123610D01*
X32338010Y-44174410D02*
X59796027Y-44174410D01*
X62118893Y-44174410D02*
X62442905Y-44174410D01*
X64550192Y-44174410D02*
X66721990Y-44174410D01*
X32338010Y-44225210D02*
X59796027Y-44225210D01*
X62118893Y-44225210D02*
X62464170Y-44225210D01*
X64527574Y-44225210D02*
X66721990Y-44225210D01*
X32338010Y-44276010D02*
X59796027Y-44276010D01*
X62118893Y-44276010D02*
X62496909Y-44276010D01*
X64501702Y-44276010D02*
X66721990Y-44276010D01*
X32338010Y-44326810D02*
X59796027Y-44326810D01*
X62118893Y-44326810D02*
X62529647Y-44326810D01*
X64465866Y-44326810D02*
X66721990Y-44326810D01*
X32338010Y-44377610D02*
X59796027Y-44377610D01*
X62118893Y-44377610D02*
X62562385Y-44377610D01*
X64430031Y-44377610D02*
X66721990Y-44377610D01*
X32338010Y-44428410D02*
X59796027Y-44428410D01*
X62118893Y-44428410D02*
X62600488Y-44428410D01*
X64394195Y-44428410D02*
X66721990Y-44428410D01*
X32338010Y-44479210D02*
X59798356Y-44479210D01*
X62114741Y-44479210D02*
X62649545Y-44479210D01*
X64348055Y-44479210D02*
X66721990Y-44479210D01*
X32338010Y-44530010D02*
X59806249Y-44530010D01*
X62107522Y-44530010D02*
X62698602Y-44530010D01*
X64294709Y-44530010D02*
X66721990Y-44530010D01*
X32338010Y-44580810D02*
X59821980Y-44580810D01*
X62094275Y-44580810D02*
X62750273Y-44580810D01*
X64241364Y-44580810D02*
X66721990Y-44580810D01*
X32338010Y-44631610D02*
X59841533Y-44631610D01*
X62071376Y-44631610D02*
X62823365Y-44631610D01*
X64174624Y-44631610D02*
X66721990Y-44631610D01*
X32338010Y-44682410D02*
X59875008Y-44682410D01*
X62040983Y-44682410D02*
X62896457Y-44682410D01*
X64094576Y-44682410D02*
X66721990Y-44682410D01*
X32338010Y-44733210D02*
X59918095Y-44733210D01*
X61997687Y-44733210D02*
X62993480Y-44733210D01*
X64009276Y-44733210D02*
X66721990Y-44733210D01*
X32338010Y-44784010D02*
X59977700Y-44784010D01*
X61931294Y-44784010D02*
X63109756Y-44784010D01*
X63878305Y-44784010D02*
X66721990Y-44784010D01*
X32338010Y-44834810D02*
X60092561Y-44834810D01*
X61813681Y-44834810D02*
X63313503Y-44834810D01*
X63671213Y-44834810D02*
X66721990Y-44834810D01*
X32338010Y-44885610D02*
X66721990Y-44885610D01*
X32338010Y-44936410D02*
X66721990Y-44936410D01*
X32338010Y-44987210D02*
X66721990Y-44987210D01*
X32338010Y-45038010D02*
X66721990Y-45038010D01*
X32338010Y-45088810D02*
X60741069Y-45088810D01*
X61174475Y-45088810D02*
X63276787Y-45088810D01*
X63715740Y-45088810D02*
X66721990Y-45088810D01*
X32338010Y-45139610D02*
X60555914Y-45139610D01*
X61360574Y-45139610D02*
X63086840Y-45139610D01*
X63897384Y-45139610D02*
X66721990Y-45139610D01*
X32338010Y-45190410D02*
X60430180Y-45190410D01*
X61481422Y-45190410D02*
X62978848Y-45190410D01*
X64016073Y-45190410D02*
X66721990Y-45190410D01*
X32338010Y-45241210D02*
X60347761Y-45241210D01*
X61568114Y-45241210D02*
X62952402Y-45241210D01*
X64042519Y-45241210D02*
X66721990Y-45241210D01*
X32338010Y-45292010D02*
X60270131Y-45292010D01*
X61643428Y-45292010D02*
X62925956Y-45292010D01*
X64068965Y-45292010D02*
X66721990Y-45292010D01*
X32338010Y-45342810D02*
X60204076Y-45342810D01*
X61712599Y-45342810D02*
X62899510Y-45342810D01*
X64095411Y-45342810D02*
X66721990Y-45342810D01*
X32338010Y-45393610D02*
X60152201Y-45393610D01*
X61763045Y-45393610D02*
X62943254Y-45393610D01*
X64051666Y-45393610D02*
X66721990Y-45393610D01*
X32338010Y-45444410D02*
X60100325Y-45444410D01*
X61813492Y-45444410D02*
X62994054Y-45444410D01*
X64000866Y-45444410D02*
X66721990Y-45444410D01*
X32338010Y-45495210D02*
X60053879Y-45495210D01*
X61862755Y-45495210D02*
X63044854Y-45495210D01*
X63950066Y-45495210D02*
X66721990Y-45495210D01*
X32338010Y-45546010D02*
X60019095Y-45546010D01*
X61896507Y-45546010D02*
X63095654Y-45546010D01*
X63899266Y-45546010D02*
X66721990Y-45546010D01*
X32338010Y-45596810D02*
X59984312Y-45596810D01*
X61930259Y-45596810D02*
X63146454Y-45596810D01*
X63848466Y-45596810D02*
X66721990Y-45596810D01*
X32338010Y-45647610D02*
X59949529Y-45647610D01*
X61964010Y-45647610D02*
X62578539Y-45647610D01*
X62636886Y-45647610D02*
X63197254Y-45647610D01*
X63797666Y-45647610D02*
X64358034Y-45647610D01*
X64416382Y-45647610D02*
X66721990Y-45647610D01*
X32338010Y-45698410D02*
X59922867Y-45698410D01*
X61993373Y-45698410D02*
X62480957Y-45698410D01*
X62687686Y-45698410D02*
X63248054Y-45698410D01*
X63746866Y-45698410D02*
X64307234Y-45698410D01*
X64513964Y-45698410D02*
X66721990Y-45698410D01*
X32338010Y-45749210D02*
X59901094Y-45749210D01*
X62014311Y-45749210D02*
X62438690Y-45749210D01*
X62738486Y-45749210D02*
X63298854Y-45749210D01*
X63696066Y-45749210D02*
X64256434Y-45749210D01*
X64557614Y-45749210D02*
X66721990Y-45749210D01*
X32338010Y-45800010D02*
X59879321Y-45800010D01*
X62035249Y-45800010D02*
X62419611Y-45800010D01*
X62789286Y-45800010D02*
X63349654Y-45800010D01*
X63645266Y-45800010D02*
X64205634Y-45800010D01*
X64578656Y-45800010D02*
X66721990Y-45800010D01*
X32338010Y-45850810D02*
X59857548Y-45850810D01*
X62056187Y-45850810D02*
X62400533Y-45850810D01*
X62840086Y-45850810D02*
X63400454Y-45850810D01*
X63594466Y-45850810D02*
X64154834Y-45850810D01*
X64599698Y-45850810D02*
X66721990Y-45850810D01*
X32338010Y-45901610D02*
X59841372Y-45901610D01*
X62074905Y-45901610D02*
X62381454Y-45901610D01*
X62890886Y-45901610D02*
X63451254Y-45901610D01*
X63543666Y-45901610D02*
X64104034Y-45901610D01*
X64611923Y-45901610D02*
X66721990Y-45901610D01*
X32338010Y-45952410D02*
X59830574Y-45952410D01*
X62084964Y-45952410D02*
X62367691Y-45952410D01*
X62941686Y-45952410D02*
X64053234Y-45952410D01*
X64623805Y-45952410D02*
X66721990Y-45952410D01*
X32338010Y-46003210D02*
X59819776Y-46003210D01*
X62095022Y-46003210D02*
X62359341Y-46003210D01*
X62992486Y-46003210D02*
X64002434Y-46003210D01*
X64635688Y-46003210D02*
X66721990Y-46003210D01*
X32338010Y-46054010D02*
X59808978Y-46054010D01*
X62105081Y-46054010D02*
X62350990Y-46054010D01*
X63043286Y-46054010D02*
X63951634Y-46054010D01*
X64647570Y-46054010D02*
X66721990Y-46054010D01*
X32338010Y-46104810D02*
X59799508Y-46104810D01*
X62115140Y-46104810D02*
X62342640Y-46104810D01*
X63094086Y-46104810D02*
X63900834Y-46104810D01*
X64653499Y-46104810D02*
X66721990Y-46104810D01*
X32338010Y-46155610D02*
X59798799Y-46155610D01*
X62116442Y-46155610D02*
X62334881Y-46155610D01*
X63144886Y-46155610D02*
X63850034Y-46155610D01*
X64655198Y-46155610D02*
X66721990Y-46155610D01*
X32338010Y-46206410D02*
X59798089Y-46206410D01*
X62115732Y-46206410D02*
X62336580Y-46206410D01*
X63195686Y-46206410D02*
X63799234Y-46206410D01*
X64656896Y-46206410D02*
X66721990Y-46206410D01*
X32338010Y-46257210D02*
X59797380Y-46257210D01*
X62115023Y-46257210D02*
X62338278Y-46257210D01*
X63188066Y-46257210D02*
X63806854Y-46257210D01*
X64658595Y-46257210D02*
X66721990Y-46257210D01*
X32338010Y-46308010D02*
X59796671Y-46308010D01*
X62114314Y-46308010D02*
X62339977Y-46308010D01*
X63137266Y-46308010D02*
X63857654Y-46308010D01*
X64659378Y-46308010D02*
X66721990Y-46308010D01*
X32338010Y-46358810D02*
X59802540Y-46358810D01*
X62113605Y-46358810D02*
X62341676Y-46358810D01*
X63086466Y-46358810D02*
X63908454Y-46358810D01*
X64651028Y-46358810D02*
X66721990Y-46358810D01*
X32338010Y-46409610D02*
X59811864Y-46409610D01*
X62105308Y-46409610D02*
X62349132Y-46409610D01*
X63035666Y-46409610D02*
X63959254Y-46409610D01*
X64642677Y-46409610D02*
X66721990Y-46409610D01*
X32338010Y-46460410D02*
X59821187Y-46460410D01*
X62093767Y-46460410D02*
X62361015Y-46460410D01*
X62984866Y-46460410D02*
X64010054Y-46460410D01*
X64634327Y-46460410D02*
X66721990Y-46460410D01*
X32338010Y-46511210D02*
X59830511Y-46511210D01*
X62082225Y-46511210D02*
X62372897Y-46511210D01*
X62934066Y-46511210D02*
X63494434Y-46511210D01*
X63500486Y-46511210D02*
X64060854Y-46511210D01*
X64625976Y-46511210D02*
X66721990Y-46511210D01*
X32338010Y-46562010D02*
X59842566Y-46562010D01*
X62070683Y-46562010D02*
X62384780Y-46562010D01*
X62883266Y-46562010D02*
X63443634Y-46562010D01*
X63551286Y-46562010D02*
X64111654Y-46562010D01*
X64610604Y-46562010D02*
X66721990Y-46562010D01*
X32338010Y-46612810D02*
X59862679Y-46612810D01*
X62055426Y-46612810D02*
X62398379Y-46612810D01*
X62832466Y-46612810D02*
X63392834Y-46612810D01*
X63602086Y-46612810D02*
X64162454Y-46612810D01*
X64591526Y-46612810D02*
X66721990Y-46612810D01*
X32338010Y-46663610D02*
X59882792Y-46663610D01*
X62032809Y-46663610D02*
X62419420Y-46663610D01*
X62781666Y-46663610D02*
X63342034Y-46663610D01*
X63652886Y-46663610D02*
X64213254Y-46663610D01*
X64572447Y-46663610D02*
X66721990Y-46663610D01*
X32338010Y-46714410D02*
X59902905Y-46714410D01*
X62010192Y-46714410D02*
X62440462Y-46714410D01*
X62730866Y-46714410D02*
X63291234Y-46714410D01*
X63703686Y-46714410D02*
X64264054Y-46714410D01*
X64553368Y-46714410D02*
X66721990Y-46714410D01*
X32338010Y-46765210D02*
X59924170Y-46765210D01*
X61987574Y-46765210D02*
X62495593Y-46765210D01*
X62680066Y-46765210D02*
X63240434Y-46765210D01*
X63754486Y-46765210D02*
X64314854Y-46765210D01*
X64499326Y-46765210D02*
X66721990Y-46765210D01*
X32338010Y-46816010D02*
X59956909Y-46816010D01*
X61961702Y-46816010D02*
X62593175Y-46816010D01*
X62629266Y-46816010D02*
X63189634Y-46816010D01*
X63805286Y-46816010D02*
X64365654Y-46816010D01*
X64401744Y-46816010D02*
X66721990Y-46816010D01*
X32338010Y-46866810D02*
X59989647Y-46866810D01*
X61925866Y-46866810D02*
X63138834Y-46866810D01*
X63856086Y-46866810D02*
X66721990Y-46866810D01*
X32338010Y-46917610D02*
X60022385Y-46917610D01*
X61890031Y-46917610D02*
X63088034Y-46917610D01*
X63906886Y-46917610D02*
X66721990Y-46917610D01*
X32338010Y-46968410D02*
X60060488Y-46968410D01*
X61854195Y-46968410D02*
X63037234Y-46968410D01*
X63957686Y-46968410D02*
X66721990Y-46968410D01*
X32338010Y-47019210D02*
X60109545Y-47019210D01*
X61808054Y-47019210D02*
X62986434Y-47019210D01*
X64008486Y-47019210D02*
X66721990Y-47019210D01*
X32338010Y-47070010D02*
X60158602Y-47070010D01*
X61754709Y-47070010D02*
X62935634Y-47070010D01*
X64059286Y-47070010D02*
X66721990Y-47070010D01*
X32338010Y-47120810D02*
X60210273Y-47120810D01*
X61701363Y-47120810D02*
X62903476Y-47120810D01*
X64091443Y-47120810D02*
X66721990Y-47120810D01*
X32338010Y-47171610D02*
X60283365Y-47171610D01*
X61634624Y-47171610D02*
X62929922Y-47171610D01*
X64064997Y-47171610D02*
X66721990Y-47171610D01*
X32338010Y-47222410D02*
X60356457Y-47222410D01*
X61554576Y-47222410D02*
X62956368Y-47222410D01*
X64038551Y-47222410D02*
X66721990Y-47222410D01*
X32338010Y-47273210D02*
X60453480Y-47273210D01*
X61469276Y-47273210D02*
X62982814Y-47273210D01*
X64012105Y-47273210D02*
X66721990Y-47273210D01*
X32338010Y-47324010D02*
X60569756Y-47324010D01*
X61338305Y-47324010D02*
X63117825Y-47324010D01*
X63889683Y-47324010D02*
X66721990Y-47324010D01*
X32338010Y-47374810D02*
X60773503Y-47374810D01*
X61131213Y-47374810D02*
X63325536Y-47374810D01*
X63685556Y-47374810D02*
X66721990Y-47374810D01*
X32338010Y-47425610D02*
X66721990Y-47425610D01*
X32338010Y-47476410D02*
X66721990Y-47476410D01*
X32338010Y-47527210D02*
X66721990Y-47527210D01*
X32338010Y-47578010D02*
X66721990Y-47578010D01*
X32338010Y-47628810D02*
X60741069Y-47628810D01*
X61174475Y-47628810D02*
X63276787Y-47628810D01*
X63715740Y-47628810D02*
X66721990Y-47628810D01*
X32338010Y-47679610D02*
X60555914Y-47679610D01*
X61360574Y-47679610D02*
X63086840Y-47679610D01*
X63897384Y-47679610D02*
X66721990Y-47679610D01*
X32338010Y-47730410D02*
X60430180Y-47730410D01*
X61481422Y-47730410D02*
X62978848Y-47730410D01*
X64016073Y-47730410D02*
X66721990Y-47730410D01*
X32338010Y-47781210D02*
X60347761Y-47781210D01*
X61568114Y-47781210D02*
X62952402Y-47781210D01*
X64042519Y-47781210D02*
X66721990Y-47781210D01*
X32338010Y-47832010D02*
X60270131Y-47832010D01*
X61643428Y-47832010D02*
X62925956Y-47832010D01*
X64068965Y-47832010D02*
X66721990Y-47832010D01*
X32338010Y-47882810D02*
X60204076Y-47882810D01*
X61712599Y-47882810D02*
X62899510Y-47882810D01*
X64095411Y-47882810D02*
X66721990Y-47882810D01*
X32338010Y-47933610D02*
X60152201Y-47933610D01*
X61763045Y-47933610D02*
X62943254Y-47933610D01*
X64051666Y-47933610D02*
X66721990Y-47933610D01*
X32338010Y-47984410D02*
X60100325Y-47984410D01*
X61813492Y-47984410D02*
X62994054Y-47984410D01*
X64000866Y-47984410D02*
X66721990Y-47984410D01*
X32338010Y-48035210D02*
X60053879Y-48035210D01*
X61862755Y-48035210D02*
X63044854Y-48035210D01*
X63950066Y-48035210D02*
X66721990Y-48035210D01*
X32338010Y-48086010D02*
X60019095Y-48086010D01*
X61896507Y-48086010D02*
X63095654Y-48086010D01*
X63899266Y-48086010D02*
X66721990Y-48086010D01*
X32338010Y-48136810D02*
X59984312Y-48136810D01*
X61930259Y-48136810D02*
X63146454Y-48136810D01*
X63848466Y-48136810D02*
X66721990Y-48136810D01*
X32338010Y-48187610D02*
X59949529Y-48187610D01*
X61964010Y-48187610D02*
X62578539Y-48187610D01*
X62636886Y-48187610D02*
X63197254Y-48187610D01*
X63797666Y-48187610D02*
X64358034Y-48187610D01*
X64416382Y-48187610D02*
X66721990Y-48187610D01*
X32338010Y-48238410D02*
X59922867Y-48238410D01*
X61993373Y-48238410D02*
X62480957Y-48238410D01*
X62687686Y-48238410D02*
X63248054Y-48238410D01*
X63746866Y-48238410D02*
X64307234Y-48238410D01*
X64513964Y-48238410D02*
X66721990Y-48238410D01*
X32338010Y-48289210D02*
X59901094Y-48289210D01*
X62014311Y-48289210D02*
X62438690Y-48289210D01*
X62738486Y-48289210D02*
X63298854Y-48289210D01*
X63696066Y-48289210D02*
X64256434Y-48289210D01*
X64557614Y-48289210D02*
X66721990Y-48289210D01*
X32338010Y-48340010D02*
X59879321Y-48340010D01*
X62035249Y-48340010D02*
X62419611Y-48340010D01*
X62789286Y-48340010D02*
X63349654Y-48340010D01*
X63645266Y-48340010D02*
X64205634Y-48340010D01*
X64578656Y-48340010D02*
X66721990Y-48340010D01*
X32338010Y-48390810D02*
X59857548Y-48390810D01*
X62056187Y-48390810D02*
X62400533Y-48390810D01*
X62840086Y-48390810D02*
X63400454Y-48390810D01*
X63594466Y-48390810D02*
X64154834Y-48390810D01*
X64599698Y-48390810D02*
X66721990Y-48390810D01*
X32338010Y-48441610D02*
X59841372Y-48441610D01*
X62074905Y-48441610D02*
X62381454Y-48441610D01*
X62890886Y-48441610D02*
X63451254Y-48441610D01*
X63543666Y-48441610D02*
X64104034Y-48441610D01*
X64611923Y-48441610D02*
X66721990Y-48441610D01*
X32338010Y-48492410D02*
X59830574Y-48492410D01*
X62084964Y-48492410D02*
X62367691Y-48492410D01*
X62941686Y-48492410D02*
X64053234Y-48492410D01*
X64623805Y-48492410D02*
X66721990Y-48492410D01*
X32338010Y-48543210D02*
X59819776Y-48543210D01*
X62095022Y-48543210D02*
X62359341Y-48543210D01*
X62992486Y-48543210D02*
X64002434Y-48543210D01*
X64635688Y-48543210D02*
X66721990Y-48543210D01*
X32338010Y-48594010D02*
X59808978Y-48594010D01*
X62105081Y-48594010D02*
X62350990Y-48594010D01*
X63043286Y-48594010D02*
X63951634Y-48594010D01*
X64647570Y-48594010D02*
X66721990Y-48594010D01*
X32338010Y-48644810D02*
X59799508Y-48644810D01*
X62115140Y-48644810D02*
X62342640Y-48644810D01*
X63094086Y-48644810D02*
X63900834Y-48644810D01*
X64653499Y-48644810D02*
X66721990Y-48644810D01*
X32338010Y-48695610D02*
X59798799Y-48695610D01*
X62116442Y-48695610D02*
X62334881Y-48695610D01*
X63144886Y-48695610D02*
X63850034Y-48695610D01*
X64655198Y-48695610D02*
X66721990Y-48695610D01*
X32338010Y-48746410D02*
X59798089Y-48746410D01*
X62115732Y-48746410D02*
X62336580Y-48746410D01*
X63195686Y-48746410D02*
X63799234Y-48746410D01*
X64656896Y-48746410D02*
X66721990Y-48746410D01*
X32338010Y-48797210D02*
X59797380Y-48797210D01*
X62115023Y-48797210D02*
X62338278Y-48797210D01*
X63188066Y-48797210D02*
X63806854Y-48797210D01*
X64658595Y-48797210D02*
X66721990Y-48797210D01*
X32338010Y-48848010D02*
X59796671Y-48848010D01*
X62114314Y-48848010D02*
X62339977Y-48848010D01*
X63137266Y-48848010D02*
X63857654Y-48848010D01*
X64659378Y-48848010D02*
X66721990Y-48848010D01*
X32338010Y-48898810D02*
X59802540Y-48898810D01*
X62113605Y-48898810D02*
X62341676Y-48898810D01*
X63086466Y-48898810D02*
X63908454Y-48898810D01*
X64651028Y-48898810D02*
X66721990Y-48898810D01*
X32338010Y-48949610D02*
X59811864Y-48949610D01*
X62105308Y-48949610D02*
X62349132Y-48949610D01*
X63035666Y-48949610D02*
X63959254Y-48949610D01*
X64642677Y-48949610D02*
X66721990Y-48949610D01*
X32338010Y-49000410D02*
X59821187Y-49000410D01*
X62093767Y-49000410D02*
X62361015Y-49000410D01*
X62984866Y-49000410D02*
X64010054Y-49000410D01*
X64634327Y-49000410D02*
X66721990Y-49000410D01*
X32338010Y-49051210D02*
X59830511Y-49051210D01*
X62082225Y-49051210D02*
X62372897Y-49051210D01*
X62934066Y-49051210D02*
X63494434Y-49051210D01*
X63500486Y-49051210D02*
X64060854Y-49051210D01*
X64625976Y-49051210D02*
X66721990Y-49051210D01*
X32338010Y-49102010D02*
X59842566Y-49102010D01*
X62070683Y-49102010D02*
X62384780Y-49102010D01*
X62883266Y-49102010D02*
X63443634Y-49102010D01*
X63551286Y-49102010D02*
X64111654Y-49102010D01*
X64610604Y-49102010D02*
X66721990Y-49102010D01*
X32338010Y-49152810D02*
X59862679Y-49152810D01*
X62055426Y-49152810D02*
X62398379Y-49152810D01*
X62832466Y-49152810D02*
X63392834Y-49152810D01*
X63602086Y-49152810D02*
X64162454Y-49152810D01*
X64591526Y-49152810D02*
X66721990Y-49152810D01*
X32338010Y-49203610D02*
X59882792Y-49203610D01*
X62032809Y-49203610D02*
X62419420Y-49203610D01*
X62781666Y-49203610D02*
X63342034Y-49203610D01*
X63652886Y-49203610D02*
X64213254Y-49203610D01*
X64572447Y-49203610D02*
X66721990Y-49203610D01*
X32338010Y-49254410D02*
X59902905Y-49254410D01*
X62010192Y-49254410D02*
X62440462Y-49254410D01*
X62730866Y-49254410D02*
X63291234Y-49254410D01*
X63703686Y-49254410D02*
X64264054Y-49254410D01*
X64553368Y-49254410D02*
X66721990Y-49254410D01*
X32338010Y-49305210D02*
X59924170Y-49305210D01*
X61987574Y-49305210D02*
X62495593Y-49305210D01*
X62680066Y-49305210D02*
X63240434Y-49305210D01*
X63754486Y-49305210D02*
X64314854Y-49305210D01*
X64499326Y-49305210D02*
X66721990Y-49305210D01*
X32338010Y-49356010D02*
X59956909Y-49356010D01*
X61961702Y-49356010D02*
X62593175Y-49356010D01*
X62629266Y-49356010D02*
X63189634Y-49356010D01*
X63805286Y-49356010D02*
X64365654Y-49356010D01*
X64401744Y-49356010D02*
X66721990Y-49356010D01*
X32338010Y-49406810D02*
X59989647Y-49406810D01*
X61925866Y-49406810D02*
X63138834Y-49406810D01*
X63856086Y-49406810D02*
X66721990Y-49406810D01*
X32338010Y-49457610D02*
X60022385Y-49457610D01*
X61890031Y-49457610D02*
X63088034Y-49457610D01*
X63906886Y-49457610D02*
X66721990Y-49457610D01*
X32338010Y-49508410D02*
X60060488Y-49508410D01*
X61854195Y-49508410D02*
X63037234Y-49508410D01*
X63957686Y-49508410D02*
X66721990Y-49508410D01*
X32338010Y-49559210D02*
X60109545Y-49559210D01*
X61808054Y-49559210D02*
X62986434Y-49559210D01*
X64008486Y-49559210D02*
X66721990Y-49559210D01*
X32338010Y-49610010D02*
X60158602Y-49610010D01*
X61754709Y-49610010D02*
X62935634Y-49610010D01*
X64059286Y-49610010D02*
X66721990Y-49610010D01*
X32338010Y-49660810D02*
X60210273Y-49660810D01*
X61701363Y-49660810D02*
X62903476Y-49660810D01*
X64091443Y-49660810D02*
X66721990Y-49660810D01*
X32338010Y-49711610D02*
X60283365Y-49711610D01*
X61634624Y-49711610D02*
X62929922Y-49711610D01*
X64064997Y-49711610D02*
X66721990Y-49711610D01*
X32338010Y-49762410D02*
X60356457Y-49762410D01*
X61554576Y-49762410D02*
X62956368Y-49762410D01*
X64038551Y-49762410D02*
X66721990Y-49762410D01*
X32338010Y-49813210D02*
X60453480Y-49813210D01*
X61469276Y-49813210D02*
X62982814Y-49813210D01*
X64012105Y-49813210D02*
X66721990Y-49813210D01*
X32338010Y-49864010D02*
X60569756Y-49864010D01*
X61338305Y-49864010D02*
X63117825Y-49864010D01*
X63889683Y-49864010D02*
X66721990Y-49864010D01*
X32338010Y-49914810D02*
X60773503Y-49914810D01*
X61131213Y-49914810D02*
X63325536Y-49914810D01*
X63685556Y-49914810D02*
X66721990Y-49914810D01*
X32338010Y-49965610D02*
X66721990Y-49965610D01*
X32338010Y-50016410D02*
X66721990Y-50016410D01*
X32338010Y-50067210D02*
X66721990Y-50067210D01*
X32338010Y-50118010D02*
X66721990Y-50118010D01*
X32338010Y-50168810D02*
X60741069Y-50168810D01*
X61174475Y-50168810D02*
X63276787Y-50168810D01*
X63715740Y-50168810D02*
X66721990Y-50168810D01*
X32338010Y-50219610D02*
X60555914Y-50219610D01*
X61360574Y-50219610D02*
X63086840Y-50219610D01*
X63897384Y-50219610D02*
X66721990Y-50219610D01*
X32338010Y-50270410D02*
X60430180Y-50270410D01*
X61481422Y-50270410D02*
X62978848Y-50270410D01*
X64016073Y-50270410D02*
X66721990Y-50270410D01*
X32338010Y-50321210D02*
X60347761Y-50321210D01*
X61568114Y-50321210D02*
X62952402Y-50321210D01*
X64042519Y-50321210D02*
X66721990Y-50321210D01*
X32338010Y-50372010D02*
X60270131Y-50372010D01*
X61643428Y-50372010D02*
X62925956Y-50372010D01*
X64068965Y-50372010D02*
X66721990Y-50372010D01*
X32338010Y-50422810D02*
X60204076Y-50422810D01*
X61712599Y-50422810D02*
X62899510Y-50422810D01*
X64095411Y-50422810D02*
X66721990Y-50422810D01*
X32338010Y-50473610D02*
X60152201Y-50473610D01*
X61763045Y-50473610D02*
X62943254Y-50473610D01*
X64051666Y-50473610D02*
X66721990Y-50473610D01*
X32338010Y-50524410D02*
X60100325Y-50524410D01*
X61813492Y-50524410D02*
X62994054Y-50524410D01*
X64000866Y-50524410D02*
X66721990Y-50524410D01*
X32338010Y-50575210D02*
X60053879Y-50575210D01*
X61862755Y-50575210D02*
X63044854Y-50575210D01*
X63950066Y-50575210D02*
X66721990Y-50575210D01*
X32338010Y-50626010D02*
X60019095Y-50626010D01*
X61896507Y-50626010D02*
X63095654Y-50626010D01*
X63899266Y-50626010D02*
X66721990Y-50626010D01*
X32338010Y-50676810D02*
X59984312Y-50676810D01*
X61930259Y-50676810D02*
X63146454Y-50676810D01*
X63848466Y-50676810D02*
X66721990Y-50676810D01*
X32338010Y-50727610D02*
X59949529Y-50727610D01*
X61964010Y-50727610D02*
X62578539Y-50727610D01*
X62636886Y-50727610D02*
X63197254Y-50727610D01*
X63797666Y-50727610D02*
X64358034Y-50727610D01*
X64416382Y-50727610D02*
X66721990Y-50727610D01*
X32338010Y-50778410D02*
X59922867Y-50778410D01*
X61993373Y-50778410D02*
X62480957Y-50778410D01*
X62687686Y-50778410D02*
X63248054Y-50778410D01*
X63746866Y-50778410D02*
X64307234Y-50778410D01*
X64513964Y-50778410D02*
X66721990Y-50778410D01*
X32338010Y-50829210D02*
X59901094Y-50829210D01*
X62014311Y-50829210D02*
X62438690Y-50829210D01*
X62738486Y-50829210D02*
X63298854Y-50829210D01*
X63696066Y-50829210D02*
X64256434Y-50829210D01*
X64557614Y-50829210D02*
X66721990Y-50829210D01*
X32338010Y-50880010D02*
X59879321Y-50880010D01*
X62035249Y-50880010D02*
X62419611Y-50880010D01*
X62789286Y-50880010D02*
X63349654Y-50880010D01*
X63645266Y-50880010D02*
X64205634Y-50880010D01*
X64578656Y-50880010D02*
X66721990Y-50880010D01*
X32338010Y-50930810D02*
X59857548Y-50930810D01*
X62056187Y-50930810D02*
X62400533Y-50930810D01*
X62840086Y-50930810D02*
X63400454Y-50930810D01*
X63594466Y-50930810D02*
X64154834Y-50930810D01*
X64599698Y-50930810D02*
X66721990Y-50930810D01*
X32338010Y-50981610D02*
X59841372Y-50981610D01*
X62074905Y-50981610D02*
X62381454Y-50981610D01*
X62890886Y-50981610D02*
X63451254Y-50981610D01*
X63543666Y-50981610D02*
X64104034Y-50981610D01*
X64611923Y-50981610D02*
X66721990Y-50981610D01*
X32338010Y-51032410D02*
X59830574Y-51032410D01*
X62084964Y-51032410D02*
X62367691Y-51032410D01*
X62941686Y-51032410D02*
X64053234Y-51032410D01*
X64623805Y-51032410D02*
X66721990Y-51032410D01*
X32338010Y-51083210D02*
X59819776Y-51083210D01*
X62095022Y-51083210D02*
X62359341Y-51083210D01*
X62992486Y-51083210D02*
X64002434Y-51083210D01*
X64635688Y-51083210D02*
X66721990Y-51083210D01*
X32338010Y-51134010D02*
X59808978Y-51134010D01*
X62105081Y-51134010D02*
X62350990Y-51134010D01*
X63043286Y-51134010D02*
X63951634Y-51134010D01*
X64647570Y-51134010D02*
X66721990Y-51134010D01*
X32338010Y-51184810D02*
X59799508Y-51184810D01*
X62115140Y-51184810D02*
X62342640Y-51184810D01*
X63094086Y-51184810D02*
X63900834Y-51184810D01*
X64653499Y-51184810D02*
X66721990Y-51184810D01*
X32338010Y-51235610D02*
X59798799Y-51235610D01*
X62116442Y-51235610D02*
X62334881Y-51235610D01*
X63144886Y-51235610D02*
X63850034Y-51235610D01*
X64655198Y-51235610D02*
X66721990Y-51235610D01*
X32338010Y-51286410D02*
X59798089Y-51286410D01*
X62115732Y-51286410D02*
X62336580Y-51286410D01*
X63195686Y-51286410D02*
X63799234Y-51286410D01*
X64656896Y-51286410D02*
X66721990Y-51286410D01*
X32338010Y-51337210D02*
X59797380Y-51337210D01*
X62115023Y-51337210D02*
X62338278Y-51337210D01*
X63188066Y-51337210D02*
X63806854Y-51337210D01*
X64658595Y-51337210D02*
X66721990Y-51337210D01*
X32338010Y-51388010D02*
X59796671Y-51388010D01*
X62114314Y-51388010D02*
X62339977Y-51388010D01*
X63137266Y-51388010D02*
X63857654Y-51388010D01*
X64659378Y-51388010D02*
X66721990Y-51388010D01*
X32338010Y-51438810D02*
X59802540Y-51438810D01*
X62113605Y-51438810D02*
X62341676Y-51438810D01*
X63086466Y-51438810D02*
X63908454Y-51438810D01*
X64651028Y-51438810D02*
X66721990Y-51438810D01*
X32338010Y-51489610D02*
X59811864Y-51489610D01*
X62105308Y-51489610D02*
X62349132Y-51489610D01*
X63035666Y-51489610D02*
X63959254Y-51489610D01*
X64642677Y-51489610D02*
X66721990Y-51489610D01*
X32338010Y-51540410D02*
X59821187Y-51540410D01*
X62093767Y-51540410D02*
X62361015Y-51540410D01*
X62984866Y-51540410D02*
X64010054Y-51540410D01*
X64634327Y-51540410D02*
X66721990Y-51540410D01*
X32338010Y-51591210D02*
X59830511Y-51591210D01*
X62082225Y-51591210D02*
X62372897Y-51591210D01*
X62934066Y-51591210D02*
X63494434Y-51591210D01*
X63500486Y-51591210D02*
X64060854Y-51591210D01*
X64625976Y-51591210D02*
X66721990Y-51591210D01*
X32338010Y-51642010D02*
X59842566Y-51642010D01*
X62070683Y-51642010D02*
X62384780Y-51642010D01*
X62883266Y-51642010D02*
X63443634Y-51642010D01*
X63551286Y-51642010D02*
X64111654Y-51642010D01*
X64610604Y-51642010D02*
X66721990Y-51642010D01*
X32338010Y-51692810D02*
X59862679Y-51692810D01*
X62055426Y-51692810D02*
X62398379Y-51692810D01*
X62832466Y-51692810D02*
X63392834Y-51692810D01*
X63602086Y-51692810D02*
X64162454Y-51692810D01*
X64591526Y-51692810D02*
X66721990Y-51692810D01*
X32338010Y-51743610D02*
X59882792Y-51743610D01*
X62032809Y-51743610D02*
X62419420Y-51743610D01*
X62781666Y-51743610D02*
X63342034Y-51743610D01*
X63652886Y-51743610D02*
X64213254Y-51743610D01*
X64572447Y-51743610D02*
X66721990Y-51743610D01*
X32338010Y-51794410D02*
X59902905Y-51794410D01*
X62010192Y-51794410D02*
X62440462Y-51794410D01*
X62730866Y-51794410D02*
X63291234Y-51794410D01*
X63703686Y-51794410D02*
X64264054Y-51794410D01*
X64553368Y-51794410D02*
X66721990Y-51794410D01*
X32338010Y-51845210D02*
X59924170Y-51845210D01*
X61987574Y-51845210D02*
X62495593Y-51845210D01*
X62680066Y-51845210D02*
X63240434Y-51845210D01*
X63754486Y-51845210D02*
X64314854Y-51845210D01*
X64499326Y-51845210D02*
X66721990Y-51845210D01*
X32338010Y-51896010D02*
X59956909Y-51896010D01*
X61961702Y-51896010D02*
X62593175Y-51896010D01*
X62629266Y-51896010D02*
X63189634Y-51896010D01*
X63805286Y-51896010D02*
X64365654Y-51896010D01*
X64401744Y-51896010D02*
X66721990Y-51896010D01*
X32338010Y-51946810D02*
X59989647Y-51946810D01*
X61925866Y-51946810D02*
X63138834Y-51946810D01*
X63856086Y-51946810D02*
X66721990Y-51946810D01*
X32338010Y-51997610D02*
X60022385Y-51997610D01*
X61890031Y-51997610D02*
X63088034Y-51997610D01*
X63906886Y-51997610D02*
X66721990Y-51997610D01*
X32338010Y-52048410D02*
X60060488Y-52048410D01*
X61854195Y-52048410D02*
X63037234Y-52048410D01*
X63957686Y-52048410D02*
X66721990Y-52048410D01*
X32338010Y-52099210D02*
X60109545Y-52099210D01*
X61808054Y-52099210D02*
X62986434Y-52099210D01*
X64008486Y-52099210D02*
X66721990Y-52099210D01*
X32338010Y-52150010D02*
X60158602Y-52150010D01*
X61754709Y-52150010D02*
X62935634Y-52150010D01*
X64059286Y-52150010D02*
X66721990Y-52150010D01*
X32338010Y-52200810D02*
X60210273Y-52200810D01*
X61701363Y-52200810D02*
X62903476Y-52200810D01*
X64091443Y-52200810D02*
X66721990Y-52200810D01*
X32338010Y-52251610D02*
X60283365Y-52251610D01*
X61634624Y-52251610D02*
X62929922Y-52251610D01*
X64064997Y-52251610D02*
X66721990Y-52251610D01*
X32338010Y-52302410D02*
X60356457Y-52302410D01*
X61554576Y-52302410D02*
X62956368Y-52302410D01*
X64038551Y-52302410D02*
X66721990Y-52302410D01*
X32338010Y-52353210D02*
X60453480Y-52353210D01*
X61469276Y-52353210D02*
X62982814Y-52353210D01*
X64012105Y-52353210D02*
X66721990Y-52353210D01*
X32338010Y-52404010D02*
X60569756Y-52404010D01*
X61338305Y-52404010D02*
X63117825Y-52404010D01*
X63889683Y-52404010D02*
X66721990Y-52404010D01*
X32338010Y-52454810D02*
X60773503Y-52454810D01*
X61131213Y-52454810D02*
X63325536Y-52454810D01*
X63685556Y-52454810D02*
X66721990Y-52454810D01*
X32338010Y-52505610D02*
X66721990Y-52505610D01*
X32338010Y-52556410D02*
X66721990Y-52556410D01*
X32338010Y-52607210D02*
X66721990Y-52607210D01*
X32338010Y-52658010D02*
X66721990Y-52658010D01*
X32338010Y-52708810D02*
X60741069Y-52708810D01*
X61174475Y-52708810D02*
X63281069Y-52708810D01*
X63714475Y-52708810D02*
X66721990Y-52708810D01*
X32338010Y-52759610D02*
X60555914Y-52759610D01*
X61360574Y-52759610D02*
X63095914Y-52759610D01*
X63900574Y-52759610D02*
X66721990Y-52759610D01*
X32338010Y-52810410D02*
X60430180Y-52810410D01*
X61481422Y-52810410D02*
X62970180Y-52810410D01*
X64021422Y-52810410D02*
X66721990Y-52810410D01*
X32338010Y-52861210D02*
X60347761Y-52861210D01*
X61568114Y-52861210D02*
X62887761Y-52861210D01*
X64108114Y-52861210D02*
X66721990Y-52861210D01*
X32338010Y-52912010D02*
X60270131Y-52912010D01*
X61643428Y-52912010D02*
X62810131Y-52912010D01*
X64183428Y-52912010D02*
X66721990Y-52912010D01*
X32338010Y-52962810D02*
X60204076Y-52962810D01*
X61712598Y-52962810D02*
X62744076Y-52962810D01*
X64252598Y-52962810D02*
X66721990Y-52962810D01*
X32338010Y-53013610D02*
X60152201Y-53013610D01*
X61763045Y-53013610D02*
X62692201Y-53013610D01*
X64303045Y-53013610D02*
X66721990Y-53013610D01*
X32338010Y-53064410D02*
X60100325Y-53064410D01*
X61813492Y-53064410D02*
X62640325Y-53064410D01*
X64353492Y-53064410D02*
X66721990Y-53064410D01*
X32338010Y-53115210D02*
X60053879Y-53115210D01*
X61862755Y-53115210D02*
X62593879Y-53115210D01*
X64402755Y-53115210D02*
X66721990Y-53115210D01*
X32338010Y-53166010D02*
X60019095Y-53166010D01*
X61896507Y-53166010D02*
X62559095Y-53166010D01*
X64436507Y-53166010D02*
X66721990Y-53166010D01*
X32338010Y-53216810D02*
X59984312Y-53216810D01*
X61930259Y-53216810D02*
X62524312Y-53216810D01*
X64470259Y-53216810D02*
X66721990Y-53216810D01*
X32338010Y-53267610D02*
X59949529Y-53267610D01*
X61964010Y-53267610D02*
X62489529Y-53267610D01*
X64504010Y-53267610D02*
X66721990Y-53267610D01*
X32338010Y-53318410D02*
X59922867Y-53318410D01*
X61993373Y-53318410D02*
X62462867Y-53318410D01*
X64533373Y-53318410D02*
X66721990Y-53318410D01*
X32338010Y-53369210D02*
X59901094Y-53369210D01*
X62014311Y-53369210D02*
X62441094Y-53369210D01*
X64554311Y-53369210D02*
X66721990Y-53369210D01*
X32338010Y-53420010D02*
X59879321Y-53420010D01*
X62035249Y-53420010D02*
X62419321Y-53420010D01*
X64575249Y-53420010D02*
X66721990Y-53420010D01*
X32338010Y-53470810D02*
X59857548Y-53470810D01*
X62056187Y-53470810D02*
X62397548Y-53470810D01*
X64596187Y-53470810D02*
X66721990Y-53470810D01*
X32338010Y-53521610D02*
X59841372Y-53521610D01*
X62074905Y-53521610D02*
X62381372Y-53521610D01*
X64614905Y-53521610D02*
X66721990Y-53521610D01*
X32338010Y-53572410D02*
X59830574Y-53572410D01*
X62084964Y-53572410D02*
X62370574Y-53572410D01*
X64624964Y-53572410D02*
X66721990Y-53572410D01*
X32338010Y-53623210D02*
X59819776Y-53623210D01*
X62095022Y-53623210D02*
X62359776Y-53623210D01*
X64635022Y-53623210D02*
X66721990Y-53623210D01*
X32338010Y-53674010D02*
X59808978Y-53674010D01*
X62105081Y-53674010D02*
X62348978Y-53674010D01*
X64645081Y-53674010D02*
X66721990Y-53674010D01*
X32338010Y-53724810D02*
X59799508Y-53724810D01*
X62115140Y-53724810D02*
X62339508Y-53724810D01*
X64655140Y-53724810D02*
X66721990Y-53724810D01*
X32338010Y-53775610D02*
X59798799Y-53775610D01*
X62116442Y-53775610D02*
X62338799Y-53775610D01*
X64656442Y-53775610D02*
X66721990Y-53775610D01*
X32338010Y-53826410D02*
X59798089Y-53826410D01*
X62115732Y-53826410D02*
X62338089Y-53826410D01*
X64655733Y-53826410D02*
X66721990Y-53826410D01*
X32338010Y-53877210D02*
X59797380Y-53877210D01*
X62115023Y-53877210D02*
X62337380Y-53877210D01*
X64655023Y-53877210D02*
X66721990Y-53877210D01*
X32338010Y-53928010D02*
X59796671Y-53928010D01*
X62114314Y-53928010D02*
X62336671Y-53928010D01*
X64654314Y-53928010D02*
X66721990Y-53928010D01*
X32338010Y-53978810D02*
X59802540Y-53978810D01*
X62113605Y-53978810D02*
X62342540Y-53978810D01*
X64653605Y-53978810D02*
X66721990Y-53978810D01*
X32338010Y-54029610D02*
X59811864Y-54029610D01*
X62105308Y-54029610D02*
X62351864Y-54029610D01*
X64645308Y-54029610D02*
X66721990Y-54029610D01*
X32338010Y-54080410D02*
X59821187Y-54080410D01*
X62093767Y-54080410D02*
X62361187Y-54080410D01*
X64633767Y-54080410D02*
X66721990Y-54080410D01*
X32338010Y-54131210D02*
X59830511Y-54131210D01*
X62082225Y-54131210D02*
X62370511Y-54131210D01*
X64622225Y-54131210D02*
X66721990Y-54131210D01*
X32338010Y-54182010D02*
X59842566Y-54182010D01*
X62070683Y-54182010D02*
X62382566Y-54182010D01*
X64610683Y-54182010D02*
X66721990Y-54182010D01*
X32338010Y-54232810D02*
X59862679Y-54232810D01*
X62055426Y-54232810D02*
X62402679Y-54232810D01*
X64595426Y-54232810D02*
X66721990Y-54232810D01*
X32338010Y-54283610D02*
X59882792Y-54283610D01*
X62032809Y-54283610D02*
X62422792Y-54283610D01*
X64572809Y-54283610D02*
X66721990Y-54283610D01*
X32338010Y-54334410D02*
X59902905Y-54334410D01*
X62010192Y-54334410D02*
X62442905Y-54334410D01*
X64550192Y-54334410D02*
X66721990Y-54334410D01*
X32338010Y-54385210D02*
X59924170Y-54385210D01*
X61987574Y-54385210D02*
X62464170Y-54385210D01*
X64527574Y-54385210D02*
X66721990Y-54385210D01*
X32338010Y-54436010D02*
X59956909Y-54436010D01*
X61961702Y-54436010D02*
X62496909Y-54436010D01*
X64501702Y-54436010D02*
X66721990Y-54436010D01*
X32338010Y-54486810D02*
X59989647Y-54486810D01*
X61925866Y-54486810D02*
X62529647Y-54486810D01*
X64465866Y-54486810D02*
X66721990Y-54486810D01*
X32338010Y-54537610D02*
X60022385Y-54537610D01*
X61890031Y-54537610D02*
X62562385Y-54537610D01*
X64430031Y-54537610D02*
X66721990Y-54537610D01*
X32338010Y-54588410D02*
X60060488Y-54588410D01*
X61854195Y-54588410D02*
X62600488Y-54588410D01*
X64394195Y-54588410D02*
X66721990Y-54588410D01*
X32338010Y-54639210D02*
X60109545Y-54639210D01*
X61808055Y-54639210D02*
X62649545Y-54639210D01*
X64348055Y-54639210D02*
X66721990Y-54639210D01*
X32338010Y-54690010D02*
X60158602Y-54690010D01*
X61754709Y-54690010D02*
X62698602Y-54690010D01*
X64294709Y-54690010D02*
X66721990Y-54690010D01*
X32338010Y-54740810D02*
X60210273Y-54740810D01*
X61701364Y-54740810D02*
X62750273Y-54740810D01*
X64241364Y-54740810D02*
X66721990Y-54740810D01*
X32338010Y-54791610D02*
X60283365Y-54791610D01*
X61634624Y-54791610D02*
X62823365Y-54791610D01*
X64174624Y-54791610D02*
X66721990Y-54791610D01*
X32338010Y-54842410D02*
X60356457Y-54842410D01*
X61554576Y-54842410D02*
X62896457Y-54842410D01*
X64094576Y-54842410D02*
X66721990Y-54842410D01*
X32338010Y-54893210D02*
X60453480Y-54893210D01*
X61469276Y-54893210D02*
X62993480Y-54893210D01*
X64009276Y-54893210D02*
X66721990Y-54893210D01*
X32338010Y-54944010D02*
X60569756Y-54944010D01*
X61338305Y-54944010D02*
X63109756Y-54944010D01*
X63878305Y-54944010D02*
X66721990Y-54944010D01*
X32338010Y-54994810D02*
X60773503Y-54994810D01*
X61131213Y-54994810D02*
X63313503Y-54994810D01*
X63671213Y-54994810D02*
X66721990Y-54994810D01*
X32338010Y-55045610D02*
X66721990Y-55045610D01*
X32338010Y-55096410D02*
X66721990Y-55096410D01*
X32338010Y-55147210D02*
X66721990Y-55147210D01*
X32338010Y-55198010D02*
X66721990Y-55198010D01*
X32338010Y-55248810D02*
X66721990Y-55248810D01*
X32338010Y-55299610D02*
X66721990Y-55299610D01*
X32338010Y-55350410D02*
X66721990Y-55350410D01*
X32338010Y-55401210D02*
X66721990Y-55401210D01*
X32338010Y-55452010D02*
X66721990Y-55452010D01*
X32338010Y-55502810D02*
X66721990Y-55502810D01*
X32338010Y-55553610D02*
X66721990Y-55553610D01*
X32338010Y-55604410D02*
X66721990Y-55604410D01*
X32338010Y-55655210D02*
X66721990Y-55655210D01*
X32338010Y-55706010D02*
X66721990Y-55706010D01*
X32338010Y-55756810D02*
X66721990Y-55756810D01*
X32338010Y-55807610D02*
X66721990Y-55807610D01*
X32338010Y-55858410D02*
X66721990Y-55858410D01*
X32338010Y-55909210D02*
X66721990Y-55909210D01*
X32338010Y-55960010D02*
X66721990Y-55960010D01*
X32338010Y-56010810D02*
X66721990Y-56010810D01*
X32338010Y-56061610D02*
X66721990Y-56061610D01*
X32338010Y-56112410D02*
X66721990Y-56112410D01*
X32338010Y-56163210D02*
X66721990Y-56163210D01*
X32338010Y-56214010D02*
X66721990Y-56214010D01*
X32338010Y-56264810D02*
X66721990Y-56264810D01*
X32338010Y-56315610D02*
X66721990Y-56315610D01*
X32338010Y-56366410D02*
X66721990Y-56366410D01*
X32338010Y-56417210D02*
X66721990Y-56417210D01*
X32338010Y-56468010D02*
X66721990Y-56468010D01*
X32338010Y-56518810D02*
X66721990Y-56518810D01*
X32338010Y-56569610D02*
X66721990Y-56569610D01*
X32338010Y-56620410D02*
X66721990Y-56620410D01*
X32338010Y-56671210D02*
X66721990Y-56671210D01*
X32338010Y-56722010D02*
X66721990Y-56722010D01*
X32338010Y-56772810D02*
X66721990Y-56772810D01*
X32338010Y-56823610D02*
X66721990Y-56823610D01*
X32338010Y-56874410D02*
X66721990Y-56874410D01*
X32338010Y-56925210D02*
X66721990Y-56925210D01*
X32338010Y-56976010D02*
X66721990Y-56976010D01*
X32338010Y-57026810D02*
X66721990Y-57026810D01*
X32338010Y-57077610D02*
X66721990Y-57077610D01*
X32338010Y-57128410D02*
X66721990Y-57128410D01*
X32338010Y-57179210D02*
X66721990Y-57179210D01*
X32338010Y-57230010D02*
X66721990Y-57230010D01*
X32338010Y-57280810D02*
X66721990Y-57280810D01*
X32338010Y-57331610D02*
X66721990Y-57331610D01*
X32338010Y-57382410D02*
X66721990Y-57382410D01*
X32338010Y-57433210D02*
X66721990Y-57433210D01*
X32338010Y-57484010D02*
X66721990Y-57484010D01*
X32338010Y-57534810D02*
X66721990Y-57534810D01*
X32338010Y-57585610D02*
X66721990Y-57585610D01*
X32338010Y-57636410D02*
X66721990Y-57636410D01*
X32338010Y-57687210D02*
X66721990Y-57687210D01*
X32338010Y-57738010D02*
X66721990Y-57738010D01*
X32338010Y-57788810D02*
X66721990Y-57788810D01*
X32338010Y-57839610D02*
X66721990Y-57839610D01*
X32338010Y-57890410D02*
X66721990Y-57890410D01*
X32338010Y-57941210D02*
X66721990Y-57941210D01*
X32338010Y-57992010D02*
X66721990Y-57992010D01*
X32338010Y-58042810D02*
X66721990Y-58042810D01*
X32338010Y-58093610D02*
X66721990Y-58093610D01*
X32338010Y-58144410D02*
X66721990Y-58144410D01*
X32338010Y-58195210D02*
X66721990Y-58195210D01*
X32338010Y-58246010D02*
X66721990Y-58246010D01*
X32338010Y-58296810D02*
X66721990Y-58296810D01*
X32338010Y-58347610D02*
X66721990Y-58347610D01*
X32338010Y-58398410D02*
X66721990Y-58398410D01*
X32338010Y-58449210D02*
X66721990Y-58449210D01*
X32338010Y-58500010D02*
X66721990Y-58500010D01*
X32338010Y-58550810D02*
X66721990Y-58550810D01*
X32338010Y-58601610D02*
X66721990Y-58601610D01*
X32338010Y-58652410D02*
X66721990Y-58652410D01*
X32338010Y-58703210D02*
X66721990Y-58703210D01*
X32338010Y-58754010D02*
X66721990Y-58754010D01*
X32338010Y-58804810D02*
X66721990Y-58804810D01*
X32338010Y-58855610D02*
X66721990Y-58855610D01*
X32338010Y-58906410D02*
X66721990Y-58906410D01*
X32338010Y-58957210D02*
X66721990Y-58957210D01*
X32338010Y-59008010D02*
X66721990Y-59008010D01*
X32338010Y-59058810D02*
X66721990Y-59058810D01*
X32338010Y-59109610D02*
X66721990Y-59109610D01*
X32338010Y-59160410D02*
X66721990Y-59160410D01*
X32338010Y-59211210D02*
X66721990Y-59211210D01*
X32338010Y-59262010D02*
X66721990Y-59262010D01*
X32338010Y-59312810D02*
X66721990Y-59312810D01*
X32338010Y-59363610D02*
X66721990Y-59363610D01*
X32338010Y-59414410D02*
X66721990Y-59414410D01*
X32338010Y-59465210D02*
X66721990Y-59465210D01*
X32338010Y-59516010D02*
X66721990Y-59516010D01*
X32338010Y-59566810D02*
X66721990Y-59566810D01*
X32338010Y-59617610D02*
X66721990Y-59617610D01*
X32338010Y-59668410D02*
X66721990Y-59668410D01*
X32338010Y-59719210D02*
X66721990Y-59719210D01*
X32338010Y-59770010D02*
X66721990Y-59770010D01*
X32338010Y-59820810D02*
X35237657Y-59820810D01*
X35901447Y-59820810D02*
X55557657Y-59820810D01*
X56221447Y-59820810D02*
X66721990Y-59820810D01*
X32338010Y-59871610D02*
X34971354Y-59871610D01*
X36148926Y-59871610D02*
X55291354Y-59871610D01*
X56468926Y-59871610D02*
X66721990Y-59871610D01*
X32338010Y-59922410D02*
X34705050Y-59922410D01*
X36396405Y-59922410D02*
X55025050Y-59922410D01*
X56716405Y-59922410D02*
X66721990Y-59922410D01*
X32338010Y-59973210D02*
X34573767Y-59973210D01*
X36553086Y-59973210D02*
X54893767Y-59973210D01*
X56873086Y-59973210D02*
X66721990Y-59973210D01*
X32338010Y-60024010D02*
X34448033Y-60024010D01*
X36673935Y-60024010D02*
X54768033Y-60024010D01*
X56993935Y-60024010D02*
X66721990Y-60024010D01*
X32338010Y-60074810D02*
X34322298Y-60074810D01*
X36794783Y-60074810D02*
X54642298Y-60074810D01*
X57114783Y-60074810D02*
X66721990Y-60074810D01*
X32338010Y-60125610D02*
X34196564Y-60125610D01*
X36915631Y-60125610D02*
X54516564Y-60125610D01*
X57235631Y-60125610D02*
X66721990Y-60125610D01*
X32338010Y-60176410D02*
X34097239Y-60176410D01*
X37029491Y-60176410D02*
X54417239Y-60176410D01*
X57349491Y-60176410D02*
X66721990Y-60176410D01*
X32338010Y-60227210D02*
X34019608Y-60227210D01*
X37104805Y-60227210D02*
X54339608Y-60227210D01*
X57424805Y-60227210D02*
X66721990Y-60227210D01*
X32338010Y-60278010D02*
X33941978Y-60278010D01*
X37180119Y-60278010D02*
X54261978Y-60278010D01*
X57500119Y-60278010D02*
X66721990Y-60278010D01*
X32338010Y-60328810D02*
X33864347Y-60328810D01*
X37255433Y-60328810D02*
X54184347Y-60328810D01*
X57575433Y-60328810D02*
X66721990Y-60328810D01*
X32338010Y-60379610D02*
X33786716Y-60379610D01*
X37330747Y-60379610D02*
X54106716Y-60379610D01*
X57650747Y-60379610D02*
X66721990Y-60379610D01*
X32338010Y-60430410D02*
X33709086Y-60430410D01*
X37406061Y-60430410D02*
X54029086Y-60430410D01*
X57726061Y-60430410D02*
X66721990Y-60430410D01*
X32338010Y-60481210D02*
X33634048Y-60481210D01*
X37481375Y-60481210D02*
X53954048Y-60481210D01*
X57801375Y-60481210D02*
X66721990Y-60481210D01*
X32338010Y-60532010D02*
X33582173Y-60532010D01*
X37542560Y-60532010D02*
X53902173Y-60532010D01*
X57862560Y-60532010D02*
X66721990Y-60532010D01*
X32338010Y-60582810D02*
X33530298Y-60582810D01*
X37593006Y-60582810D02*
X53850298Y-60582810D01*
X57913006Y-60582810D02*
X66721990Y-60582810D01*
X32338010Y-60633610D02*
X33478423Y-60633610D01*
X37643453Y-60633610D02*
X53798423Y-60633610D01*
X57963453Y-60633610D02*
X66721990Y-60633610D01*
X32338010Y-60684410D02*
X33426548Y-60684410D01*
X37693899Y-60684410D02*
X53746548Y-60684410D01*
X58013899Y-60684410D02*
X66721990Y-60684410D01*
X32338010Y-60735210D02*
X33374672Y-60735210D01*
X37744346Y-60735210D02*
X53694672Y-60735210D01*
X58064346Y-60735210D02*
X66721990Y-60735210D01*
X32338010Y-60786010D02*
X33322797Y-60786010D01*
X37794792Y-60786010D02*
X53642797Y-60786010D01*
X58114792Y-60786010D02*
X66721990Y-60786010D01*
X32338010Y-60836810D02*
X33270922Y-60836810D01*
X37845239Y-60836810D02*
X53590922Y-60836810D01*
X58165239Y-60836810D02*
X66721990Y-60836810D01*
X32338010Y-60887610D02*
X33219047Y-60887610D01*
X37895685Y-60887610D02*
X53539047Y-60887610D01*
X58215685Y-60887610D02*
X66721990Y-60887610D01*
X32338010Y-60938410D02*
X33181890Y-60938410D01*
X37942592Y-60938410D02*
X53501890Y-60938410D01*
X58262592Y-60938410D02*
X66721990Y-60938410D01*
X32338010Y-60989210D02*
X33147107Y-60989210D01*
X37976344Y-60989210D02*
X53467107Y-60989210D01*
X58296344Y-60989210D02*
X66721990Y-60989210D01*
X32338010Y-61040010D02*
X33112323Y-61040010D01*
X38010095Y-61040010D02*
X53432323Y-61040010D01*
X58330095Y-61040010D02*
X66721990Y-61040010D01*
X32338010Y-61090810D02*
X33077540Y-61090810D01*
X38043847Y-61090810D02*
X53397540Y-61090810D01*
X58363847Y-61090810D02*
X66721990Y-61090810D01*
X32338010Y-61141610D02*
X33042756Y-61141610D01*
X38077598Y-61141610D02*
X53362756Y-61141610D01*
X58397598Y-61141610D02*
X66721990Y-61141610D01*
X32338010Y-61192410D02*
X33007973Y-61192410D01*
X38111350Y-61192410D02*
X53327973Y-61192410D01*
X58431350Y-61192410D02*
X66721990Y-61192410D01*
X32338010Y-61243210D02*
X32973189Y-61243210D01*
X38145101Y-61243210D02*
X53293189Y-61243210D01*
X58465101Y-61243210D02*
X66721990Y-61243210D01*
X32338010Y-61294010D02*
X32938406Y-61294010D01*
X38178853Y-61294010D02*
X53258406Y-61294010D01*
X58498853Y-61294010D02*
X66721990Y-61294010D01*
X32338010Y-61344810D02*
X32903622Y-61344810D01*
X38212604Y-61344810D02*
X53223622Y-61344810D01*
X58532604Y-61344810D02*
X66721990Y-61344810D01*
X32338010Y-61395610D02*
X32870716Y-61395610D01*
X38246356Y-61395610D02*
X53190716Y-61395610D01*
X58566356Y-61395610D02*
X66721990Y-61395610D01*
X32338010Y-61446410D02*
X32848943Y-61446410D01*
X38274941Y-61446410D02*
X53168943Y-61446410D01*
X58594941Y-61446410D02*
X66721990Y-61446410D01*
X32338010Y-61497210D02*
X32827170Y-61497210D01*
X38295879Y-61497210D02*
X53147170Y-61497210D01*
X58615879Y-61497210D02*
X66721990Y-61497210D01*
X32338010Y-61548010D02*
X32805397Y-61548010D01*
X38316818Y-61548010D02*
X53125397Y-61548010D01*
X58636818Y-61548010D02*
X66721990Y-61548010D01*
X32338010Y-61598810D02*
X32783625Y-61598810D01*
X38337756Y-61598810D02*
X53103625Y-61598810D01*
X58657756Y-61598810D02*
X66721990Y-61598810D01*
X32338010Y-61649610D02*
X32761852Y-61649610D01*
X38358694Y-61649610D02*
X53081852Y-61649610D01*
X58678694Y-61649610D02*
X66721990Y-61649610D01*
X32338010Y-61700410D02*
X32740079Y-61700410D01*
X38379632Y-61700410D02*
X53060079Y-61700410D01*
X58699632Y-61700410D02*
X66721990Y-61700410D01*
X32338010Y-61751210D02*
X32718306Y-61751210D01*
X38400571Y-61751210D02*
X53038306Y-61751210D01*
X58720571Y-61751210D02*
X66721990Y-61751210D01*
X32338010Y-61802010D02*
X32696533Y-61802010D01*
X38421509Y-61802010D02*
X53016533Y-61802010D01*
X58741509Y-61802010D02*
X66721990Y-61802010D01*
X32338010Y-61852810D02*
X32674760Y-61852810D01*
X38442447Y-61852810D02*
X52994760Y-61852810D01*
X58762447Y-61852810D02*
X66721990Y-61852810D01*
X32338010Y-61903610D02*
X32652988Y-61903610D01*
X38463385Y-61903610D02*
X52972988Y-61903610D01*
X58783385Y-61903610D02*
X66721990Y-61903610D01*
X32338010Y-61954410D02*
X32634728Y-61954410D01*
X38484323Y-61954410D02*
X52954728Y-61954410D01*
X58804323Y-61954410D02*
X66721990Y-61954410D01*
X32338010Y-62005210D02*
X32623931Y-62005210D01*
X38499655Y-62005210D02*
X52943931Y-62005210D01*
X58819655Y-62005210D02*
X66721990Y-62005210D01*
X32338010Y-62056010D02*
X32613133Y-62056010D01*
X38509714Y-62056010D02*
X52933133Y-62056010D01*
X58829714Y-62056010D02*
X66721990Y-62056010D01*
X32338010Y-62106810D02*
X32602335Y-62106810D01*
X38519773Y-62106810D02*
X52922335Y-62106810D01*
X58839773Y-62106810D02*
X66721990Y-62106810D01*
X32338010Y-62157610D02*
X32591537Y-62157610D01*
X38529831Y-62157610D02*
X52911537Y-62157610D01*
X58849831Y-62157610D02*
X66721990Y-62157610D01*
X32338010Y-62208410D02*
X32580739Y-62208410D01*
X38539890Y-62208410D02*
X52900739Y-62208410D01*
X58859890Y-62208410D02*
X66721990Y-62208410D01*
X32338010Y-62259210D02*
X32569941Y-62259210D01*
X38549949Y-62259210D02*
X52889941Y-62259210D01*
X58869949Y-62259210D02*
X66721990Y-62259210D01*
X32338010Y-62310010D02*
X32559143Y-62310010D01*
X38560008Y-62310010D02*
X52879143Y-62310010D01*
X58880008Y-62310010D02*
X66721990Y-62310010D01*
X32338010Y-62360810D02*
X32548345Y-62360810D01*
X38570066Y-62360810D02*
X52868345Y-62360810D01*
X58890066Y-62360810D02*
X66721990Y-62360810D01*
X32338010Y-62411610D02*
X32537547Y-62411610D01*
X38580125Y-62411610D02*
X52857547Y-62411610D01*
X58900125Y-62411610D02*
X66721990Y-62411610D01*
X32338010Y-62462410D02*
X32526749Y-62462410D01*
X38590184Y-62462410D02*
X52846749Y-62462410D01*
X58910184Y-62462410D02*
X66721990Y-62462410D01*
X32338010Y-62513210D02*
X32515951Y-62513210D01*
X38600243Y-62513210D02*
X52835951Y-62513210D01*
X58920243Y-62513210D02*
X66721990Y-62513210D01*
X32338010Y-62564010D02*
X32513235Y-62564010D01*
X38610301Y-62564010D02*
X52833235Y-62564010D01*
X58930301Y-62564010D02*
X66721990Y-62564010D01*
X32338010Y-62614810D02*
X32512526Y-62614810D01*
X38609987Y-62614810D02*
X52832526Y-62614810D01*
X58929987Y-62614810D02*
X66721990Y-62614810D01*
X32338010Y-62665610D02*
X32511816Y-62665610D01*
X38609278Y-62665610D02*
X52831816Y-62665610D01*
X58929278Y-62665610D02*
X66721990Y-62665610D01*
X32338010Y-62716410D02*
X32511107Y-62716410D01*
X38608568Y-62716410D02*
X52831107Y-62716410D01*
X58928568Y-62716410D02*
X66721990Y-62716410D01*
X32338010Y-62767210D02*
X32510398Y-62767210D01*
X38607859Y-62767210D02*
X52830398Y-62767210D01*
X58927859Y-62767210D02*
X66721990Y-62767210D01*
X32338010Y-62818010D02*
X32509688Y-62818010D01*
X38607150Y-62818010D02*
X52829688Y-62818010D01*
X58927150Y-62818010D02*
X66721990Y-62818010D01*
X32338010Y-62868810D02*
X32508979Y-62868810D01*
X38606440Y-62868810D02*
X52828979Y-62868810D01*
X58926440Y-62868810D02*
X66721990Y-62868810D01*
X32338010Y-62919610D02*
X32508270Y-62919610D01*
X38605731Y-62919610D02*
X52828270Y-62919610D01*
X58925731Y-62919610D02*
X66721990Y-62919610D01*
X32338010Y-62970410D02*
X32507560Y-62970410D01*
X38605021Y-62970410D02*
X52827560Y-62970410D01*
X58925021Y-62970410D02*
X66721990Y-62970410D01*
X32338010Y-63021210D02*
X32506851Y-63021210D01*
X38604312Y-63021210D02*
X52826851Y-63021210D01*
X58924312Y-63021210D02*
X66721990Y-63021210D01*
X32338010Y-63072010D02*
X32506142Y-63072010D01*
X38603603Y-63072010D02*
X52826142Y-63072010D01*
X58923603Y-63072010D02*
X66721990Y-63072010D01*
X32338010Y-63122810D02*
X32505690Y-63122810D01*
X38602893Y-63122810D02*
X52825690Y-63122810D01*
X58922893Y-63122810D02*
X66721990Y-63122810D01*
X32338010Y-63173610D02*
X32515014Y-63173610D01*
X38602184Y-63173610D02*
X52835014Y-63173610D01*
X58922184Y-63173610D02*
X66721990Y-63173610D01*
X32338010Y-63224410D02*
X32524338Y-63224410D01*
X38601474Y-63224410D02*
X52844338Y-63224410D01*
X58921474Y-63224410D02*
X66721990Y-63224410D01*
X32338010Y-63275210D02*
X32533661Y-63275210D01*
X38595216Y-63275210D02*
X52853661Y-63275210D01*
X58915216Y-63275210D02*
X66721990Y-63275210D01*
X32338010Y-63326010D02*
X32542985Y-63326010D01*
X38583674Y-63326010D02*
X52862985Y-63326010D01*
X58903674Y-63326010D02*
X66721990Y-63326010D01*
X32338010Y-63376810D02*
X32552308Y-63376810D01*
X38572133Y-63376810D02*
X52872308Y-63376810D01*
X58892133Y-63376810D02*
X66721990Y-63376810D01*
X32338010Y-63427610D02*
X32561632Y-63427610D01*
X38560591Y-63427610D02*
X52881632Y-63427610D01*
X58880591Y-63427610D02*
X66721990Y-63427610D01*
X32338010Y-63478410D02*
X32570956Y-63478410D01*
X38549050Y-63478410D02*
X52890956Y-63478410D01*
X58869050Y-63478410D02*
X66721990Y-63478410D01*
X32338010Y-63529210D02*
X32580279Y-63529210D01*
X38537508Y-63529210D02*
X52900279Y-63529210D01*
X58857508Y-63529210D02*
X66721990Y-63529210D01*
X32338010Y-63580010D02*
X32589603Y-63580010D01*
X38525967Y-63580010D02*
X52909603Y-63580010D01*
X58845967Y-63580010D02*
X66721990Y-63580010D01*
X32338010Y-63630810D02*
X32598927Y-63630810D01*
X38514426Y-63630810D02*
X52918927Y-63630810D01*
X58834426Y-63630810D02*
X66721990Y-63630810D01*
X32338010Y-63681610D02*
X32608250Y-63681610D01*
X38502884Y-63681610D02*
X52928250Y-63681610D01*
X58822884Y-63681610D02*
X66721990Y-63681610D01*
X32338010Y-63732410D02*
X32622352Y-63732410D01*
X38491343Y-63732410D02*
X52942352Y-63732410D01*
X58811343Y-63732410D02*
X66721990Y-63732410D01*
X32338010Y-63783210D02*
X32642466Y-63783210D01*
X38479801Y-63783210D02*
X52962466Y-63783210D01*
X58799801Y-63783210D02*
X66721990Y-63783210D01*
X32338010Y-63834010D02*
X32662579Y-63834010D01*
X38467943Y-63834010D02*
X52982579Y-63834010D01*
X58787943Y-63834010D02*
X66721990Y-63834010D01*
X32338010Y-63884810D02*
X32682692Y-63884810D01*
X38445326Y-63884810D02*
X53002692Y-63884810D01*
X58765326Y-63884810D02*
X66721990Y-63884810D01*
X32338010Y-63935610D02*
X32702805Y-63935610D01*
X38422708Y-63935610D02*
X53022805Y-63935610D01*
X58742708Y-63935610D02*
X66721990Y-63935610D01*
X32338010Y-63986410D02*
X32722918Y-63986410D01*
X38400091Y-63986410D02*
X53042918Y-63986410D01*
X58720091Y-63986410D02*
X66721990Y-63986410D01*
X32338010Y-64037210D02*
X32743031Y-64037210D01*
X38377473Y-64037210D02*
X53063031Y-64037210D01*
X58697473Y-64037210D02*
X66721990Y-64037210D01*
X32338010Y-64088010D02*
X32763144Y-64088010D01*
X38354855Y-64088010D02*
X53083144Y-64088010D01*
X58674855Y-64088010D02*
X66721990Y-64088010D01*
X32338010Y-64138810D02*
X32783257Y-64138810D01*
X38332238Y-64138810D02*
X53103257Y-64138810D01*
X58652238Y-64138810D02*
X66721990Y-64138810D01*
X32338010Y-64189610D02*
X32803370Y-64189610D01*
X38309620Y-64189610D02*
X53123370Y-64189610D01*
X58629620Y-64189610D02*
X66721990Y-64189610D01*
X32338010Y-64240410D02*
X32823484Y-64240410D01*
X38287002Y-64240410D02*
X53143484Y-64240410D01*
X58607002Y-64240410D02*
X66721990Y-64240410D01*
X32338010Y-64291210D02*
X32849827Y-64291210D01*
X38264385Y-64291210D02*
X53169827Y-64291210D01*
X58584385Y-64291210D02*
X66721990Y-64291210D01*
X32338010Y-64342010D02*
X32882565Y-64342010D01*
X38241767Y-64342010D02*
X53202565Y-64342010D01*
X58561767Y-64342010D02*
X66721990Y-64342010D01*
X32338010Y-64392810D02*
X32915303Y-64392810D01*
X38215577Y-64392810D02*
X53235303Y-64392810D01*
X58535577Y-64392810D02*
X66721990Y-64392810D01*
X32338010Y-64443610D02*
X32948042Y-64443610D01*
X38179742Y-64443610D02*
X53268042Y-64443610D01*
X58499742Y-64443610D02*
X66721990Y-64443610D01*
X32338010Y-64494410D02*
X32980780Y-64494410D01*
X38143906Y-64494410D02*
X53300780Y-64494410D01*
X58463906Y-64494410D02*
X66721990Y-64494410D01*
X32338010Y-64545210D02*
X33013518Y-64545210D01*
X38108071Y-64545210D02*
X53333518Y-64545210D01*
X58428071Y-64545210D02*
X66721990Y-64545210D01*
X32338010Y-64596010D02*
X33046257Y-64596010D01*
X38072235Y-64596010D02*
X53366257Y-64596010D01*
X58392235Y-64596010D02*
X66721990Y-64596010D01*
X32338010Y-64646810D02*
X33078995Y-64646810D01*
X38036400Y-64646810D02*
X53398995Y-64646810D01*
X58356400Y-64646810D02*
X66721990Y-64646810D01*
X32338010Y-64697610D02*
X33111733Y-64697610D01*
X38000564Y-64697610D02*
X53431733Y-64697610D01*
X58320564Y-64697610D02*
X66721990Y-64697610D01*
X32338010Y-64748410D02*
X33144472Y-64748410D01*
X37964729Y-64748410D02*
X53464472Y-64748410D01*
X58284729Y-64748410D02*
X66721990Y-64748410D01*
X32338010Y-64799210D02*
X33186913Y-64799210D01*
X37928893Y-64799210D02*
X53506913Y-64799210D01*
X58248893Y-64799210D02*
X66721990Y-64799210D01*
X32338010Y-64850010D02*
X33235970Y-64850010D01*
X37893058Y-64850010D02*
X53555970Y-64850010D01*
X58213058Y-64850010D02*
X66721990Y-64850010D01*
X32338010Y-64900810D02*
X33285027Y-64900810D01*
X37845889Y-64900810D02*
X53605027Y-64900810D01*
X58165889Y-64900810D02*
X66721990Y-64900810D01*
X32338010Y-64951610D02*
X33334084Y-64951610D01*
X37792544Y-64951610D02*
X53654084Y-64951610D01*
X58112544Y-64951610D02*
X66721990Y-64951610D01*
X32338010Y-65002410D02*
X33383141Y-65002410D01*
X37739198Y-65002410D02*
X53703141Y-65002410D01*
X58059198Y-65002410D02*
X66721990Y-65002410D01*
X32338010Y-65053210D02*
X33432198Y-65053210D01*
X37685853Y-65053210D02*
X53752198Y-65053210D01*
X58005853Y-65053210D02*
X66721990Y-65053210D01*
X32338010Y-65104010D02*
X33481255Y-65104010D01*
X37632508Y-65104010D02*
X53801255Y-65104010D01*
X57952508Y-65104010D02*
X66721990Y-65104010D01*
X32338010Y-65154810D02*
X33530312Y-65154810D01*
X37579163Y-65154810D02*
X53850312Y-65154810D01*
X57899163Y-65154810D02*
X66721990Y-65154810D01*
X32338010Y-65205610D02*
X33582335Y-65205610D01*
X37525817Y-65205610D02*
X53902335Y-65205610D01*
X57845817Y-65205610D02*
X66721990Y-65205610D01*
X32338010Y-65256410D02*
X33655426Y-65256410D01*
X37472472Y-65256410D02*
X53975426Y-65256410D01*
X57792472Y-65256410D02*
X66721990Y-65256410D01*
X32338010Y-65307210D02*
X33728518Y-65307210D01*
X37405081Y-65307210D02*
X54048518Y-65307210D01*
X57725081Y-65307210D02*
X66721990Y-65307210D01*
X32338010Y-65358010D02*
X33801609Y-65358010D01*
X37325033Y-65358010D02*
X54121609Y-65358010D01*
X57645033Y-65358010D02*
X66721990Y-65358010D01*
X32338010Y-65408810D02*
X33874701Y-65408810D01*
X37244985Y-65408810D02*
X54194701Y-65408810D01*
X57564985Y-65408810D02*
X66721990Y-65408810D01*
X32338010Y-65459610D02*
X33947792Y-65459610D01*
X37164937Y-65459610D02*
X54267792Y-65459610D01*
X57484937Y-65459610D02*
X66721990Y-65459610D01*
X32338010Y-65510410D02*
X34020884Y-65510410D01*
X37084889Y-65510410D02*
X54340884Y-65510410D01*
X57404889Y-65510410D02*
X66721990Y-65510410D01*
X32338010Y-65561210D02*
X34111353Y-65561210D01*
X37004841Y-65561210D02*
X54431353Y-65561210D01*
X57324841Y-65561210D02*
X66721990Y-65561210D01*
X32338010Y-65612010D02*
X34227630Y-65612010D01*
X36913800Y-65612010D02*
X54547630Y-65612010D01*
X57233800Y-65612010D02*
X66721990Y-65612010D01*
X32338010Y-65662810D02*
X34343906Y-65662810D01*
X36782830Y-65662810D02*
X54663906Y-65662810D01*
X57102830Y-65662810D02*
X66721990Y-65662810D01*
X32338010Y-65713610D02*
X34460182Y-65713610D01*
X36651860Y-65713610D02*
X54780182Y-65713610D01*
X56971860Y-65713610D02*
X66721990Y-65713610D01*
X32338010Y-65764410D02*
X34576458Y-65764410D01*
X36520889Y-65764410D02*
X54896458Y-65764410D01*
X56840889Y-65764410D02*
X66721990Y-65764410D01*
X32338010Y-65815210D02*
X34771668Y-65815210D01*
X36389919Y-65815210D02*
X55091668Y-65815210D01*
X56709919Y-65815210D02*
X66721990Y-65815210D01*
X32338010Y-65866010D02*
X35002721Y-65866010D01*
X36108538Y-65866010D02*
X55322721Y-65866010D01*
X56428538Y-65866010D02*
X66721990Y-65866010D01*
X32338010Y-65916810D02*
X35582445Y-65916810D01*
X35820438Y-65916810D02*
X55902445Y-65916810D01*
X56140438Y-65916810D02*
X66721990Y-65916810D01*
X66721990Y-65959990D02*
X32338010Y-65959990D01*
X32338010Y-63121498D01*
X32505450Y-63121498D01*
X32613445Y-63709911D01*
X32833672Y-64266142D01*
X33157744Y-64769004D01*
X33573318Y-65199343D01*
X34064564Y-65540768D01*
X34612770Y-65780274D01*
X35197056Y-65908737D01*
X35795167Y-65921266D01*
X36384320Y-65817382D01*
X36942075Y-65601043D01*
X37447187Y-65280489D01*
X37880417Y-64867930D01*
X38225263Y-64379080D01*
X38468590Y-63832559D01*
X38601129Y-63249184D01*
X38602912Y-63121498D01*
X52825450Y-63121498D01*
X52933445Y-63709911D01*
X53153672Y-64266142D01*
X53477744Y-64769004D01*
X53893318Y-65199343D01*
X54384564Y-65540768D01*
X54932770Y-65780274D01*
X55517056Y-65908737D01*
X56115167Y-65921266D01*
X56704320Y-65817382D01*
X57262075Y-65601043D01*
X57767187Y-65280489D01*
X58200417Y-64867930D01*
X58545263Y-64379080D01*
X58788590Y-63832559D01*
X58921129Y-63249184D01*
X58930671Y-62565879D01*
X58814471Y-61979031D01*
X58586499Y-61425929D01*
X58255437Y-60927641D01*
X57833896Y-60503146D01*
X57337931Y-60168613D01*
X56786434Y-59936785D01*
X56200411Y-59816492D01*
X55602184Y-59812316D01*
X55014539Y-59924415D01*
X54459859Y-60148520D01*
X53959271Y-60476095D01*
X53531844Y-60894663D01*
X53193857Y-61388280D01*
X52958185Y-61938146D01*
X52833803Y-62523314D01*
X52825450Y-63121498D01*
X38602912Y-63121498D01*
X38610671Y-62565879D01*
X38494471Y-61979031D01*
X38266499Y-61425929D01*
X37935437Y-60927641D01*
X37513896Y-60503146D01*
X37017931Y-60168613D01*
X36466434Y-59936785D01*
X35880411Y-59816492D01*
X35282184Y-59812316D01*
X34694539Y-59924415D01*
X34139859Y-60148520D01*
X33639271Y-60476095D01*
X33211844Y-60894663D01*
X32873857Y-61388280D01*
X32638185Y-61938146D01*
X32513803Y-62523314D01*
X32505450Y-63121498D01*
X32338010Y-63121498D01*
X32338010Y-53945495D01*
X59796426Y-53945495D01*
X59837475Y-54169151D01*
X59921183Y-54380574D01*
X60044363Y-54571712D01*
X60202323Y-54735284D01*
X60389045Y-54865059D01*
X60597418Y-54956095D01*
X60819505Y-55004924D01*
X61046847Y-55009686D01*
X61270784Y-54970200D01*
X61482786Y-54887970D01*
X61674779Y-54766127D01*
X61839450Y-54609313D01*
X61970526Y-54423502D01*
X62063014Y-54215769D01*
X62113393Y-53994028D01*
X62114070Y-53945495D01*
X62336426Y-53945495D01*
X62377475Y-54169151D01*
X62461183Y-54380574D01*
X62584363Y-54571712D01*
X62742323Y-54735284D01*
X62929045Y-54865059D01*
X63137418Y-54956095D01*
X63359505Y-55004924D01*
X63586847Y-55009686D01*
X63810784Y-54970200D01*
X64022786Y-54887970D01*
X64214779Y-54766127D01*
X64379450Y-54609313D01*
X64510526Y-54423502D01*
X64603014Y-54215769D01*
X64653393Y-53994028D01*
X64657019Y-53734304D01*
X64612852Y-53511243D01*
X64526200Y-53301009D01*
X64400363Y-53111610D01*
X64240135Y-52950260D01*
X64051619Y-52823104D01*
X63841995Y-52734986D01*
X63619248Y-52689263D01*
X63391862Y-52687675D01*
X63168498Y-52730284D01*
X62957665Y-52815466D01*
X62767391Y-52939978D01*
X62604926Y-53099075D01*
X62476458Y-53286699D01*
X62386878Y-53495703D01*
X62339601Y-53718125D01*
X62336426Y-53945495D01*
X62114070Y-53945495D01*
X62117019Y-53734304D01*
X62072852Y-53511243D01*
X61986200Y-53301009D01*
X61860363Y-53111610D01*
X61700135Y-52950260D01*
X61511619Y-52823104D01*
X61301995Y-52734986D01*
X61079248Y-52689263D01*
X60851862Y-52687675D01*
X60628498Y-52730284D01*
X60417665Y-52815466D01*
X60227391Y-52939978D01*
X60064926Y-53099075D01*
X59936458Y-53286699D01*
X59846878Y-53495703D01*
X59799601Y-53718125D01*
X59796426Y-53945495D01*
X32338010Y-53945495D01*
X32338010Y-51405495D01*
X59796426Y-51405495D01*
X59837475Y-51629151D01*
X59921183Y-51840574D01*
X60044363Y-52031712D01*
X60202323Y-52195284D01*
X60389045Y-52325059D01*
X60597418Y-52416095D01*
X60819505Y-52464924D01*
X61046847Y-52469686D01*
X61270784Y-52430200D01*
X61482786Y-52347970D01*
X61674779Y-52226127D01*
X61714238Y-52188550D01*
X62897094Y-52188550D01*
X62982875Y-52353327D01*
X63196696Y-52433631D01*
X63422074Y-52470679D01*
X63650350Y-52463045D01*
X63872750Y-52411024D01*
X64012045Y-52353327D01*
X64097826Y-52188550D01*
X63497460Y-51588184D01*
X62897094Y-52188550D01*
X61714238Y-52188550D01*
X61839450Y-52069313D01*
X61970526Y-51883502D01*
X62063014Y-51675769D01*
X62113393Y-51454028D01*
X62116484Y-51232614D01*
X62334781Y-51232614D01*
X62342415Y-51460890D01*
X62394436Y-51683290D01*
X62452133Y-51822585D01*
X62616910Y-51908366D01*
X63217276Y-51308000D01*
X63777644Y-51308000D01*
X64378010Y-51908366D01*
X64542787Y-51822585D01*
X64623091Y-51608764D01*
X64660139Y-51383386D01*
X64652505Y-51155110D01*
X64600484Y-50932710D01*
X64542787Y-50793415D01*
X64378010Y-50707634D01*
X63777644Y-51308000D01*
X63217276Y-51308000D01*
X62616910Y-50707634D01*
X62452133Y-50793415D01*
X62371829Y-51007236D01*
X62334781Y-51232614D01*
X62116484Y-51232614D01*
X62117019Y-51194304D01*
X62072852Y-50971243D01*
X61986200Y-50761009D01*
X61860363Y-50571610D01*
X61717206Y-50427450D01*
X62897094Y-50427450D01*
X63497460Y-51027816D01*
X64097826Y-50427450D01*
X64012045Y-50262673D01*
X63798224Y-50182369D01*
X63572846Y-50145321D01*
X63344570Y-50152955D01*
X63122170Y-50204976D01*
X62982875Y-50262673D01*
X62897094Y-50427450D01*
X61717206Y-50427450D01*
X61700135Y-50410260D01*
X61511619Y-50283104D01*
X61301995Y-50194986D01*
X61079248Y-50149263D01*
X60851862Y-50147675D01*
X60628498Y-50190284D01*
X60417665Y-50275466D01*
X60227391Y-50399978D01*
X60064926Y-50559075D01*
X59936458Y-50746699D01*
X59846878Y-50955703D01*
X59799601Y-51178125D01*
X59796426Y-51405495D01*
X32338010Y-51405495D01*
X32338010Y-48865495D01*
X59796426Y-48865495D01*
X59837475Y-49089151D01*
X59921183Y-49300574D01*
X60044363Y-49491712D01*
X60202323Y-49655284D01*
X60389045Y-49785059D01*
X60597418Y-49876095D01*
X60819505Y-49924924D01*
X61046847Y-49929686D01*
X61270784Y-49890200D01*
X61482786Y-49807970D01*
X61674779Y-49686127D01*
X61714238Y-49648550D01*
X62897094Y-49648550D01*
X62982875Y-49813327D01*
X63196696Y-49893631D01*
X63422074Y-49930679D01*
X63650350Y-49923045D01*
X63872750Y-49871024D01*
X64012045Y-49813327D01*
X64097826Y-49648550D01*
X63497460Y-49048184D01*
X62897094Y-49648550D01*
X61714238Y-49648550D01*
X61839450Y-49529313D01*
X61970526Y-49343502D01*
X62063014Y-49135769D01*
X62113393Y-48914028D01*
X62116484Y-48692614D01*
X62334781Y-48692614D01*
X62342415Y-48920890D01*
X62394436Y-49143290D01*
X62452133Y-49282585D01*
X62616910Y-49368366D01*
X63217276Y-48768000D01*
X63777644Y-48768000D01*
X64378010Y-49368366D01*
X64542787Y-49282585D01*
X64623091Y-49068764D01*
X64660139Y-48843386D01*
X64652505Y-48615110D01*
X64600484Y-48392710D01*
X64542787Y-48253415D01*
X64378010Y-48167634D01*
X63777644Y-48768000D01*
X63217276Y-48768000D01*
X62616910Y-48167634D01*
X62452133Y-48253415D01*
X62371829Y-48467236D01*
X62334781Y-48692614D01*
X62116484Y-48692614D01*
X62117019Y-48654304D01*
X62072852Y-48431243D01*
X61986200Y-48221009D01*
X61860363Y-48031610D01*
X61717206Y-47887450D01*
X62897094Y-47887450D01*
X63497460Y-48487816D01*
X64097826Y-47887450D01*
X64012045Y-47722673D01*
X63798224Y-47642369D01*
X63572846Y-47605321D01*
X63344570Y-47612955D01*
X63122170Y-47664976D01*
X62982875Y-47722673D01*
X62897094Y-47887450D01*
X61717206Y-47887450D01*
X61700135Y-47870260D01*
X61511619Y-47743104D01*
X61301995Y-47654986D01*
X61079248Y-47609263D01*
X60851862Y-47607675D01*
X60628498Y-47650284D01*
X60417665Y-47735466D01*
X60227391Y-47859978D01*
X60064926Y-48019075D01*
X59936458Y-48206699D01*
X59846878Y-48415703D01*
X59799601Y-48638125D01*
X59796426Y-48865495D01*
X32338010Y-48865495D01*
X32338010Y-46325495D01*
X59796426Y-46325495D01*
X59837475Y-46549151D01*
X59921183Y-46760574D01*
X60044363Y-46951712D01*
X60202323Y-47115284D01*
X60389045Y-47245059D01*
X60597418Y-47336095D01*
X60819505Y-47384924D01*
X61046847Y-47389686D01*
X61270784Y-47350200D01*
X61482786Y-47267970D01*
X61674779Y-47146127D01*
X61714238Y-47108550D01*
X62897094Y-47108550D01*
X62982875Y-47273327D01*
X63196696Y-47353631D01*
X63422074Y-47390679D01*
X63650350Y-47383045D01*
X63872750Y-47331024D01*
X64012045Y-47273327D01*
X64097826Y-47108550D01*
X63497460Y-46508184D01*
X62897094Y-47108550D01*
X61714238Y-47108550D01*
X61839450Y-46989313D01*
X61970526Y-46803502D01*
X62063014Y-46595769D01*
X62113393Y-46374028D01*
X62116484Y-46152614D01*
X62334781Y-46152614D01*
X62342415Y-46380890D01*
X62394436Y-46603290D01*
X62452133Y-46742585D01*
X62616910Y-46828366D01*
X63217276Y-46228000D01*
X63777644Y-46228000D01*
X64378010Y-46828366D01*
X64542787Y-46742585D01*
X64623091Y-46528764D01*
X64660139Y-46303386D01*
X64652505Y-46075110D01*
X64600484Y-45852710D01*
X64542787Y-45713415D01*
X64378010Y-45627634D01*
X63777644Y-46228000D01*
X63217276Y-46228000D01*
X62616910Y-45627634D01*
X62452133Y-45713415D01*
X62371829Y-45927236D01*
X62334781Y-46152614D01*
X62116484Y-46152614D01*
X62117019Y-46114304D01*
X62072852Y-45891243D01*
X61986200Y-45681009D01*
X61860363Y-45491610D01*
X61717206Y-45347450D01*
X62897094Y-45347450D01*
X63497460Y-45947816D01*
X64097826Y-45347450D01*
X64012045Y-45182673D01*
X63798224Y-45102369D01*
X63572846Y-45065321D01*
X63344570Y-45072955D01*
X63122170Y-45124976D01*
X62982875Y-45182673D01*
X62897094Y-45347450D01*
X61717206Y-45347450D01*
X61700135Y-45330260D01*
X61511619Y-45203104D01*
X61301995Y-45114986D01*
X61079248Y-45069263D01*
X60851862Y-45067675D01*
X60628498Y-45110284D01*
X60417665Y-45195466D01*
X60227391Y-45319978D01*
X60064926Y-45479075D01*
X59936458Y-45666699D01*
X59846878Y-45875703D01*
X59799601Y-46098125D01*
X59796426Y-46325495D01*
X32338010Y-46325495D01*
X32338010Y-43238649D01*
X42481573Y-43238649D01*
X42506266Y-43373190D01*
X42556621Y-43500373D01*
X42630721Y-43615353D01*
X42725742Y-43713751D01*
X42838066Y-43791818D01*
X42963415Y-43846581D01*
X43097012Y-43875955D01*
X43233771Y-43878819D01*
X43368482Y-43855066D01*
X43496013Y-43805600D01*
X43611508Y-43732305D01*
X43710566Y-43637973D01*
X43789416Y-43526196D01*
X43845053Y-43401234D01*
X43875358Y-43267844D01*
X43877540Y-43111606D01*
X43850971Y-42977422D01*
X43829777Y-42926000D01*
X59796027Y-42926000D01*
X59796027Y-44450000D01*
X59801075Y-44513302D01*
X59834324Y-44620669D01*
X59896169Y-44714522D01*
X59981713Y-44787430D01*
X60084181Y-44833619D01*
X60195460Y-44849433D01*
X61719460Y-44849433D01*
X61782762Y-44844385D01*
X61890129Y-44811136D01*
X61983982Y-44749291D01*
X62056890Y-44663747D01*
X62103079Y-44561279D01*
X62118893Y-44450000D01*
X62118893Y-43785495D01*
X62336426Y-43785495D01*
X62377475Y-44009151D01*
X62461183Y-44220574D01*
X62584363Y-44411712D01*
X62742323Y-44575284D01*
X62929045Y-44705059D01*
X63137418Y-44796095D01*
X63359505Y-44844924D01*
X63586847Y-44849686D01*
X63810784Y-44810200D01*
X64022786Y-44727970D01*
X64214779Y-44606127D01*
X64379450Y-44449313D01*
X64510526Y-44263502D01*
X64603014Y-44055769D01*
X64653393Y-43834028D01*
X64657019Y-43574304D01*
X64612852Y-43351243D01*
X64526200Y-43141009D01*
X64400363Y-42951610D01*
X64240135Y-42790260D01*
X64051619Y-42663104D01*
X63841995Y-42574986D01*
X63619248Y-42529263D01*
X63391862Y-42527675D01*
X63168498Y-42570284D01*
X62957665Y-42655466D01*
X62767391Y-42779978D01*
X62604926Y-42939075D01*
X62476458Y-43126699D01*
X62386878Y-43335703D01*
X62339601Y-43558125D01*
X62336426Y-43785495D01*
X62118893Y-43785495D01*
X62118893Y-42926000D01*
X62113845Y-42862698D01*
X62080596Y-42755331D01*
X62018751Y-42661478D01*
X61933207Y-42588570D01*
X61830739Y-42542381D01*
X61719460Y-42526567D01*
X60195460Y-42526567D01*
X60132158Y-42531615D01*
X60024791Y-42564864D01*
X59930938Y-42626709D01*
X59858030Y-42712253D01*
X59811841Y-42814721D01*
X59796027Y-42926000D01*
X43829777Y-42926000D01*
X43798845Y-42850954D01*
X43765470Y-42800721D01*
X43765470Y-42406510D01*
X43847990Y-42323990D01*
X43882339Y-42282173D01*
X43917079Y-42240771D01*
X43918561Y-42238075D01*
X43920516Y-42235695D01*
X43946089Y-42188001D01*
X43972126Y-42140641D01*
X43973056Y-42137710D01*
X43974512Y-42134994D01*
X43990326Y-42083269D01*
X44006676Y-42031726D01*
X44007019Y-42028665D01*
X44007919Y-42025722D01*
X44008092Y-42024016D01*
X44016022Y-42018791D01*
X44088930Y-41933247D01*
X44135119Y-41830779D01*
X44150933Y-41719500D01*
X44150933Y-40576500D01*
X44241067Y-40576500D01*
X44241067Y-41719500D01*
X44246115Y-41782802D01*
X44279364Y-41890169D01*
X44341209Y-41984022D01*
X44426753Y-42056930D01*
X44529221Y-42103119D01*
X44640500Y-42118933D01*
X45275500Y-42118933D01*
X45338802Y-42113885D01*
X45446169Y-42080636D01*
X45540022Y-42018791D01*
X45612930Y-41933247D01*
X45659119Y-41830779D01*
X45672948Y-41733470D01*
X46212760Y-41733470D01*
X46266593Y-41728192D01*
X46320458Y-41723479D01*
X46323413Y-41722621D01*
X46326478Y-41722320D01*
X46378283Y-41706679D01*
X46430185Y-41691600D01*
X46432916Y-41690184D01*
X46435865Y-41689294D01*
X46483625Y-41663899D01*
X46531630Y-41639016D01*
X46534036Y-41637095D01*
X46536754Y-41635650D01*
X46578644Y-41601486D01*
X46620930Y-41567729D01*
X46625219Y-41563500D01*
X46625302Y-41563432D01*
X46625366Y-41563355D01*
X46626750Y-41561990D01*
X46763227Y-41425513D01*
X47132240Y-41425513D01*
X47195542Y-41420465D01*
X47302909Y-41387216D01*
X47396762Y-41325371D01*
X47469670Y-41239827D01*
X47515859Y-41137359D01*
X47531673Y-41026080D01*
X47531673Y-40228520D01*
X47526625Y-40165218D01*
X47493376Y-40057851D01*
X47431531Y-39963998D01*
X47345987Y-39891090D01*
X47318178Y-39878555D01*
X47396762Y-39826771D01*
X47469670Y-39741227D01*
X47482439Y-39712900D01*
X47642602Y-39712900D01*
X47664066Y-39727818D01*
X47789415Y-39782581D01*
X47923012Y-39811955D01*
X48059771Y-39814819D01*
X48194482Y-39791066D01*
X48322013Y-39741600D01*
X48437508Y-39668305D01*
X48536566Y-39573973D01*
X48615416Y-39462196D01*
X48671053Y-39337234D01*
X48701358Y-39203844D01*
X48703540Y-39047606D01*
X48676971Y-38913422D01*
X48624845Y-38786954D01*
X48549147Y-38673020D01*
X48452761Y-38575959D01*
X48339358Y-38499468D01*
X48213257Y-38446460D01*
X48079262Y-38418955D01*
X47942477Y-38418000D01*
X47808111Y-38443631D01*
X47681283Y-38494873D01*
X47605445Y-38544500D01*
X47483656Y-38544500D01*
X47431531Y-38465398D01*
X47345987Y-38392490D01*
X47243519Y-38346301D01*
X47132240Y-38330487D01*
X46334680Y-38330487D01*
X46271378Y-38335535D01*
X46164011Y-38368784D01*
X46070158Y-38430629D01*
X45997250Y-38516173D01*
X45951061Y-38618641D01*
X45935247Y-38729920D01*
X45935247Y-39527480D01*
X45940295Y-39590782D01*
X45973544Y-39698149D01*
X46035389Y-39792002D01*
X46120933Y-39864910D01*
X46148742Y-39877445D01*
X46070158Y-39929229D01*
X45997250Y-40014773D01*
X45951061Y-40117241D01*
X45935247Y-40228520D01*
X45935247Y-40562530D01*
X45673819Y-40562530D01*
X45669885Y-40513198D01*
X45636636Y-40405831D01*
X45574791Y-40311978D01*
X45489247Y-40239070D01*
X45386779Y-40192881D01*
X45275500Y-40177067D01*
X44640500Y-40177067D01*
X44577198Y-40182115D01*
X44469831Y-40215364D01*
X44375978Y-40277209D01*
X44303070Y-40362753D01*
X44256881Y-40465221D01*
X44241067Y-40576500D01*
X44150933Y-40576500D01*
X44145885Y-40513198D01*
X44112636Y-40405831D01*
X44050791Y-40311978D01*
X43965247Y-40239070D01*
X43862779Y-40192881D01*
X43751500Y-40177067D01*
X43116500Y-40177067D01*
X43053198Y-40182115D01*
X42945831Y-40215364D01*
X42851978Y-40277209D01*
X42779070Y-40362753D01*
X42732881Y-40465221D01*
X42717067Y-40576500D01*
X42717067Y-41719500D01*
X42722115Y-41782802D01*
X42726730Y-41797704D01*
X42696921Y-41833229D01*
X42695439Y-41835925D01*
X42693484Y-41838305D01*
X42667911Y-41885999D01*
X42641874Y-41933359D01*
X42640944Y-41936290D01*
X42639488Y-41939006D01*
X42623674Y-41990731D01*
X42607324Y-42042274D01*
X42606981Y-42045335D01*
X42606081Y-42048278D01*
X42600619Y-42102046D01*
X42594587Y-42155826D01*
X42594545Y-42161848D01*
X42594534Y-42161956D01*
X42594544Y-42162057D01*
X42594530Y-42164000D01*
X42594530Y-42800402D01*
X42565810Y-42842346D01*
X42511923Y-42968073D01*
X42483483Y-43101873D01*
X42481573Y-43238649D01*
X32338010Y-43238649D01*
X32338010Y-35178958D01*
X32505450Y-35178958D01*
X32613445Y-35767371D01*
X32833672Y-36323602D01*
X33157744Y-36826464D01*
X33573318Y-37256803D01*
X34064564Y-37598228D01*
X34612770Y-37837734D01*
X35197056Y-37966197D01*
X35795167Y-37978726D01*
X36384320Y-37874842D01*
X36942075Y-37658503D01*
X37447187Y-37337949D01*
X37880417Y-36925390D01*
X38225263Y-36436540D01*
X38468590Y-35890019D01*
X38601129Y-35306644D01*
X38602912Y-35178958D01*
X52825450Y-35178958D01*
X52933445Y-35767371D01*
X53153672Y-36323602D01*
X53477744Y-36826464D01*
X53893318Y-37256803D01*
X54384564Y-37598228D01*
X54932770Y-37837734D01*
X55517056Y-37966197D01*
X56115167Y-37978726D01*
X56704320Y-37874842D01*
X57262075Y-37658503D01*
X57767187Y-37337949D01*
X58200417Y-36925390D01*
X58545263Y-36436540D01*
X58788590Y-35890019D01*
X58921129Y-35306644D01*
X58930671Y-34623339D01*
X58814471Y-34036491D01*
X58586499Y-33483389D01*
X58255437Y-32985101D01*
X57833896Y-32560606D01*
X57337931Y-32226073D01*
X56786434Y-31994245D01*
X56200411Y-31873952D01*
X55602184Y-31869776D01*
X55014539Y-31981875D01*
X54459859Y-32205980D01*
X53959271Y-32533555D01*
X53531844Y-32952123D01*
X53193857Y-33445740D01*
X52958185Y-33995606D01*
X52833803Y-34580774D01*
X52825450Y-35178958D01*
X38602912Y-35178958D01*
X38610671Y-34623339D01*
X38494471Y-34036491D01*
X38266499Y-33483389D01*
X37935437Y-32985101D01*
X37513896Y-32560606D01*
X37017931Y-32226073D01*
X36466434Y-31994245D01*
X35880411Y-31873952D01*
X35282184Y-31869776D01*
X34694539Y-31981875D01*
X34139859Y-32205980D01*
X33639271Y-32533555D01*
X33211844Y-32952123D01*
X32873857Y-33445740D01*
X32638185Y-33995606D01*
X32513803Y-34580774D01*
X32505450Y-35178958D01*
X32338010Y-35178958D01*
X32338010Y-31576010D01*
X66721990Y-31576010D01*
X66721990Y-65959990D01*
M02*
