  0
SECTION
  2
HEADER
  9
$ACADVER
  1
AC1015
  9
$ACADMAINTVER
 70
     6
  9
$DWGCODEPAGE
  3
ANSI_1252
  9
$INSBASE
 10
0.0
 20
0.0
 30
0.0
  9
$EXTMIN
 10
0.0
 20
0.0
 30
0.0
  9
$EXTMAX
 10
23.38578
 20
16.5354
 30
0.0
  9
$LIMMIN
 10
0.0
 20
0.0
  9
$LIMMAX
 10
23.38578
 20
16.5354
  9
$ORTHOMODE
 70
     0
  9
$REGENMODE
 70
     1
  9
$FILLMODE
 70
     1
  9
$QTEXTMODE
 70
     0
  9
$MIRRTEXT
 70
     1
  9
$LTSCALE
 40
1.0
  9
$ATTMODE
 70
     1
  9
$TEXTSIZE
 40
0.2
  9
$TRACEWID
 40
0.05
  9
$TEXTSTYLE
  7
Standard
  9
$CLAYER
  8
0
  9
$CELTYPE
  6
ByLayer
  9
$CECOLOR
 62
   256
  9
$CELTSCALE
 40
1.0
  9
$DISPSILH
 70
     0
  9
$DIMSCALE
 40
1.0
  9
$DIMASZ
 40
0.18
  9
$DIMEXO
 40
0.0625
  9
$DIMDLI
 40
0.38
  9
$DIMRND
 40
0.0
  9
$DIMDLE
 40
0.0
  9
$DIMEXE
 40
0.18
  9
$DIMTP
 40
0.0
  9
$DIMTM
 40
0.0
  9
$DIMTXT
 40
0.18
  9
$DIMCEN
 40
0.09
  9
$DIMTSZ
 40
0.0
  9
$DIMTOL
 70
     0
  9
$DIMLIM
 70
     0
  9
$DIMTIH
 70
     1
  9
$DIMTOH
 70
     1
  9
$DIMSE1
 70
     0
  9
$DIMSE2
 70
     0
  9
$DIMTAD
 70
     0
  9
$DIMZIN
 70
     0
  9
$DIMBLK
  1

  9
$DIMASO
 70
     1
  9
$DIMSHO
 70
     1
  9
$DIMPOST
  1

  9
$DIMAPOST
  1

  9
$DIMALT
 70
     0
  9
$DIMALTD
 70
     2
  9
$DIMALTF
 40
25.4
  9
$DIMLFAC
 40
1.0
  9
$DIMTOFL
 70
     0
  9
$DIMTVP
 40
0.0
  9
$DIMTIX
 70
     0
  9
$DIMSOXD
 70
     0
  9
$DIMSAH
 70
     0
  9
$DIMBLK1
  1

  9
$DIMBLK2
  1

  9
$DIMSTYLE
  2
Standard
  9
$DIMCLRD
 70
     0
  9
$DIMCLRE
 70
     0
  9
$DIMCLRT
 70
     0
  9
$DIMTFAC
 40
1.0
  9
$DIMGAP
 40
0.09
  9
$DIMJUST
 70
     0
  9
$DIMSD1
 70
     0
  9
$DIMSD2
 70
     0
  9
$DIMTOLJ
 70
     1
  9
$DIMTZIN
 70
     0
  9
$DIMALTZ
 70
     0
  9
$DIMALTTZ
 70
     0
  9
$DIMUPT
 70
     0
  9
$DIMDEC
 70
     4
  9
$DIMTDEC
 70
     4
  9
$DIMALTU
 70
     2
  9
$DIMALTTD
 70
     2
  9
$DIMTXSTY
  7
Standard
  9
$DIMAUNIT
 70
     0
  9
$DIMADEC
 70
     0
  9
$DIMALTRND
 40
0.0
  9
$DIMAZIN
 70
     0
  9
$DIMDSEP
 70
    46
  9
$DIMATFIT
 70
     3
  9
$DIMFRAC
 70
     0
  9
$DIMLDRBLK
  1

  9
$DIMLUNIT
 70
     2
  9
$DIMLWD
 70
    -2
  9
$DIMLWE
 70
    -2
  9
$DIMTMOVE
 70
     0
  9
$LUNITS
 70
     2
  9
$LUPREC
 70
     4
  9
$SKETCHINC
 40
0.1
  9
$FILLETRAD
 40
0.5
  9
$AUNITS
 70
     0
  9
$AUPREC
 70
     0
  9
$MENU
  1
.
  9
$ELEVATION
 40
0.0
  9
$PELEVATION
 40
0.0
  9
$THICKNESS
 40
0.0
  9
$LIMCHECK
 70
     0
  9
$CHAMFERA
 40
0.5
  9
$CHAMFERB
 40
0.5
  9
$CHAMFERC
 40
1.0
  9
$CHAMFERD
 40
0.0
  9
$SKPOLY
 70
     0
  9
$TDCREATE
 40
2455982.818958565
  9
$TDUCREATE
 40
2455982.777291898
  9
$TDUPDATE
 40
2455982.818960301
  9
$TDUUPDATE
 40
2455982.777293634
  9
$TDINDWG
 40
0.0000000116
  9
$TDUSRTIMER
 40
0.0000000116
  9
$USRTIMER
 70
     1
  9
$ANGBASE
 50
0.0
  9
$ANGDIR
 70
     0
  9
$PDMODE
 70
     0
  9
$PDSIZE
 40
0.0
  9
$PLINEWID
 40
0.0
  9
$SPLFRAME
 70
     0
  9
$SPLINETYPE
 70
     6
  9
$SPLINESEGS
 70
     8
  9
$HANDSEED
  5
197
  9
$SURFTAB1
 70
     6
  9
$SURFTAB2
 70
     6
  9
$SURFTYPE
 70
     6
  9
$SURFU
 70
     6
  9
$SURFV
 70
     6
  9
$UCSBASE
  2

  9
$UCSNAME
  2

  9
$UCSORG
 10
0.0
 20
0.0
 30
0.0
  9
$UCSXDIR
 10
1.0
 20
0.0
 30
0.0
  9
$UCSYDIR
 10
0.0
 20
1.0
 30
0.0
  9
$UCSORTHOREF
  2

  9
$UCSORTHOVIEW
 70
     0
  9
$UCSORGTOP
 10
0.0
 20
0.0
 30
0.0
  9
$UCSORGBOTTOM
 10
0.0
 20
0.0
 30
0.0
  9
$UCSORGLEFT
 10
0.0
 20
0.0
 30
0.0
  9
$UCSORGRIGHT
 10
0.0
 20
0.0
 30
0.0
  9
$UCSORGFRONT
 10
0.0
 20
0.0
 30
0.0
  9
$UCSORGBACK
 10
0.0
 20
0.0
 30
0.0
  9
$PUCSBASE
  2

  9
$PUCSNAME
  2

  9
$PUCSORG
 10
0.0
 20
0.0
 30
0.0
  9
$PUCSXDIR
 10
1.0
 20
0.0
 30
0.0
  9
$PUCSYDIR
 10
0.0
 20
1.0
 30
0.0
  9
$PUCSORTHOREF
  2

  9
$PUCSORTHOVIEW
 70
     0
  9
$PUCSORGTOP
 10
0.0
 20
0.0
 30
0.0
  9
$PUCSORGBOTTOM
 10
0.0
 20
0.0
 30
0.0
  9
$PUCSORGLEFT
 10
0.0
 20
0.0
 30
0.0
  9
$PUCSORGRIGHT
 10
0.0
 20
0.0
 30
0.0
  9
$PUCSORGFRONT
 10
0.0
 20
0.0
 30
0.0
  9
$PUCSORGBACK
 10
0.0
 20
0.0
 30
0.0
  9
$USERI1
 70
     0
  9
$USERI2
 70
     0
  9
$USERI3
 70
     0
  9
$USERI4
 70
     0
  9
$USERI5
 70
     0
  9
$USERR1
 40
0.0
  9
$USERR2
 40
0.0
  9
$USERR3
 40
0.0
  9
$USERR4
 40
0.0
  9
$USERR5
 40
0.0
  9
$WORLDVIEW
 70
     1
  9
$SHADEDGE
 70
     3
  9
$SHADEDIF
 70
    70
  9
$TILEMODE
 70
     1
  9
$MAXACTVP
 70
    64
  9
$PINSBASE
 10
0.0
 20
0.0
 30
0.0
  9
$PLIMCHECK
 70
     0
  9
$PEXTMIN
 10
0.0
 20
0.0
 30
0.0
  9
$PEXTMAX
 10
23.38578
 20
16.5354
 30
0.0
  9
$PLIMMIN
 10
0.0
 20
0.0
  9
$PLIMMAX
 10
23.38578
 20
16.5354
  9
$UNITMODE
 70
     0
  9
$VISRETAIN
 70
     1
  9
$PLINEGEN
 70
     0
  9
$PSLTSCALE
 70
     1
  9
$TREEDEPTH
 70
  3020
  9
$CMLSTYLE
  2
Standard
  9
$CMLJUST
 70
     0
  9
$CMLSCALE
 40
1.0
  9
$PROXYGRAPHICS
 70
     1
  9
$MEASUREMENT
 70
     0
  9
$CELWEIGHT
370
    -1
  9
$ENDCAPS
280
     0
  9
$JOINSTYLE
280
     0
  9
$LWDISPLAY
290
     0
  9
$INSUNITS
 70
     1
  9
$HYPERLINKBASE
  1

  9
$STYLESHEET
  1

  9
$XEDIT
290
     1
  9
$CEPSNTYPE
380
     0
  9
$PSTYLEMODE
290
     1
  9
$FINGERPRINTGUID
  2
{5128E52A-191F-4B33-9513-2E5901C65F5A}
  9
$VERSIONGUID
  2
{FAEB1C32-E019-11D5-929B-00C0DF256EC4}
  9
$EXTNAMES
290
     1
  9
$PSVPSCALE
 40
0.0
  9
$OLESTARTUP
290
     0
  0
ENDSEC
  0
SECTION
  2
CLASSES
  0
CLASS
  1
ACDBDICTIONARYWDFLT
  2
AcDbDictionaryWithDefault
  3
ObjectDBX Classes
 90
        0
280
     0
281
     0
  0
CLASS
  1
VISUALSTYLE
  2
AcDbVisualStyle
  3
ObjectDBX Classes
 90
     4095
280
     0
281
     0
  0
CLASS
  1
MATERIAL
  2
AcDbMaterial
  3
ObjectDBX Classes
 90
     1153
280
     0
281
     0
  0
CLASS
  1
DICTIONARYVAR
  2
AcDbDictionaryVar
  3
ObjectDBX Classes
 90
        0
280
     0
281
     0
  0
CLASS
  1
ACDBPLACEHOLDER
  2
AcDbPlaceHolder
  3
ObjectDBX Classes
 90
        0
280
     0
281
     0
  0
CLASS
  1
LAYOUT
  2
AcDbLayout
  3
ObjectDBX Classes
 90
        0
280
     0
281
     0
  0
ENDSEC
  0
SECTION
  2
TABLES
  0
TABLE
  2
VPORT
  5
8
330
0
100
AcDbSymbolTable
 70
     1
  0
VPORT
  5
29
330
8
100
AcDbSymbolTableRecord
100
AcDbViewportTableRecord
  2
*Active
 70
     0
 10
0.0
 20
0.0
 11
1.0
 21
1.0
 12
10.4299065421
 22
4.5
 13
0.0
 23
0.0
 14
0.5
 24
0.5
 15
0.5
 25
0.5
 16
0.0
 26
0.0
 36
1.0
 17
0.0
 27
0.0
 37
0.0
 40
9.0
 41
1.9729729729
 42
50.0
 43
0.0
 44
0.0
 50
0.0
 51
0.0
 71
     0
 72
   100
 73
     1
 74
     3
 75
     0
 76
     0
 77
     0
 78
     0
281
     0
 65
     1
110
0.0
120
0.0
130
0.0
111
1.0
121
0.0
131
0.0
112
0.0
122
1.0
132
0.0
 79
     0
146
0.0
  0
ENDTAB
  0
TABLE
  2
LTYPE
  5
5
330
0
100
AcDbSymbolTable
 70
     2
  0
LTYPE
  5
14
330
5
100
AcDbSymbolTableRecord
100
AcDbLinetypeTableRecord
  2
ByBlock
 70
     0
  3

 72
    65
 73
     0
 40
0.0
  0
LTYPE
  5
15
330
5
100
AcDbSymbolTableRecord
100
AcDbLinetypeTableRecord
  2
ByLayer
 70
     0
  3

 72
    65
 73
     0
 40
0.0
  0
LTYPE
  5
16
330
5
100
AcDbSymbolTableRecord
100
AcDbLinetypeTableRecord
  2
Continuous
 70
     0
  3
Solid line
 72
    65
 73
     0
 40
0.0
  0
LTYPE
  5
B2
330
5
100
AcDbSymbolTableRecord
100
AcDbLinetypeTableRecord
  2
DOT2
 70
     0
  3
...............................................
 72
    65
 73
     2
 40
0.125
 49
0.0
 74
     4
 75
     0
340
0
 46
0.0
 50
0.0
 44
0.0
 45
0.0
 49
-0.125
 74
     4
 75
     0
340
0
 46
0.0
 50
0.0
 44
0.0
 45
0.0
  0
ENDTAB
  0
TABLE
  2
LAYER
  5
2
330
0
100
AcDbSymbolTable
 70
     4
  0
LAYER
  5
10
330
2
100
AcDbSymbolTableRecord
100
AcDbLayerTableRecord
  2
0
 70
     0
 62
     7
  6
Continuous
370
    -3
390
F
  0
LAYER
  5
3F
330
2
100
AcDbSymbolTableRecord
100
AcDbLayerTableRecord
  2
_Übersetzung
 70
     1
 62
    -7
  6
Continuous
370
    -3
390
F
  0
LAYER
  5
5E
330
2
100
AcDbSymbolTableRecord
100
AcDbLayerTableRecord
  2
Default
 70
     0
 62
     7
  6
Continuous
370
    -3
390
F
  0
LAYER
  5
B1
330
2
100
AcDbSymbolTableRecord
100
AcDbLayerTableRecord
  2
SHAFT
 70
     0
 62
     7
  6
Continuous
370
    -3
390
F
  0
ENDTAB
  0
TABLE
  2
STYLE
  5
3
330
0
100
AcDbSymbolTable
 70
     3
  0
STYLE
  5
11
330
3
100
AcDbSymbolTableRecord
100
AcDbTextStyleTableRecord
  2
Standard
 70
     0
 40
0.0
 41
1.0
 50
0.0
 71
     0
 42
0.2
  3
txt
  4

  0
STYLE
  5
74
330
3
100
AcDbSymbolTableRecord
100
AcDbTextStyleTableRecord
  2
SEACAD_Solid_Edge_ISO
 70
     0
 40
0.0
 41
1.0
 50
0.0
 71
     0
 42
0.2
  3
seiso.ttf
  4

1001
ACAD
1000
Solid Edge ISO
1071
        0
  0
STYLE
  5
7F
330
3
100
AcDbSymbolTableRecord
100
AcDbTextStyleTableRecord
  2
SEACAD_Arial
 70
     0
 40
0.0
 41
1.0
 50
0.0
 71
     0
 42
0.2
  3
ARIAL.TTF
  4

1001
ACAD
1000
Arial
1071
        0
  0
ENDTAB
  0
TABLE
  2
VIEW
  5
6
330
0
100
AcDbSymbolTable
 70
     0
  0
ENDTAB
  0
TABLE
  2
UCS
  5
7
330
0
100
AcDbSymbolTable
 70
     0
  0
ENDTAB
  0
TABLE
  2
APPID
  5
9
330
0
100
AcDbSymbolTable
 70
     1
  0
APPID
  5
12
330
9
100
AcDbSymbolTableRecord
100
AcDbRegAppTableRecord
  2
ACAD
 70
     0
  0
ENDTAB
  0
TABLE
  2
DIMSTYLE
  5
A
330
0
100
AcDbSymbolTable
 70
     2
100
AcDbDimStyleTable
  0
DIMSTYLE
105
27
330
A
100
AcDbSymbolTableRecord
100
AcDbDimStyleTableRecord
  2
Standard
 70
     0
178
     0
340
11
  0
DIMSTYLE
105
E5
102
{ACAD_REACTORS
330
F2
330
FC
330
106
330
10F
330
11A
330
125
330
130
330
13A
330
144
330
14E
102
}
330
A
100
AcDbSymbolTableRecord
100
AcDbDimStyleTableRecord
  2
ISO
 70
     0
 41
3.5
 42
1.75
 44
1.75
 73
     0
 74
     0
 77
     1
 78
     8
140
3.5
141
1.75
144
0.1
147
0.35
173
     1
178
     0
271
     2
272
     2
284
     8
340
74
343
E0
344
E0
  0
ENDTAB
  0
TABLE
  2
BLOCK_RECORD
  5
1
330
0
100
AcDbSymbolTable
 70
    21
  0
BLOCK_RECORD
  5
1F
330
1
100
AcDbSymbolTableRecord
100
AcDbBlockTableRecord
  2
*Model_Space
340
22
  0
BLOCK_RECORD
  5
1B
330
1
100
AcDbSymbolTableRecord
100
AcDbBlockTableRecord
  2
*Paper_Space
340
1E
  0
BLOCK_RECORD
  5
B3
330
1
100
AcDbSymbolTableRecord
100
AcDbBlockTableRecord
  2
SE
340
0
102
{BLKREFS
331
C4
102
}
  0
BLOCK_RECORD
  5
C5
330
1
100
AcDbSymbolTableRecord
100
AcDbBlockTableRecord
  2
SE1
340
0
102
{BLKREFS
331
D6
102
}
  0
BLOCK_RECORD
  5
D7
330
1
100
AcDbSymbolTableRecord
100
AcDbBlockTableRecord
  2
SE2
340
0
102
{BLKREFS
331
DF
102
}
  0
BLOCK_RECORD
  5
E0
330
1
100
AcDbSymbolTableRecord
100
AcDbBlockTableRecord
  2
_SE_FILLED
340
0
  0
BLOCK_RECORD
  5
E6
330
1
100
AcDbSymbolTableRecord
100
AcDbBlockTableRecord
  2
_OBLIQUE
340
0
  0
BLOCK_RECORD
  5
EA
330
1
100
AcDbSymbolTableRecord
100
AcDbBlockTableRecord
  2
_DOT
340
0
  0
BLOCK_RECORD
  5
F3
330
1
100
AcDbSymbolTableRecord
100
AcDbBlockTableRecord
  2
DMBLK1
340
0
  0
BLOCK_RECORD
  5
FD
330
1
100
AcDbSymbolTableRecord
100
AcDbBlockTableRecord
  2
DMBLK2
340
0
  0
BLOCK_RECORD
  5
107
330
1
100
AcDbSymbolTableRecord
100
AcDbBlockTableRecord
  2
DMBLK3
340
0
  0
BLOCK_RECORD
  5
110
330
1
100
AcDbSymbolTableRecord
100
AcDbBlockTableRecord
  2
DMBLK4
340
0
  0
BLOCK_RECORD
  5
11B
330
1
100
AcDbSymbolTableRecord
100
AcDbBlockTableRecord
  2
DMBLK5
340
0
  0
BLOCK_RECORD
  5
126
330
1
100
AcDbSymbolTableRecord
100
AcDbBlockTableRecord
  2
DMBLK6
340
0
  0
BLOCK_RECORD
  5
131
330
1
100
AcDbSymbolTableRecord
100
AcDbBlockTableRecord
  2
DMBLK7
340
0
  0
BLOCK_RECORD
  5
13B
330
1
100
AcDbSymbolTableRecord
100
AcDbBlockTableRecord
  2
DMBLK8
340
0
  0
BLOCK_RECORD
  5
145
330
1
100
AcDbSymbolTableRecord
100
AcDbBlockTableRecord
  2
DMBLK9
340
0
  0
BLOCK_RECORD
  5
14F
330
1
100
AcDbSymbolTableRecord
100
AcDbBlockTableRecord
  2
DMBLK10
340
0
  0
BLOCK_RECORD
  5
158
330
1
100
AcDbSymbolTableRecord
100
AcDbBlockTableRecord
  2
SEANNOT_GROUP
340
0
102
{BLKREFS
331
15C
102
}
  0
BLOCK_RECORD
  5
15D
330
1
100
AcDbSymbolTableRecord
100
AcDbBlockTableRecord
  2
SEANNOT_GROUP1
340
0
102
{BLKREFS
331
161
102
}
  0
BLOCK_RECORD
  5
162
330
1
100
AcDbSymbolTableRecord
100
AcDbBlockTableRecord
  2
SEANNOT_GROUP5
340
0
102
{BLKREFS
331
166
102
}
  0
BLOCK_RECORD
  5
167
330
1
100
AcDbSymbolTableRecord
100
AcDbBlockTableRecord
  2
SEANNOT_GROUP6
340
0
102
{BLKREFS
331
16B
102
}
  0
ENDTAB
  0
ENDSEC
  0
SECTION
  2
BLOCKS
  0
BLOCK
  5
20
330
1F
100
AcDbEntity
  8
0
100
AcDbBlockBegin
  2
*Model_Space
 70
     0
 10
0.0
 20
0.0
 30
0.0
  3
*Model_Space
  1

  0
ENDBLK
  5
21
330
1F
100
AcDbEntity
  8
0
100
AcDbBlockEnd
  0
BLOCK
  5
1C
330
1B
100
AcDbEntity
 67
     1
  8
0
100
AcDbBlockBegin
  2
*Paper_Space
 70
     0
 10
0.0
 20
0.0
 30
0.0
  3
*Paper_Space
  1

  0
ENDBLK
  5
1D
330
1B
100
AcDbEntity
 67
     1
  8
0
100
AcDbBlockEnd
  0
BLOCK
  5
C2
330
B3
100
AcDbEntity
  8
0
100
AcDbBlockBegin
  2
SE
 70
     0
 10
0.0
 20
0.0
 30
0.0
  3
SE
  1

  0
LINE
  5
B4
330
B3
100
AcDbEntity
  8
SHAFT
  6
Continuous
 62
     7
100
AcDbLine
 10
0.0
 20
0.0
 30
0.0
 11
0.0
 21
120.0
 31
0.0
  0
LINE
  5
B5
330
B3
100
AcDbEntity
  8
SHAFT
  6
Continuous
 62
     7
100
AcDbLine
 10
100.0
 20
0.0
 30
0.0
 11
100.0
 21
120.0
 31
0.0
  0
LINE
  5
B6
330
B3
100
AcDbEntity
  8
SHAFT
  6
Continuous
 62
     7
100
AcDbLine
 10
190.0
 20
10.0
 30
0.0
 11
190.0
 21
110.0
 31
0.0
  0
LINE
  5
B7
330
B3
100
AcDbEntity
  8
SHAFT
  6
Continuous
 62
     7
100
AcDbLine
 10
200.0
 20
100.0
 30
0.0
 11
200.0
 21
20.0
 31
0.0
  0
LINE
  5
B8
330
B3
100
AcDbEntity
  8
SHAFT
  6
Continuous
 62
     7
100
AcDbLine
 10
0.0
 20
0.0
 30
0.0
 11
100.0
 21
0.0
 31
0.0
  0
LINE
  5
B9
330
B3
100
AcDbEntity
  8
SHAFT
  6
Continuous
 62
     7
100
AcDbLine
 10
100.0
 20
120.0
 30
0.0
 11
0.0
 21
120.0
 31
0.0
  0
LINE
  5
BA
330
B3
100
AcDbEntity
  8
SHAFT
  6
Continuous
 62
     7
100
AcDbLine
 10
100.0
 20
10.0
 30
0.0
 11
190.0
 21
10.0
 31
0.0
  0
LINE
  5
BB
330
B3
100
AcDbEntity
  8
SHAFT
  6
Continuous
 62
     7
100
AcDbLine
 10
190.0
 20
110.0
 30
0.0
 11
100.0
 21
110.0
 31
0.0
  0
LINE
  5
BC
330
B3
100
AcDbEntity
  8
SHAFT
  6
Continuous
 62
     7
100
AcDbLine
 10
190.0
 20
10.0
 30
0.0
 11
200.0
 21
20.0
 31
0.0
  0
LINE
  5
BD
330
B3
100
AcDbEntity
  8
SHAFT
  6
Continuous
 62
     7
100
AcDbLine
 10
200.0
 20
100.0
 30
0.0
 11
190.0
 21
110.0
 31
0.0
  0
LINE
  5
BE
330
B3
100
AcDbEntity
  8
SHAFT
  6
DOT2
 62
     7
100
AcDbLine
 10
200.0
 20
95.0
 30
0.0
 11
100.0
 21
95.0
 31
0.0
  0
LINE
  5
BF
330
B3
100
AcDbEntity
  8
SHAFT
  6
DOT2
 62
     7
100
AcDbLine
 10
100.0
 20
25.0
 30
0.0
 11
200.0
 21
25.0
 31
0.0
  0
LINE
  5
C0
330
B3
100
AcDbEntity
  8
SHAFT
  6
DOT2
 62
     7
100
AcDbLine
 10
100.0
 20
90.0
 30
0.0
 11
0.0
 21
90.0
 31
0.0
  0
LINE
  5
C1
330
B3
100
AcDbEntity
  8
SHAFT
  6
DOT2
 62
     7
100
AcDbLine
 10
0.0
 20
30.0
 30
0.0
 11
100.0
 21
30.0
 31
0.0
  0
ENDBLK
  5
C3
330
B3
100
AcDbEntity
  8
0
100
AcDbBlockEnd
  0
BLOCK
  5
D4
330
C5
100
AcDbEntity
  8
0
100
AcDbBlockBegin
  2
SE1
 70
     0
 10
0.0
 20
0.0
 30
0.0
  3
SE1
  1

  0
LINE
  5
C6
330
C5
100
AcDbEntity
  8
SHAFT
  6
Continuous
 62
     7
100
AcDbLine
 10
0.0
 20
0.0
 30
0.0
 11
0.0
 21
120.0
 31
0.0
  0
LINE
  5
C7
330
C5
100
AcDbEntity
  8
SHAFT
  6
Continuous
 62
     7
100
AcDbLine
 10
100.0
 20
0.0
 30
0.0
 11
100.0
 21
120.0
 31
0.0
  0
LINE
  5
C8
330
C5
100
AcDbEntity
  8
SHAFT
  6
Continuous
 62
     7
100
AcDbLine
 10
190.0
 20
10.0
 30
0.0
 11
190.0
 21
110.0
 31
0.0
  0
LINE
  5
C9
330
C5
100
AcDbEntity
  8
SHAFT
  6
Continuous
 62
     7
100
AcDbLine
 10
200.0
 20
20.0
 30
0.0
 11
200.0
 21
100.0
 31
0.0
  0
LINE
  5
CA
330
C5
100
AcDbEntity
  8
SHAFT
  6
Continuous
 62
     7
100
AcDbLine
 10
0.0
 20
0.0
 30
0.0
 11
100.0
 21
0.0
 31
0.0
  0
LINE
  5
CB
330
C5
100
AcDbEntity
  8
SHAFT
  6
Continuous
 62
     7
100
AcDbLine
 10
100.0
 20
120.0
 30
0.0
 11
0.0
 21
120.0
 31
0.0
  0
LINE
  5
CC
330
C5
100
AcDbEntity
  8
SHAFT
  6
Continuous
 62
     7
100
AcDbLine
 10
100.0
 20
10.0
 30
0.0
 11
190.0
 21
10.0
 31
0.0
  0
LINE
  5
CD
330
C5
100
AcDbEntity
  8
SHAFT
  6
Continuous
 62
     7
100
AcDbLine
 10
190.0
 20
110.0
 30
0.0
 11
100.0
 21
110.0
 31
0.0
  0
LINE
  5
CE
330
C5
100
AcDbEntity
  8
SHAFT
  6
Continuous
 62
     7
100
AcDbLine
 10
190.0
 20
10.0
 30
0.0
 11
200.0
 21
20.0
 31
0.0
  0
LINE
  5
CF
330
C5
100
AcDbEntity
  8
SHAFT
  6
Continuous
 62
     7
100
AcDbLine
 10
200.0
 20
100.0
 30
0.0
 11
190.0
 21
110.0
 31
0.0
  0
LINE
  5
D0
330
C5
100
AcDbEntity
  8
SHAFT
  6
DOT2
 62
     7
100
AcDbLine
 10
200.0
 20
95.0
 30
0.0
 11
100.0
 21
95.0
 31
0.0
  0
LINE
  5
D1
330
C5
100
AcDbEntity
  8
SHAFT
  6
DOT2
 62
     7
100
AcDbLine
 10
100.0
 20
25.0
 30
0.0
 11
200.0
 21
25.0
 31
0.0
  0
LINE
  5
D2
330
C5
100
AcDbEntity
  8
SHAFT
  6
DOT2
 62
     7
100
AcDbLine
 10
100.0
 20
90.0
 30
0.0
 11
0.0
 21
90.0
 31
0.0
  0
LINE
  5
D3
330
C5
100
AcDbEntity
  8
SHAFT
  6
DOT2
 62
     7
100
AcDbLine
 10
0.0
 20
30.0
 30
0.0
 11
100.0
 21
30.0
 31
0.0
  0
ENDBLK
  5
D5
330
C5
100
AcDbEntity
  8
0
100
AcDbBlockEnd
  0
BLOCK
  5
DD
330
D7
100
AcDbEntity
  8
0
100
AcDbBlockBegin
  2
SE2
 70
     0
 10
0.0
 20
0.0
 30
0.0
  3
SE2
  1

  0
CIRCLE
  5
D8
330
D7
100
AcDbEntity
  8
SHAFT
  6
Continuous
 62
     7
100
AcDbCircle
 10
60.0
 20
60.0
 30
0.0
 40
59.99999999999988
  0
CIRCLE
  5
D9
330
D7
100
AcDbEntity
  8
SHAFT
  6
DOT2
 62
     7
100
AcDbCircle
 10
60.0
 20
60.0
 30
0.0
 40
49.99999999999982
  0
CIRCLE
  5
DA
330
D7
100
AcDbEntity
  8
SHAFT
  6
DOT2
 62
     7
100
AcDbCircle
 10
60.0
 20
60.0
 30
0.0
 40
39.99999999999988
  0
CIRCLE
  5
DB
330
D7
100
AcDbEntity
  8
SHAFT
  6
DOT2
 62
     7
100
AcDbCircle
 10
60.0
 20
60.0
 30
0.0
 40
34.99999999999999
  0
CIRCLE
  5
DC
330
D7
100
AcDbEntity
  8
SHAFT
  6
Continuous
 62
     7
100
AcDbCircle
 10
60.0
 20
60.0
 30
0.0
 40
30.0
  0
ENDBLK
  5
DE
330
D7
100
AcDbEntity
  8
0
100
AcDbBlockEnd
  0
BLOCK
  5
E3
330
E0
100
AcDbEntity
  8
0
100
AcDbBlockBegin
  2
_SE_FILLED
 70
     0
 10
0.0
 20
0.0
 30
0.0
  3
_SE_FILLED
  1

  0
SOLID
  5
E1
330
E0
100
AcDbEntity
  8
0
 62
     0
100
AcDbTrace
 10
0.0
 20
0.0
 30
0.0
 11
-1.0
 21
-0.1665
 31
0.0
 12
-1.0
 22
0.1665
 32
0.0
 13
0.0
 23
0.0
 33
0.0
  0
LINE
  5
E2
330
E0
100
AcDbEntity
  8
0
 62
     0
100
AcDbLine
 10
0.0
 20
0.0
 30
0.0
 11
-1.0
 21
0.0
 31
0.0
  0
ENDBLK
  5
E4
330
E0
100
AcDbEntity
  8
0
100
AcDbBlockEnd
  0
BLOCK
  5
E7
330
E6
100
AcDbEntity
  8
0
100
AcDbBlockBegin
  2
_OBLIQUE
 70
     0
 10
0.0
 20
0.0
 30
0.0
  3
_OBLIQUE
  1

  0
LINE
  5
E9
330
E6
100
AcDbEntity
  8
0
  6
ByBlock
 62
     0
370
    -2
100
AcDbLine
 10
-0.5
 20
-0.5
 30
0.0
 11
0.5
 21
0.5
 31
0.0
  0
ENDBLK
  5
E8
330
E6
100
AcDbEntity
  8
0
100
AcDbBlockEnd
  0
BLOCK
  5
EB
330
EA
100
AcDbEntity
  8
0
100
AcDbBlockBegin
  2
_DOT
 70
     0
 10
0.0
 20
0.0
 30
0.0
  3
_DOT
  1

  0
POLYLINE
  5
ED
330
EA
100
AcDbEntity
  8
0
  6
ByBlock
 62
     0
100
AcDb2dPolyline
 66
     1
 10
0.0
 20
0.0
 30
0.0
 70
     1
 40
0.5
 41
0.5
  0
VERTEX
  5
EF
330
ED
100
AcDbEntity
  8
0
  6
ByBlock
 62
     0
100
AcDbVertex
100
AcDb2dVertex
 10
-0.25
 20
0.0
 30
0.0
 42
1.0
  0
VERTEX
  5
F0
330
ED
100
AcDbEntity
  8
0
  6
ByBlock
 62
     0
100
AcDbVertex
100
AcDb2dVertex
 10
0.25
 20
0.0
 30
0.0
 42
1.0
  0
SEQEND
  5
F1
330
ED
100
AcDbEntity
  8
0
  6
ByBlock
 62
     0
  0
LINE
  5
EE
330
EA
100
AcDbEntity
  8
0
  6
ByBlock
 62
     0
370
    -2
100
AcDbLine
 10
-0.5
 20
0.0
 30
0.0
 11
-1.0
 21
0.0
 31
0.0
  0
ENDBLK
  5
EC
330
EA
100
AcDbEntity
  8
0
100
AcDbBlockEnd
  0
BLOCK
  5
FA
330
F3
100
AcDbEntity
  8
0
100
AcDbBlockBegin
  2
DMBLK1
 70
     0
 10
0.0
 20
0.0
 30
0.0
  3
DMBLK1
  1

  0
HATCH
  5
F4
330
F3
100
AcDbEntity
  8
Default
  6
Continuous
 62
     7
100
AcDbHatch
 10
0.0
 20
0.0
 30
0.0
210
0.0
220
0.0
230
1.0
  2
SOLID
 70
     1
 71
     0
 91
        1
 92
        1
 93
        3
 72
     1
 10
218.6916693436319
 20
269.4335773813601
 11
222.191669338
 21
270.0169107137548
 72
     1
 10
222.191669338
 20
270.0169107137548
 11
218.6916693436319
 21
270.6002440461495
 72
     1
 10
218.6916693436319
 20
270.6002440461494
 11
218.6916693436319
 21
269.4335773813601
 97
        0
 75
     0
 76
     1
 98
        0
  0
HATCH
  5
F5
330
F3
100
AcDbEntity
  8
Default
  6
Continuous
 62
     7
100
AcDbHatch
 10
0.0
 20
0.0
 30
0.0
210
0.0
220
0.0
230
1.0
  2
SOLID
 70
     1
 71
     0
 91
        1
 92
        1
 93
        3
 72
     1
 10
215.6916690132251
 20
269.4335773813601
 11
215.6916690132251
 21
270.6002440461494
 72
     1
 10
215.6916690132251
 20
270.6002440461494
 11
212.191669018857
 21
270.0169107137547
 72
     1
 10
212.191669018857
 20
270.0169107137548
 11
215.6916690132251
 21
269.4335773813601
 97
        0
 75
     0
 76
     1
 98
        0
  0
LINE
  5
F6
330
F3
100
AcDbEntity
  8
Default
  6
Continuous
 62
     7
100
AcDbLine
 10
222.191669338
 20
301.6169086012
 30
0.0
 11
222.191669338
 21
268.2669107166
 31
0.0
  0
LINE
  5
F7
330
F3
100
AcDbEntity
  8
Default
  6
Continuous
 62
     7
100
AcDbLine
 10
212.191669338
 20
291.6169086012
 30
0.0
 11
212.191669338
 21
268.2669107166
 31
0.0
  0
LINE
  5
F8
330
F3
100
AcDbEntity
  8
Default
  6
Continuous
 62
     7
100
AcDbLine
 10
222.191669338
 20
270.0169107138
 30
0.0
 11
212.1916690189
 21
270.0169107138
 31
0.0
  0
TEXT
  5
F9
330
F3
100
AcDbEntity
  8
Default
  6
Continuous
 62
     7
100
AcDbText
 10
216.4757600875
 20
270.8919107138
 30
0.0
 40
3.5
  1
1
  7
SEACAD_Solid_Edge_ISO
 11
216.4757600875
 21
274.3919107138
 31
0.0
100
AcDbText
 73
     3
  0
ENDBLK
  5
FB
330
F3
100
AcDbEntity
  8
0
100
AcDbBlockEnd
  0
BLOCK
  5
104
330
FD
100
AcDbEntity
  8
0
100
AcDbBlockBegin
  2
DMBLK2
 70
     0
 10
0.0
 20
0.0
 30
0.0
  3
DMBLK2
  1

  0
HATCH
  5
FE
330
FD
100
AcDbEntity
  8
Default
  6
Continuous
 62
     7
100
AcDbHatch
 10
0.0
 20
0.0
 30
0.0
210
0.0
220
0.0
230
1.0
  2
SOLID
 70
     1
 71
     0
 91
        1
 92
        1
 93
        3
 72
     1
 10
125.6916693323681
 20
262.4335737130931
 11
125.6916693323681
 21
263.6002403778825
 72
     1
 10
125.6916693323681
 20
263.6002403778825
 11
122.191669338
 21
263.0169070454878
 72
     1
 10
122.191669338
 20
263.0169070454878
 11
125.6916693323681
 21
262.4335737130931
 97
        0
 75
     0
 76
     1
 98
        0
  0
HATCH
  5
FF
330
FD
100
AcDbEntity
  8
Default
  6
Continuous
 62
     7
100
AcDbHatch
 10
0.0
 20
0.0
 30
0.0
210
0.0
220
0.0
230
1.0
  2
SOLID
 70
     1
 71
     0
 91
        1
 92
        1
 93
        3
 72
     1
 10
218.6916678417826
 20
262.4335737130931
 11
222.1916678361507
 21
263.0169070454878
 72
     1
 10
222.1916678361507
 20
263.0169070454878
 11
218.6916678417826
 21
263.6002403778825
 72
     1
 10
218.6916678417826
 20
263.6002403778825
 11
218.6916678417826
 21
262.4335737130931
 97
        0
 75
     0
 76
     1
 98
        0
  0
LINE
  5
100
330
FD
100
AcDbEntity
  8
Default
  6
Continuous
 62
     7
100
AcDbLine
 10
122.191669338
 20
306.6169086012
 30
0.0
 11
122.191669338
 21
261.2669070483
 31
0.0
  0
LINE
  5
101
330
FD
100
AcDbEntity
  8
Default
  6
Continuous
 62
     7
100
AcDbLine
 10
222.191669338
 20
306.6169086012
 30
0.0
 11
222.191669338
 21
261.2669070483
 31
0.0
  0
LINE
  5
102
330
FD
100
AcDbEntity
  8
Default
  6
Continuous
 62
     7
100
AcDbLine
 10
122.191669338
 20
263.0169070455
 30
0.0
 11
222.1916678362
 21
263.0169070455
 31
0.0
  0
TEXT
  5
103
330
FD
100
AcDbEntity
  8
Default
  6
Continuous
 62
     7
100
AcDbText
 10
170.4416685871
 20
263.8919070455
 30
0.0
 40
3.5
  1
10
  7
SEACAD_Solid_Edge_ISO
 11
170.4416685871
 21
267.3919070455
 31
0.0
100
AcDbText
 73
     3
  0
ENDBLK
  5
105
330
FD
100
AcDbEntity
  8
0
100
AcDbBlockEnd
  0
BLOCK
  5
10D
330
107
100
AcDbEntity
  8
0
100
AcDbBlockBegin
  2
DMBLK3
 70
     0
 10
0.0
 20
0.0
 30
0.0
  3
DMBLK3
  1

  0
HATCH
  5
108
330
107
100
AcDbEntity
  8
Default
  6
Continuous
 62
     7
100
AcDbHatch
 10
0.0
 20
0.0
 30
0.0
210
0.0
220
0.0
230
1.0
  2
SOLID
 70
     1
 71
     0
 91
        1
 92
        1
 93
        3
 72
     1
 10
370.3192606624
 20
342.2760137461503
 11
373.8192606057721
 21
342.8593473845207
 72
     1
 10
373.8192606057721
 20
342.8593473845207
 11
370.319260560408
 21
343.4426804109396
 72
     1
 10
370.319260560408
 20
343.4426804109396
 11
370.3192606624
 21
342.2760137461503
 97
        0
 75
     0
 76
     1
 98
        0
  0
HATCH
  5
109
330
107
100
AcDbEntity
  8
Default
  6
Continuous
 62
     7
100
AcDbHatch
 10
0.0
 20
0.0
 30
0.0
210
0.0
220
0.0
230
1.0
  2
SOLID
 70
     1
 71
     0
 91
        1
 92
        1
 93
        3
 72
     1
 10
317.3192606511361
 20
342.2760091128026
 11
317.3192605491441
 21
343.4426757775919
 72
     1
 10
317.3192605491441
 20
343.4426757775919
 11
313.8192606057721
 21
342.8593421392215
 72
     1
 10
313.8192606057721
 20
342.8593421392215
 11
317.3192606511361
 21
342.2760091128026
 97
        0
 75
     0
 76
     1
 98
        0
  0
LINE
  5
10A
330
107
100
AcDbEntity
  8
Default
  6
Continuous
 62
     7
100
AcDbLine
 10
373.8192606058
 20
342.8593473845
 30
0.0
 11
346.1181239717
 21
342.8593449628
 31
0.0
  0
LINE
  5
10B
330
107
100
AcDbEntity
  8
Default
  6
Continuous
 62
     7
100
AcDbLine
 10
341.5203948932
 20
342.8593445609
 30
0.0
 11
313.8192606058
 21
342.8593421392
 31
0.0
  0
TEXT
  5
10C
330
107
100
AcDbEntity
  8
Default
  6
Continuous
 62
     7
100
AcDbText
 10
342.745396012
 20
341.1093447619
 30
0.0
 40
3.5
  1
6
  7
SEACAD_Solid_Edge_ISO
 11
342.745396012
 21
344.6093447619
 31
0.0
100
AcDbText
 73
     3
  0
ENDBLK
  5
10E
330
107
100
AcDbEntity
  8
0
100
AcDbBlockEnd
  0
BLOCK
  5
118
330
110
100
AcDbEntity
  8
0
100
AcDbBlockBegin
  2
DMBLK4
 70
     0
 10
0.0
 20
0.0
 30
0.0
  3
DMBLK4
  1

  0
HATCH
  5
111
330
110
100
AcDbEntity
  8
Default
  6
Continuous
 62
     7
100
AcDbHatch
 10
0.0
 20
0.0
 30
0.0
210
0.0
220
0.0
230
1.0
  2
SOLID
 70
     1
 71
     0
 91
        1
 92
        1
 93
        3
 72
     1
 10
312.319260555768
 20
262.5895243945242
 11
312.319260555768
 21
263.7561910593136
 72
     1
 10
312.319260555768
 20
263.7561910593136
 11
308.8192605614
 21
263.1728577269189
 72
     1
 10
308.8192605614
 20
263.1728577269189
 11
312.319260555768
 21
262.5895243945242
 97
        0
 75
     0
 76
     1
 98
        0
  0
HATCH
  5
112
330
110
100
AcDbEntity
  8
Default
  6
Continuous
 62
     7
100
AcDbHatch
 10
0.0
 20
0.0
 30
0.0
210
0.0
220
0.0
230
1.0
  2
SOLID
 70
     1
 71
     0
 91
        1
 92
        1
 93
        3
 72
     1
 10
375.3192605670319
 20
262.5895243945242
 11
378.8192605614
 21
263.1728577269189
 72
     1
 10
378.8192605613999
 20
263.1728577269189
 11
375.3192605670318
 21
263.7561910593136
 72
     1
 10
375.3192605670319
 20
263.7561910593136
 11
375.3192605670319
 21
262.5895243945242
 97
        0
 75
     0
 76
     1
 98
        0
  0
LINE
  5
113
330
110
100
AcDbEntity
  8
Default
  6
Continuous
 62
     7
100
AcDbLine
 10
308.8192605614
 20
341.6169086012
 30
0.0
 11
308.8192605614
 21
261.4228577297
 31
0.0
  0
LINE
  5
114
330
110
100
AcDbEntity
  8
Default
  6
Continuous
 62
     7
100
AcDbLine
 10
378.8192605614
 20
341.6169086012
 30
0.0
 11
378.8192605614
 21
261.4228577297
 31
0.0
  0
LINE
  5
115
330
110
100
AcDbEntity
  8
Default
  6
Continuous
 62
     7
100
AcDbLine
 10
308.8192605614
 20
263.1728577269
 30
0.0
 11
341.4806229879
 21
263.1728577269
 31
0.0
  0
LINE
  5
116
330
110
100
AcDbEntity
  8
Default
  6
Continuous
 62
     7
100
AcDbLine
 10
346.1578957883
 20
263.1728577269
 30
0.0
 11
378.8192605614
 21
263.1728577269
 31
0.0
  0
TEXT
  5
117
330
110
100
AcDbEntity
  8
Default
  6
Continuous
 62
     7
100
AcDbText
 10
342.7056241414
 20
261.4228577269
 30
0.0
 40
3.5
  1
7
  7
SEACAD_Solid_Edge_ISO
 11
342.7056241414
 21
264.9228577269
 31
0.0
100
AcDbText
 73
     3
  0
ENDBLK
  5
119
330
110
100
AcDbEntity
  8
0
100
AcDbBlockEnd
  0
BLOCK
  5
123
330
11B
100
AcDbEntity
  8
0
100
AcDbBlockBegin
  2
DMBLK5
 70
     0
 10
0.0
 20
0.0
 30
0.0
  3
DMBLK5
  1

  0
HATCH
  5
11C
330
11B
100
AcDbEntity
  8
Default
  6
Continuous
 62
     7
100
AcDbHatch
 10
0.0
 20
0.0
 30
0.0
210
0.0
220
0.0
230
1.0
  2
SOLID
 70
     1
 71
     0
 91
        1
 92
        1
 93
        3
 72
     1
 10
297.319260555768
 20
254.1296541236675
 11
297.319260555768
 21
255.2963207884569
 72
     1
 10
297.319260555768
 20
255.2963207884569
 11
293.8192605614
 21
254.7129874560622
 72
     1
 10
293.8192605614
 20
254.7129874560622
 11
297.319260555768
 21
254.1296541236675
 97
        0
 75
     0
 76
     1
 98
        0
  0
HATCH
  5
11D
330
11B
100
AcDbEntity
  8
Default
  6
Continuous
 62
     7
100
AcDbHatch
 10
0.0
 20
0.0
 30
0.0
210
0.0
220
0.0
230
1.0
  2
SOLID
 70
     1
 71
     0
 91
        1
 92
        1
 93
        3
 72
     1
 10
390.3192605670319
 20
254.1296541236675
 11
393.8192605614
 21
254.7129874560622
 72
     1
 10
393.8192605614
 20
254.7129874560622
 11
390.3192605670319
 21
255.2963207884569
 72
     1
 10
390.3192605670319
 20
255.2963207884569
 11
390.3192605670319
 21
254.1296541236675
 97
        0
 75
     0
 76
     1
 98
        0
  0
LINE
  5
11E
330
11B
100
AcDbEntity
  8
Default
  6
Continuous
 62
     7
100
AcDbLine
 10
293.8192605614
 20
341.6169086012
 30
0.0
 11
293.8192605614
 21
252.9629874589
 31
0.0
  0
LINE
  5
11F
330
11B
100
AcDbEntity
  8
Default
  6
Continuous
 62
     7
100
AcDbLine
 10
393.8192605614
 20
341.6169086012
 30
0.0
 11
393.8192605614
 21
252.9629874589
 31
0.0
  0
LINE
  5
120
330
11B
100
AcDbEntity
  8
Default
  6
Continuous
 62
     7
100
AcDbLine
 10
293.8192605614
 20
254.7129874561
 30
0.0
 11
340.8442605779
 21
254.7129874561
 31
0.0
  0
LINE
  5
121
330
11B
100
AcDbEntity
  8
Default
  6
Continuous
 62
     7
100
AcDbLine
 10
346.7942605449
 20
254.7129874561
 30
0.0
 11
393.8192605614
 21
254.7129874561
 31
0.0
  0
TEXT
  5
122
330
11B
100
AcDbEntity
  8
Default
  6
Continuous
 62
     7
100
AcDbText
 10
342.0692598105
 20
252.9629874561
 30
0.0
 40
3.5
  1
10
  7
SEACAD_Solid_Edge_ISO
 11
342.0692598105
 21
256.4629874561
 31
0.0
100
AcDbText
 73
     3
  0
ENDBLK
  5
124
330
11B
100
AcDbEntity
  8
0
100
AcDbBlockEnd
  0
BLOCK
  5
12E
330
126
100
AcDbEntity
  8
0
100
AcDbBlockBegin
  2
DMBLK6
 70
     0
 10
0.0
 20
0.0
 30
0.0
  3
DMBLK6
  1

  0
HATCH
  5
127
330
126
100
AcDbEntity
  8
Default
  6
Continuous
 62
     7
100
AcDbHatch
 10
0.0
 20
0.0
 30
0.0
210
0.0
220
0.0
230
1.0
  2
SOLID
 70
     1
 71
     0
 91
        1
 92
        1
 93
        3
 72
     1
 10
287.319260555768
 20
245.942688646858
 11
287.319260555768
 21
247.1093553116473
 72
     1
 10
287.319260555768
 20
247.1093553116473
 11
283.8192605614
 21
246.5260219792526
 72
     1
 10
283.8192605614
 20
246.5260219792526
 11
287.319260555768
 21
245.942688646858
 97
        0
 75
     0
 76
     1
 98
        0
  0
HATCH
  5
128
330
126
100
AcDbEntity
  8
Default
  6
Continuous
 62
     7
100
AcDbHatch
 10
0.0
 20
0.0
 30
0.0
210
0.0
220
0.0
230
1.0
  2
SOLID
 70
     1
 71
     0
 91
        1
 92
        1
 93
        3
 72
     1
 10
400.3192605670318
 20
245.942688646858
 11
403.8192605613999
 21
246.5260219792526
 72
     1
 10
403.8192605613999
 20
246.5260219792526
 11
400.3192605670318
 21
247.1093553116473
 72
     1
 10
400.3192605670318
 20
247.1093553116473
 11
400.3192605670318
 21
245.942688646858
 97
        0
 75
     0
 76
     1
 98
        0
  0
LINE
  5
129
330
126
100
AcDbEntity
  8
Default
  6
Continuous
 62
     7
100
AcDbLine
 10
283.8192605614
 20
341.6169086012
 30
0.0
 11
283.8192605614
 21
244.7760219821
 31
0.0
  0
LINE
  5
12A
330
126
100
AcDbEntity
  8
Default
  6
Continuous
 62
     7
100
AcDbLine
 10
403.8192605614
 20
341.6169086012
 30
0.0
 11
403.8192605614
 21
244.7760219821
 31
0.0
  0
LINE
  5
12B
330
126
100
AcDbEntity
  8
Default
  6
Continuous
 62
     7
100
AcDbLine
 10
283.8192605614
 20
246.5260219793
 30
0.0
 11
340.8044877032
 21
246.5260219793
 31
0.0
  0
LINE
  5
12C
330
126
100
AcDbEntity
  8
Default
  6
Continuous
 62
     7
100
AcDbLine
 10
346.8340334196
 20
246.5260219793
 30
0.0
 11
403.8192605614
 21
246.5260219793
 31
0.0
  0
TEXT
  5
12D
330
126
100
AcDbEntity
  8
Default
  6
Continuous
 62
     7
100
AcDbText
 10
342.029489749
 20
244.7760219793
 30
0.0
 40
3.5
  1
12
  7
SEACAD_Solid_Edge_ISO
 11
342.029489749
 21
248.2760219793
 31
0.0
100
AcDbText
 73
     3
  0
ENDBLK
  5
12F
330
126
100
AcDbEntity
  8
0
100
AcDbBlockEnd
  0
BLOCK
  5
138
330
131
100
AcDbEntity
  8
0
100
AcDbBlockBegin
  2
DMBLK7
 70
     0
 10
0.0
 20
0.0
 30
0.0
  3
DMBLK7
  1

  0
HATCH
  5
132
330
131
100
AcDbEntity
  8
Default
  6
Continuous
 62
     7
100
AcDbHatch
 10
0.0
 20
0.0
 30
0.0
210
0.0
220
0.0
230
1.0
  2
SOLID
 70
     1
 71
     0
 91
        1
 92
        1
 93
        3
 72
     1
 10
218.6916693436319
 20
87.80598722802772
 11
222.191669338
 21
88.38932056042239
 72
     1
 10
222.191669338
 20
88.38932056042239
 11
218.6916693436319
 21
88.97265389281706
 72
     1
 10
218.6916693436319
 20
88.97265389281706
 11
218.6916693436319
 21
87.80598722802772
 97
        0
 75
     0
 76
     1
 98
        0
  0
HATCH
  5
133
330
131
100
AcDbEntity
  8
Default
  6
Continuous
 62
     7
100
AcDbHatch
 10
0.0
 20
0.0
 30
0.0
210
0.0
220
0.0
230
1.0
  2
SOLID
 70
     1
 71
     0
 91
        1
 92
        1
 93
        3
 72
     1
 10
125.6916708342174
 20
87.80598722802775
 11
125.6916708342174
 21
88.97265389281709
 72
     1
 10
125.6916708342174
 20
88.97265389281708
 11
122.1916708398493
 21
88.3893205604224
 72
     1
 10
122.1916708398493
 20
88.38932056042242
 11
125.6916708342174
 21
87.80598722802775
 97
        0
 75
     0
 76
     1
 98
        0
  0
LINE
  5
134
330
131
100
AcDbEntity
  8
Default
  6
Continuous
 62
     7
100
AcDbLine
 10
222.191669338
 20
159.9893173778
 30
0.0
 11
222.191669338
 21
86.6393205632
 31
0.0
  0
LINE
  5
135
330
131
100
AcDbEntity
  8
Default
  6
Continuous
 62
     7
100
AcDbLine
 10
122.191669338
 20
159.9893173778
 30
0.0
 11
122.191669338
 21
86.6393205632
 31
0.0
  0
LINE
  5
136
330
131
100
AcDbEntity
  8
Default
  6
Continuous
 62
     7
100
AcDbLine
 10
222.191669338
 20
88.3893205604
 30
0.0
 11
122.1916708398
 21
88.3893205604
 31
0.0
  0
TEXT
  5
137
330
131
100
AcDbEntity
  8
Default
  6
Continuous
 62
     7
100
AcDbText
 10
170.4416700889
 20
89.2643205604
 30
0.0
 40
3.5
  1
10
  7
SEACAD_Solid_Edge_ISO
 11
170.4416700889
 21
92.7643205604
 31
0.0
100
AcDbText
 73
     3
  0
ENDBLK
  5
139
330
131
100
AcDbEntity
  8
0
100
AcDbBlockEnd
  0
BLOCK
  5
142
330
13B
100
AcDbEntity
  8
0
100
AcDbBlockBegin
  2
DMBLK8
 70
     0
 10
0.0
 20
0.0
 30
0.0
  3
DMBLK8
  1

  0
HATCH
  5
13C
330
13B
100
AcDbEntity
  8
Default
  6
Continuous
 62
     7
100
AcDbHatch
 10
0.0
 20
0.0
 30
0.0
210
0.0
220
0.0
230
1.0
  2
SOLID
 70
     1
 71
     0
 91
        1
 92
        1
 93
        3
 72
     1
 10
25.69166933236806
 20
87.80598722802772
 11
25.69166933236806
 21
88.97265389281706
 72
     1
 10
25.69166933236806
 20
88.97265389281706
 11
22.191669338
 21
88.38932056042239
 72
     1
 10
22.191669338
 20
88.38932056042239
 11
25.69166933236806
 21
87.80598722802772
 97
        0
 75
     0
 76
     1
 98
        0
  0
HATCH
  5
13D
330
13B
100
AcDbEntity
  8
Default
  6
Continuous
 62
     7
100
AcDbHatch
 10
0.0
 20
0.0
 30
0.0
210
0.0
220
0.0
230
1.0
  2
SOLID
 70
     1
 71
     0
 91
        1
 92
        1
 93
        3
 72
     1
 10
118.6916678417826
 20
87.80598722802772
 11
122.1916678361507
 21
88.38932056042239
 72
     1
 10
122.1916678361507
 20
88.38932056042239
 11
118.6916678417826
 21
88.97265389281706
 72
     1
 10
118.6916678417826
 20
88.97265389281706
 11
118.6916678417826
 21
87.80598722802772
 97
        0
 75
     0
 76
     1
 98
        0
  0
LINE
  5
13E
330
13B
100
AcDbEntity
  8
Default
  6
Continuous
 62
     7
100
AcDbLine
 10
22.191669338
 20
159.9893173778
 30
0.0
 11
22.191669338
 21
86.6393205632
 31
0.0
  0
LINE
  5
13F
330
13B
100
AcDbEntity
  8
Default
  6
Continuous
 62
     7
100
AcDbLine
 10
122.191669338
 20
159.9893173778
 30
0.0
 11
122.191669338
 21
86.6393205632
 31
0.0
  0
LINE
  5
140
330
13B
100
AcDbEntity
  8
Default
  6
Continuous
 62
     7
100
AcDbLine
 10
22.191669338
 20
88.3893205604
 30
0.0
 11
122.1916678362
 21
88.3893205604
 31
0.0
  0
TEXT
  5
141
330
13B
100
AcDbEntity
  8
Default
  6
Continuous
 62
     7
100
AcDbText
 10
70.4416685871
 20
89.2643205604
 30
0.0
 40
3.5
  1
10
  7
SEACAD_Solid_Edge_ISO
 11
70.4416685871
 21
92.7643205604
 31
0.0
100
AcDbText
 73
     3
  0
ENDBLK
  5
143
330
13B
100
AcDbEntity
  8
0
100
AcDbBlockEnd
  0
BLOCK
  5
14C
330
145
100
AcDbEntity
  8
0
100
AcDbBlockBegin
  2
DMBLK9
 70
     0
 10
0.0
 20
0.0
 30
0.0
  3
DMBLK9
  1

  0
HATCH
  5
146
330
145
100
AcDbEntity
  8
Default
  6
Continuous
 62
     7
100
AcDbHatch
 10
0.0
 20
0.0
 30
0.0
210
0.0
220
0.0
230
1.0
  2
SOLID
 70
     1
 71
     0
 91
        1
 92
        1
 93
        3
 72
     1
 10
238.0931868696904
 20
316.8669085927681
 11
236.926520204901
 21
316.8669085927681
 72
     1
 10
236.926520204901
 20
316.8669085927681
 11
237.5098535372957
 21
313.3669085984
 72
     1
 10
237.5098535372957
 20
313.3669085984
 11
238.0931868696904
 21
316.8669085927681
 97
        0
 75
     0
 76
     1
 98
        0
  0
HATCH
  5
147
330
145
100
AcDbEntity
  8
Default
  6
Continuous
 62
     7
100
AcDbHatch
 10
0.0
 20
0.0
 30
0.0
210
0.0
220
0.0
230
1.0
  2
SOLID
 70
     1
 71
     0
 91
        1
 92
        1
 93
        3
 72
     1
 10
238.0931868696904
 20
369.8669105188899
 11
237.5098535372957
 21
373.3669105132579
 72
     1
 10
237.5098535372957
 20
373.3669105132579
 11
236.926520204901
 21
369.8669105188899
 72
     1
 10
236.926520204901
 20
369.8669105188899
 11
238.0931868696904
 21
369.8669105188899
 97
        0
 75
     0
 76
     1
 98
        0
  0
LINE
  5
148
330
145
100
AcDbEntity
  8
Default
  6
Continuous
 62
     7
100
AcDbLine
 10
224.3315575608
 20
313.3669085984
 30
0.0
 11
239.2598535345
 21
313.3669085984
 31
0.0
  0
LINE
  5
149
330
145
100
AcDbEntity
  8
Default
  6
Continuous
 62
     7
100
AcDbLine
 10
223.9685519452
 20
373.3669085984
 30
0.0
 11
239.2598535345
 21
373.3669085984
 31
0.0
  0
LINE
  5
14A
330
145
100
AcDbEntity
  8
Default
  6
Continuous
 62
     7
100
AcDbLine
 10
237.5098535373
 20
313.3669085984
 30
0.0
 11
237.5098535373
 21
373.3669105133
 31
0.0
  0
TEXT
  5
14B
330
145
100
AcDbEntity
  8
Default
  6
Continuous
 62
     7
100
AcDbText
 10
236.6348535373
 20
342.2930459195
 30
0.0
 40
3.5
  1
6
 50
90.0
  7
SEACAD_Solid_Edge_ISO
 11
233.1348535373
 21
342.2930459195
 31
0.0
100
AcDbText
 73
     3
  0
ENDBLK
  5
14D
330
145
100
AcDbEntity
  8
0
100
AcDbBlockEnd
  0
BLOCK
  5
156
330
14F
100
AcDbEntity
  8
0
100
AcDbBlockBegin
  2
DMBLK10
 70
     0
 10
0.0
 20
0.0
 30
0.0
  3
DMBLK10
  1

  0
HATCH
  5
150
330
14F
100
AcDbEntity
  8
Default
  6
Continuous
 62
     7
100
AcDbHatch
 10
0.0
 20
0.0
 30
0.0
210
0.0
220
0.0
230
1.0
  2
SOLID
 70
     1
 71
     0
 91
        1
 92
        1
 93
        3
 72
     1
 10
253.2113518670915
 20
374.8669086040319
 11
252.6280185346968
 21
378.3669085984
 72
     1
 10
252.6280185346968
 20
378.3669085984
 11
252.0446852023022
 21
374.8669086040319
 72
     1
 10
252.0446852023022
 20
374.8669086040319
 11
253.2113518670915
 21
374.8669086040319
 97
        0
 75
     0
 76
     1
 98
        0
  0
HATCH
  5
151
330
14F
100
AcDbEntity
  8
Default
  6
Continuous
 62
     7
100
AcDbHatch
 10
0.0
 20
0.0
 30
0.0
210
0.0
220
0.0
230
1.0
  2
SOLID
 70
     1
 71
     0
 91
        1
 92
        1
 93
        3
 72
     1
 10
253.2113518670915
 20
311.8669087054067
 11
252.0446852023022
 21
311.8669087054067
 72
     1
 10
252.0446852023022
 20
311.8669087054067
 11
252.6280185346968
 21
308.3669087110387
 72
     1
 10
252.6280185346968
 20
308.3669087110387
 11
253.2113518670915
 21
311.8669087054067
 97
        0
 75
     0
 76
     1
 98
        0
  0
LINE
  5
152
330
14F
100
AcDbEntity
  8
Default
  6
Continuous
 62
     7
100
AcDbLine
 10
223.9416693352
 20
378.3669085984
 30
0.0
 11
254.3780185319
 21
378.3669085984
 31
0.0
  0
LINE
  5
153
330
14F
100
AcDbEntity
  8
Default
  6
Continuous
 62
     7
100
AcDbLine
 10
224.6817723012
 20
308.3669085984
 30
0.0
 11
254.3780185319
 21
308.3669085984
 31
0.0
  0
LINE
  5
154
330
14F
100
AcDbEntity
  8
Default
  6
Continuous
 62
     7
100
AcDbLine
 10
252.6280185347
 20
378.3669085984
 30
0.0
 11
252.6280185347
 21
308.366908711
 31
0.0
  0
TEXT
  5
155
330
14F
100
AcDbEntity
  8
Default
  6
Continuous
 62
     7
100
AcDbText
 10
251.7530185347
 20
342.2532722911
 30
0.0
 40
3.5
  1
7
 50
90.0
  7
SEACAD_Solid_Edge_ISO
 11
248.2530185347
 21
342.2532722911
 31
0.0
100
AcDbText
 73
     3
  0
ENDBLK
  5
157
330
14F
100
AcDbEntity
  8
0
100
AcDbBlockEnd
  0
BLOCK
  5
15A
330
158
100
AcDbEntity
  8
0
100
AcDbBlockBegin
  2
SEANNOT_GROUP
 70
     0
 10
0.0
 20
0.0
 30
0.0
  3
SEANNOT_GROUP
  1

  0
TEXT
  5
159
330
158
100
AcDbEntity
  8
Default
  6
Continuous
 62
     7
100
AcDbText
 10
464.874
 20
50.7035
 30
0.0
 40
3.048
  1
Obi
  7
SEACAD_Solid_Edge_ISO
 11
464.874
 21
53.7515
 31
0.0
100
AcDbText
 73
     3
  0
ENDBLK
  5
15B
330
158
100
AcDbEntity
  8
0
100
AcDbBlockEnd
  0
BLOCK
  5
15F
330
15D
100
AcDbEntity
  8
0
100
AcDbBlockBegin
  2
SEANNOT_GROUP1
 70
     0
 10
0.0
 20
0.0
 30
0.0
  3
SEANNOT_GROUP1
  1

  0
TEXT
  5
15E
330
15D
100
AcDbEntity
  8
Default
  6
Continuous
 62
     7
100
AcDbText
 10
483.1454534548
 20
50.7035
 30
0.0
 40
3.048
  1
22/02/12
  7
SEACAD_Solid_Edge_ISO
 11
483.1454534548
 21
53.7515
 31
0.0
100
AcDbText
 73
     3
  0
ENDBLK
  5
160
330
15D
100
AcDbEntity
  8
0
100
AcDbBlockEnd
  0
BLOCK
  5
164
330
162
100
AcDbEntity
  8
0
100
AcDbBlockBegin
  2
SEANNOT_GROUP5
 70
     0
 10
0.0
 20
0.0
 30
0.0
  3
SEANNOT_GROUP5
  1

  0
TEXT
  5
163
330
162
100
AcDbEntity
  8
Default
  6
Continuous
 62
     7
100
AcDbText
 10
506.149
 20
18.001
 30
0.0
 40
3.048
  1
FILE NAME: Shaft
  7
SEACAD_Solid_Edge_ISO
 11
506.149
 21
21.049
 31
0.0
100
AcDbText
 73
     3
  0
ENDBLK
  5
165
330
162
100
AcDbEntity
  8
0
100
AcDbBlockEnd
  0
BLOCK
  5
169
330
167
100
AcDbEntity
  8
0
100
AcDbBlockBegin
  2
SEANNOT_GROUP6
 70
     0
 10
0.0
 20
0.0
 30
0.0
  3
SEANNOT_GROUP6
  1

  0
TEXT
  5
168
330
167
100
AcDbEntity
  8
Default
  6
Continuous
 62
     7
100
AcDbText
 10
553.774
 20
11.651
 30
0.0
 40
3.048
  1
SHEET 1 OF 1
  7
SEACAD_Solid_Edge_ISO
 11
553.774
 21
14.699
 31
0.0
100
AcDbText
 73
     3
  0
ENDBLK
  5
16A
330
167
100
AcDbEntity
  8
0
100
AcDbBlockEnd
  0
ENDSEC
  0
SECTION
  2
ENTITIES
  0
CIRCLE
  5
40
330
1F
100
AcDbEntity
  8
_Übersetzung
  6
Continuous
 62
     7
100
AcDbCircle
 10
222.191669338
 20
303.3669085984
 30
0.0
 40
0.0003937007874129
  0
CIRCLE
  5
41
330
1F
100
AcDbEntity
  8
_Übersetzung
  6
Continuous
 62
     7
100
AcDbCircle
 10
212.191669338
 20
293.3669085984
 30
0.0
 40
0.0003937007874129
  0
LINE
  5
42
330
1F
100
AcDbEntity
  8
_Übersetzung
  6
Continuous
 62
     7
100
AcDbLine
 10
222.191669338
 20
270.0169103031
 30
0.0
 11
212.191669338
 21
270.0169103031
 31
0.0
  0
CIRCLE
  5
43
330
1F
100
AcDbEntity
  8
_Übersetzung
  6
Continuous
 62
     7
100
AcDbCircle
 10
122.191669338
 20
308.3669085984
 30
0.0
 40
0.0003937007873986
  0
CIRCLE
  5
44
330
1F
100
AcDbEntity
  8
_Übersetzung
  6
Continuous
 62
     7
100
AcDbCircle
 10
222.191669338
 20
308.3669085984
 30
0.0
 40
0.0003937007874129
  0
LINE
  5
45
330
1F
100
AcDbEntity
  8
_Übersetzung
  6
Continuous
 62
     7
100
AcDbLine
 10
122.191669338
 20
263.0169083362
 30
0.0
 11
222.191669338
 21
263.0169083362
 31
0.0
  0
CIRCLE
  5
46
330
1F
100
AcDbEntity
  8
_Übersetzung
  6
Continuous
 62
     7
100
AcDbCircle
 10
373.8192605614
 20
343.3669112211
 30
0.0
 40
0.0003937007874129
  0
CIRCLE
  5
47
330
1F
100
AcDbEntity
  8
_Übersetzung
  6
Continuous
 62
     7
100
AcDbCircle
 10
313.8192605614
 20
343.3669059758
 30
0.0
 40
0.0003937007874129
  0
LINE
  5
48
330
1F
100
AcDbEntity
  8
_Übersetzung
  6
Continuous
 62
     7
100
AcDbLine
 10
373.819260561
 20
343.3710500759
 30
0.0
 11
313.819260561
 21
343.3710448306
 31
0.0
  0
CIRCLE
  5
49
330
1F
100
AcDbEntity
  8
_Übersetzung
  6
Continuous
 62
     7
100
AcDbCircle
 10
308.8192605614
 20
343.3669085984
 30
0.0
 40
0.0003937007874129
  0
CIRCLE
  5
4A
330
1F
100
AcDbEntity
  8
_Übersetzung
  6
Continuous
 62
     7
100
AcDbCircle
 10
378.8192605614
 20
343.3669085984
 30
0.0
 40
0.0003937007874129
  0
LINE
  5
4B
330
1F
100
AcDbEntity
  8
_Übersetzung
  6
Continuous
 62
     7
100
AcDbLine
 10
308.8192605614
 20
343.3640824824
 30
0.0
 11
378.8192605614
 21
343.3640824824
 31
0.0
  0
CIRCLE
  5
4C
330
1F
100
AcDbEntity
  8
_Übersetzung
  6
Continuous
 62
     7
100
AcDbCircle
 10
293.8192605614
 20
343.3669085984
 30
0.0
 40
0.0003937007874129
  0
CIRCLE
  5
4D
330
1F
100
AcDbEntity
  8
_Übersetzung
  6
Continuous
 62
     7
100
AcDbCircle
 10
393.8192605614
 20
343.3669085984
 30
0.0
 40
0.0003937007874129
  0
LINE
  5
4E
330
1F
100
AcDbEntity
  8
_Übersetzung
  6
Continuous
 62
     7
100
AcDbLine
 10
293.8192605614
 20
343.3628336957
 30
0.0
 11
393.8192605614
 21
343.3628336957
 31
0.0
  0
CIRCLE
  5
4F
330
1F
100
AcDbEntity
  8
_Übersetzung
  6
Continuous
 62
     7
100
AcDbCircle
 10
283.8192605614
 20
343.3669085984
 30
0.0
 40
0.0003937007874129
  0
CIRCLE
  5
50
330
1F
100
AcDbEntity
  8
_Übersetzung
  6
Continuous
 62
     7
100
AcDbCircle
 10
403.8192605614
 20
343.3669085984
 30
0.0
 40
0.0003937007874129
  0
LINE
  5
51
330
1F
100
AcDbEntity
  8
_Übersetzung
  6
Continuous
 62
     7
100
AcDbLine
 10
283.8192605614
 20
343.3618745712
 30
0.0
 11
403.8192605614
 21
343.3618745712
 31
0.0
  0
CIRCLE
  5
52
330
1F
100
AcDbEntity
  8
_Übersetzung
  6
Continuous
 62
     7
100
AcDbCircle
 10
222.191669338
 20
161.739317375
 30
0.0
 40
0.0003937007874129
  0
CIRCLE
  5
53
330
1F
100
AcDbEntity
  8
_Übersetzung
  6
Continuous
 62
     7
100
AcDbCircle
 10
122.191669338
 20
161.739317375
 30
0.0
 40
0.0003937007873986
  0
LINE
  5
54
330
1F
100
AcDbEntity
  8
_Übersetzung
  6
Continuous
 62
     7
100
AcDbLine
 10
222.191669338
 20
88.3893199738
 30
0.0
 11
122.191669338
 21
88.3893199738
 31
0.0
  0
CIRCLE
  5
55
330
1F
100
AcDbEntity
  8
_Übersetzung
  6
Continuous
 62
     7
100
AcDbCircle
 10
22.191669338
 20
161.739317375
 30
0.0
 40
0.0003937007874022
  0
CIRCLE
  5
56
330
1F
100
AcDbEntity
  8
_Übersetzung
  6
Continuous
 62
     7
100
AcDbCircle
 10
122.191669338
 20
161.739317375
 30
0.0
 40
0.0003937007873986
  0
LINE
  5
57
330
1F
100
AcDbEntity
  8
_Übersetzung
  6
Continuous
 62
     7
100
AcDbLine
 10
22.191669338
 20
88.3893199738
 30
0.0
 11
122.191669338
 21
88.3893199738
 31
0.0
  0
CIRCLE
  5
58
330
1F
100
AcDbEntity
  8
_Übersetzung
  6
Continuous
 62
     7
100
AcDbCircle
 10
22.191669338
 20
313.3669085984
 30
0.0
 40
0.0003937007874022
  0
CIRCLE
  5
59
330
1F
100
AcDbEntity
  8
_Übersetzung
  6
Continuous
 62
     7
100
AcDbCircle
 10
72.191669338
 20
373.3669085984
 30
0.0
 40
0.0003937007873986
  0
LINE
  5
5A
330
1F
100
AcDbEntity
  8
_Übersetzung
  6
Continuous
 62
     7
100
AcDbLine
 10
237.5098574093
 20
313.3669085984
 30
0.0
 11
237.5098574093
 21
373.3669085984
 31
0.0
  0
CIRCLE
  5
5B
330
1F
100
AcDbEntity
  8
_Übersetzung
  6
Continuous
 62
     7
100
AcDbCircle
 10
222.191669338
 20
378.3669085984
 30
0.0
 40
0.0003937007874129
  0
CIRCLE
  5
5C
330
1F
100
AcDbEntity
  8
_Übersetzung
  6
Continuous
 62
     7
100
AcDbCircle
 10
172.191669338
 20
308.3669085984
 30
0.0
 40
0.0003937007874129
  0
LINE
  5
5D
330
1F
100
AcDbEntity
  8
_Übersetzung
  6
Continuous
 62
     7
100
AcDbLine
 10
252.6280193707
 20
378.3669085984
 30
0.0
 11
252.6280193707
 21
308.3669085984
 31
0.0
  0
LINE
  5
5F
330
1F
100
AcDbEntity
  8
Default
  6
Continuous
 62
     7
100
AcDbLine
 10
10.0
 20
10.0
 30
0.0
 11
584.0
 21
10.0
 31
0.0
  0
LINE
  5
60
330
1F
100
AcDbEntity
  8
Default
  6
Continuous
 62
     7
100
AcDbLine
 10
584.0
 20
10.0
 30
0.0
 11
584.0
 21
410.0
 31
0.0
  0
LINE
  5
61
330
1F
100
AcDbEntity
  8
Default
  6
Continuous
 62
     7
100
AcDbLine
 10
584.0
 20
410.0
 30
0.0
 11
10.0
 21
410.0
 31
0.0
  0
LINE
  5
62
330
1F
100
AcDbEntity
  8
Default
  6
Continuous
 62
     7
100
AcDbLine
 10
10.0
 20
410.0
 30
0.0
 11
10.0
 21
10.0
 31
0.0
  0
LINE
  5
63
330
1F
100
AcDbEntity
  8
Default
  6
Continuous
 62
     7
100
AcDbLine
 10
441.125
 20
10.0
 30
0.0
 11
441.125
 21
60.8
 31
0.0
  0
LINE
  5
64
330
1F
100
AcDbEntity
  8
Default
  6
Continuous
 62
     7
100
AcDbLine
 10
463.35
 20
32.225
 30
0.0
 11
463.35
 21
60.8
 31
0.0
  0
LINE
  5
65
330
1F
100
AcDbEntity
  8
Default
  6
Continuous
 62
     7
100
AcDbLine
 10
482.4
 20
32.225
 30
0.0
 11
482.4
 21
60.8
 31
0.0
  0
LINE
  5
66
330
1F
100
AcDbEntity
  8
Default
  6
Continuous
 62
     7
100
AcDbLine
 10
504.625
 20
10.0
 30
0.0
 11
504.625
 21
60.8
 31
0.0
  0
LINE
  5
67
330
1F
100
AcDbEntity
  8
Default
  6
Continuous
 62
     7
100
AcDbLine
 10
514.15
 20
22.7
 30
0.0
 11
514.15
 21
32.098
 31
0.0
  0
LINE
  5
68
330
1F
100
AcDbEntity
  8
Default
  6
Continuous
 62
     7
100
AcDbLine
 10
526.85
 20
10.0
 30
0.0
 11
526.85
 21
16.35
 31
0.0
  0
LINE
  5
69
330
1F
100
AcDbEntity
  8
Default
  6
Continuous
 62
     7
100
AcDbLine
 10
552.25
 20
10.0
 30
0.0
 11
552.25
 21
16.35
 31
0.0
  0
LINE
  5
6A
330
1F
100
AcDbEntity
  8
Default
  6
Continuous
 62
     7
100
AcDbLine
 10
574.348
 20
22.7
 30
0.0
 11
574.348
 21
32.098
 31
0.0
  0
LINE
  5
6B
330
1F
100
AcDbEntity
  8
Default
  6
Continuous
 62
     7
100
AcDbLine
 10
441.125
 20
60.8
 30
0.0
 11
584.0
 21
60.8
 31
0.0
  0
LINE
  5
6C
330
1F
100
AcDbEntity
  8
Default
  6
Continuous
 62
     7
100
AcDbLine
 10
441.125
 20
55.085
 30
0.0
 11
504.625
 21
55.085
 31
0.0
  0
LINE
  5
6D
330
1F
100
AcDbEntity
  8
Default
  6
Continuous
 62
     7
100
AcDbLine
 10
441.125
 20
49.37
 30
0.0
 11
504.625
 21
49.37
 31
0.0
  0
LINE
  5
6E
330
1F
100
AcDbEntity
  8
Default
  6
Continuous
 62
     7
100
AcDbLine
 10
504.625
 20
45.052
 30
0.0
 11
584.0
 21
45.052
 31
0.0
  0
LINE
  5
6F
330
1F
100
AcDbEntity
  8
Default
  6
Continuous
 62
     7
100
AcDbLine
 10
441.125
 20
43.655
 30
0.0
 11
504.625
 21
43.655
 31
0.0
  0
LINE
  5
70
330
1F
100
AcDbEntity
  8
Default
  6
Continuous
 62
     7
100
AcDbLine
 10
441.125
 20
37.94
 30
0.0
 11
504.625
 21
37.94
 31
0.0
  0
LINE
  5
71
330
1F
100
AcDbEntity
  8
Default
  6
Continuous
 62
     7
100
AcDbLine
 10
441.125
 20
32.225
 30
0.0
 11
584.0
 21
32.225
 31
0.0
  0
LINE
  5
72
330
1F
100
AcDbEntity
  8
Default
  6
Continuous
 62
     7
100
AcDbLine
 10
504.625
 20
22.7
 30
0.0
 11
584.0
 21
22.7
 31
0.0
  0
LINE
  5
73
330
1F
100
AcDbEntity
  8
Default
  6
Continuous
 62
     7
100
AcDbLine
 10
504.625
 20
16.35
 30
0.0
 11
584.0
 21
16.35
 31
0.0
  0
TEXT
  5
75
330
1F
100
AcDbEntity
  8
Default
  6
Continuous
 62
     7
100
AcDbText
 10
442.649
 20
50.7727727273
 30
0.0
 40
3.048
  1
DRAWN
  7
SEACAD_Solid_Edge_ISO
 11
442.649
 21
53.8207727273
 31
0.0
100
AcDbText
 73
     3
  0
TEXT
  5
76
330
1F
100
AcDbEntity
  8
Default
  6
Continuous
 62
     7
100
AcDbText
 10
442.649
 20
45.0577727273
 30
0.0
 40
3.048
  1
CHECKED
  7
SEACAD_Solid_Edge_ISO
 11
442.649
 21
48.1057727273
 31
0.0
100
AcDbText
 73
     3
  0
TEXT
  5
77
330
1F
100
AcDbEntity
  8
Default
  6
Continuous
 62
     7
100
AcDbText
 10
442.649
 20
39.3427727273
 30
0.0
 40
3.048
  1
ENG APPR
  7
SEACAD_Solid_Edge_ISO
 11
442.649
 21
42.3907727273
 31
0.0
100
AcDbText
 73
     3
  0
TEXT
  5
78
330
1F
100
AcDbEntity
  8
Default
  6
Continuous
 62
     7
100
AcDbText
 10
442.649
 20
33.6277727273
 30
0.0
 40
3.048
  1
MGR APPR
  7
SEACAD_Solid_Edge_ISO
 11
442.649
 21
36.6757727273
 31
0.0
100
AcDbText
 73
     3
  0
TEXT
  5
79
330
1F
100
AcDbEntity
  8
Default
  6
Continuous
 62
     7
100
AcDbText
 10
451.8853636364
 20
27.1392272727
 30
0.0
 40
3.048
  1
UNLESS OTHERWISE SPECIFIED
  7
SEACAD_Solid_Edge_ISO
 11
451.8853636364
 21
30.1872272727
 31
0.0
100
AcDbText
 73
     3
  0
TEXT
  5
7A
330
1F
100
AcDbEntity
  8
Default
  6
Continuous
 62
     7
100
AcDbText
 10
449.9110909091
 20
22.1515909091
 30
0.0
 40
3.048
  1
DIMENSIONS ARE IN MILLIMETERS
  7
SEACAD_Solid_Edge_ISO
 11
449.9110909091
 21
25.1995909091
 31
0.0
100
AcDbText
 73
     3
  0
TEXT
  5
7B
330
1F
100
AcDbEntity
  8
Default
  6
Continuous
 62
     7
100
AcDbText
 10
463.4192727273
 20
17.1639545455
 30
0.0
 40
3.048
  1
ANGLES ±X.X°
  7
SEACAD_Solid_Edge_ISO
 11
463.4192727273
 21
20.2119545455
 31
0.0
100
AcDbText
 73
     3
  0
TEXT
  5
7C
330
1F
100
AcDbEntity
  8
Default
  6
Continuous
 62
     7
100
AcDbText
 10
455.6953636364
 20
12.1763181818
 30
0.0
 40
3.048
  1
2 PL ±X.XX 3 PL ±X.XXX
  7
SEACAD_Solid_Edge_ISO
 11
455.6953636364
 21
15.2243181818
 31
0.0
100
AcDbText
 73
     3
  0
TEXT
  5
7D
330
1F
100
AcDbEntity
  8
Default
  6
Continuous
 62
     7
100
AcDbText
 10
469.0996363636
 20
56.4877727273
 30
0.0
 40
3.048
  1
NAME
  7
SEACAD_Solid_Edge_ISO
 11
469.0996363636
 21
59.5357727273
 31
0.0
100
AcDbText
 73
     3
  0
TEXT
  5
7E
330
1F
100
AcDbEntity
  8
Default
  6
Continuous
 62
     7
100
AcDbText
 10
490.0835
 20
56.4877727273
 30
0.0
 40
3.048
  1
DATE
  7
SEACAD_Solid_Edge_ISO
 11
490.0835
 21
59.5357727273
 31
0.0
100
AcDbText
 73
     3
  0
TEXT
  5
80
330
1F
100
AcDbEntity
  8
Default
  6
Continuous
 62
     7
100
AcDbText
 10
529.0147727273
 20
49.8003181818
 30
0.0
 40
6.35
  1
Solid Edge
  7
SEACAD_Arial
 11
529.0147727273
 21
56.1503181818
 31
0.0
100
AcDbText
 73
     3
  0
TEXT
  5
81
330
1F
100
AcDbEntity
  8
Default
  6
Continuous
 62
     7
100
AcDbText
 10
505.895
 20
41.7615454545
 30
0.0
 40
2.54
  1
TITLE
  7
SEACAD_Solid_Edge_ISO
 11
505.895
 21
44.3015454545
 31
0.0
100
AcDbText
 73
     3
  0
TEXT
  5
82
330
1F
100
AcDbEntity
  8
Default
  6
Continuous
 62
     7
100
AcDbText
 10
506.8475
 20
28.9345454545
 30
0.0
 40
2.54
  1
SIZE
  7
SEACAD_Solid_Edge_ISO
 11
506.8475
 21
31.4745454545
 31
0.0
100
AcDbText
 73
     3
  0
TEXT
  5
83
330
1F
100
AcDbEntity
  8
Default
  6
Continuous
 62
     7
100
AcDbText
 10
507.6210454545
 20
24.7377727273
 30
0.0
 40
3.048
  1
A2
  7
SEACAD_Arial
 11
507.6210454545
 21
27.7857727273
 31
0.0
100
AcDbText
 73
     3
  0
TEXT
  5
84
330
1F
100
AcDbEntity
  8
Default
  6
Continuous
 62
     7
100
AcDbText
 10
515.42
 20
28.9345454545
 30
0.0
 40
2.54
  1
DWG NO
  7
SEACAD_Solid_Edge_ISO
 11
515.42
 21
31.4745454545
 31
0.0
100
AcDbText
 73
     3
  0
TEXT
  5
85
330
1F
100
AcDbEntity
  8
Default
  6
Continuous
 62
     7
100
AcDbText
 10
577.0092272727
 20
28.9345454545
 30
0.0
 40
2.54
  1
REV
  7
SEACAD_Solid_Edge_ISO
 11
577.0092272727
 21
31.4745454545
 31
0.0
100
AcDbText
 73
     3
  0
TEXT
  5
86
330
1F
100
AcDbEntity
  8
Default
  6
Continuous
 62
     7
100
AcDbText
 10
506.149
 20
11.7202727273
 30
0.0
 40
3.048
  1
SCALE:
  7
SEACAD_Solid_Edge_ISO
 11
506.149
 21
14.7682727273
 31
0.0
100
AcDbText
 73
     3
  0
TEXT
  5
87
330
1F
100
AcDbEntity
  8
Default
  6
Continuous
 62
     7
100
AcDbText
 10
528.374
 20
11.7202727273
 30
0.0
 40
3.048
  1
WEIGHT:
  7
SEACAD_Solid_Edge_ISO
 11
528.374
 21
14.7682727273
 31
0.0
100
AcDbText
 73
     3
  0
LINE
  5
88
330
1F
100
AcDbEntity
  8
Default
  6
Continuous
 62
     7
100
AcDbLine
 10
457.0
 20
410.0
 30
0.0
 11
457.0
 21
390.95
 31
0.0
  0
LINE
  5
89
330
1F
100
AcDbEntity
  8
Default
  6
Continuous
 62
     7
100
AcDbLine
 10
466.652
 20
403.65
 30
0.0
 11
466.652
 21
390.95
 31
0.0
  0
LINE
  5
8A
330
1F
100
AcDbEntity
  8
Default
  6
Continuous
 62
     7
100
AcDbLine
 10
536.248
 20
403.65
 30
0.0
 11
536.248
 21
390.95
 31
0.0
  0
LINE
  5
8B
330
1F
100
AcDbEntity
  8
Default
  6
Continuous
 62
     7
100
AcDbLine
 10
558.6
 20
403.65
 30
0.0
 11
558.6
 21
390.95
 31
0.0
  0
LINE
  5
8C
330
1F
100
AcDbEntity
  8
Default
  6
Continuous
 62
     7
100
AcDbLine
 10
457.0
 20
403.65
 30
0.0
 11
584.0
 21
403.65
 31
0.0
  0
LINE
  5
8D
330
1F
100
AcDbEntity
  8
Default
  6
Continuous
 62
     7
100
AcDbLine
 10
457.0
 20
397.3
 30
0.0
 11
584.0
 21
397.3
 31
0.0
  0
TEXT
  5
8E
330
1F
100
AcDbEntity
  8
Default
  6
Continuous
 62
     7
100
AcDbText
 10
507.8923636364
 20
405.3702727273
 30
0.0
 40
3.048
  1
REVISION HISTORY
  7
SEACAD_Solid_Edge_ISO
 11
507.8923636364
 21
408.4182727273
 31
0.0
100
AcDbText
 73
     3
  0
TEXT
  5
8F
330
1F
100
AcDbEntity
  8
Default
  6
Continuous
 62
     7
100
AcDbText
 10
459.2282727273
 20
399.0202727273
 30
0.0
 40
3.048
  1
REV
  7
SEACAD_Solid_Edge_ISO
 11
459.2282727273
 21
402.0682727273
 31
0.0
100
AcDbText
 73
     3
  0
TEXT
  5
90
330
1F
100
AcDbEntity
  8
Default
  6
Continuous
 62
     7
100
AcDbText
 10
492.687
 20
399.0202727273
 30
0.0
 40
3.048
  1
DESCRIPTION
  7
SEACAD_Solid_Edge_ISO
 11
492.687
 21
402.0682727273
 31
0.0
100
AcDbText
 73
     3
  0
TEXT
  5
91
330
1F
100
AcDbEntity
  8
Default
  6
Continuous
 62
     7
100
AcDbText
 10
543.995
 20
399.0202727273
 30
0.0
 40
3.048
  1
DATE
  7
SEACAD_Solid_Edge_ISO
 11
543.995
 21
402.0682727273
 31
0.0
100
AcDbText
 73
     3
  0
TEXT
  5
92
330
1F
100
AcDbEntity
  8
Default
  6
Continuous
 62
     7
100
AcDbText
 10
564.3380909091
 20
399.0202727273
 30
0.0
 40
3.048
  1
APPROVED
  7
SEACAD_Solid_Edge_ISO
 11
564.3380909091
 21
402.0682727273
 31
0.0
100
AcDbText
 73
     3
  0
CIRCLE
  5
93
330
1F
100
AcDbEntity
  8
_Übersetzung
  6
Continuous
 62
     7
100
AcDbCircle
 10
222.191669338
 20
303.3669085984
 30
0.0
 40
0.0003937007874016
  0
CIRCLE
  5
94
330
1F
100
AcDbEntity
  8
_Übersetzung
  6
Continuous
 62
     7
100
AcDbCircle
 10
212.191669338
 20
293.3669085984
 30
0.0
 40
0.0003937007874016
  0
LINE
  5
95
330
1F
100
AcDbEntity
  8
_Übersetzung
  6
Continuous
 62
     7
100
AcDbLine
 10
222.191669338
 20
270.0169107138
 30
0.0
 11
212.191669338
 21
270.0169107138
 31
0.0
  0
CIRCLE
  5
96
330
1F
100
AcDbEntity
  8
_Übersetzung
  6
Continuous
 62
     7
100
AcDbCircle
 10
122.191669338
 20
308.3669085984
 30
0.0
 40
0.0003937007874016
  0
CIRCLE
  5
97
330
1F
100
AcDbEntity
  8
_Übersetzung
  6
Continuous
 62
     7
100
AcDbCircle
 10
222.191669338
 20
308.3669085984
 30
0.0
 40
0.0003937007874016
  0
LINE
  5
98
330
1F
100
AcDbEntity
  8
_Übersetzung
  6
Continuous
 62
     7
100
AcDbLine
 10
122.191669338
 20
263.0169070455
 30
0.0
 11
222.191669338
 21
263.0169070455
 31
0.0
  0
CIRCLE
  5
99
330
1F
100
AcDbEntity
  8
_Übersetzung
  6
Continuous
 62
     7
100
AcDbCircle
 10
373.8192605614
 20
343.3669112211
 30
0.0
 40
0.0003937007874016
  0
CIRCLE
  5
9A
330
1F
100
AcDbEntity
  8
_Übersetzung
  6
Continuous
 62
     7
100
AcDbCircle
 10
313.8192605614
 20
343.3669059758
 30
0.0
 40
0.0003937007874016
  0
LINE
  5
9B
330
1F
100
AcDbEntity
  8
_Übersetzung
  6
Continuous
 62
     7
100
AcDbLine
 10
373.8192606058
 20
342.8593473845
 30
0.0
 11
313.8192606058
 21
342.8593421392
 31
0.0
  0
CIRCLE
  5
9C
330
1F
100
AcDbEntity
  8
_Übersetzung
  6
Continuous
 62
     7
100
AcDbCircle
 10
308.8192605614
 20
343.3669085984
 30
0.0
 40
0.0003937007874016
  0
CIRCLE
  5
9D
330
1F
100
AcDbEntity
  8
_Übersetzung
  6
Continuous
 62
     7
100
AcDbCircle
 10
378.8192605614
 20
343.3669085984
 30
0.0
 40
0.0003937007874016
  0
LINE
  5
9E
330
1F
100
AcDbEntity
  8
_Übersetzung
  6
Continuous
 62
     7
100
AcDbLine
 10
308.8192605614
 20
263.1728577269
 30
0.0
 11
378.8192605614
 21
263.1728577269
 31
0.0
  0
CIRCLE
  5
9F
330
1F
100
AcDbEntity
  8
_Übersetzung
  6
Continuous
 62
     7
100
AcDbCircle
 10
293.8192605614
 20
343.3669085984
 30
0.0
 40
0.0003937007874016
  0
CIRCLE
  5
A0
330
1F
100
AcDbEntity
  8
_Übersetzung
  6
Continuous
 62
     7
100
AcDbCircle
 10
393.8192605614
 20
343.3669085984
 30
0.0
 40
0.0003937007874016
  0
LINE
  5
A1
330
1F
100
AcDbEntity
  8
_Übersetzung
  6
Continuous
 62
     7
100
AcDbLine
 10
293.8192605614
 20
254.7129874561
 30
0.0
 11
393.8192605614
 21
254.7129874561
 31
0.0
  0
CIRCLE
  5
A2
330
1F
100
AcDbEntity
  8
_Übersetzung
  6
Continuous
 62
     7
100
AcDbCircle
 10
283.8192605614
 20
343.3669085984
 30
0.0
 40
0.0003937007874016
  0
CIRCLE
  5
A3
330
1F
100
AcDbEntity
  8
_Übersetzung
  6
Continuous
 62
     7
100
AcDbCircle
 10
403.8192605614
 20
343.3669085984
 30
0.0
 40
0.0003937007874016
  0
LINE
  5
A4
330
1F
100
AcDbEntity
  8
_Übersetzung
  6
Continuous
 62
     7
100
AcDbLine
 10
283.8192605614
 20
246.5260219793
 30
0.0
 11
403.8192605614
 21
246.5260219793
 31
0.0
  0
CIRCLE
  5
A5
330
1F
100
AcDbEntity
  8
_Übersetzung
  6
Continuous
 62
     7
100
AcDbCircle
 10
222.191669338
 20
161.739317375
 30
0.0
 40
0.0003937007874016
  0
CIRCLE
  5
A6
330
1F
100
AcDbEntity
  8
_Übersetzung
  6
Continuous
 62
     7
100
AcDbCircle
 10
122.191669338
 20
161.739317375
 30
0.0
 40
0.0003937007874016
  0
LINE
  5
A7
330
1F
100
AcDbEntity
  8
_Übersetzung
  6
Continuous
 62
     7
100
AcDbLine
 10
222.191669338
 20
88.3893205604
 30
0.0
 11
122.191669338
 21
88.3893205604
 31
0.0
  0
CIRCLE
  5
A8
330
1F
100
AcDbEntity
  8
_Übersetzung
  6
Continuous
 62
     7
100
AcDbCircle
 10
22.191669338
 20
161.739317375
 30
0.0
 40
0.0003937007874016
  0
CIRCLE
  5
A9
330
1F
100
AcDbEntity
  8
_Übersetzung
  6
Continuous
 62
     7
100
AcDbCircle
 10
122.191669338
 20
161.739317375
 30
0.0
 40
0.0003937007874016
  0
LINE
  5
AA
330
1F
100
AcDbEntity
  8
_Übersetzung
  6
Continuous
 62
     7
100
AcDbLine
 10
22.191669338
 20
88.3893205604
 30
0.0
 11
122.191669338
 21
88.3893205604
 31
0.0
  0
CIRCLE
  5
AB
330
1F
100
AcDbEntity
  8
_Übersetzung
  6
Continuous
 62
     7
100
AcDbCircle
 10
22.191669338
 20
313.3669085984
 30
0.0
 40
0.0003937007874016
  0
CIRCLE
  5
AC
330
1F
100
AcDbEntity
  8
_Übersetzung
  6
Continuous
 62
     7
100
AcDbCircle
 10
72.191669338
 20
373.3669085984
 30
0.0
 40
0.0003937007874016
  0
LINE
  5
AD
330
1F
100
AcDbEntity
  8
_Übersetzung
  6
Continuous
 62
     7
100
AcDbLine
 10
237.5098535373
 20
313.3669085984
 30
0.0
 11
237.5098535373
 21
373.3669085984
 31
0.0
  0
CIRCLE
  5
AE
330
1F
100
AcDbEntity
  8
_Übersetzung
  6
Continuous
 62
     7
100
AcDbCircle
 10
222.191669338
 20
378.3669085984
 30
0.0
 40
0.0003937007874016
  0
CIRCLE
  5
AF
330
1F
100
AcDbEntity
  8
_Übersetzung
  6
Continuous
 62
     7
100
AcDbCircle
 10
172.191669338
 20
308.3669085984
 30
0.0
 40
0.0003937007874016
  0
LINE
  5
B0
330
1F
100
AcDbEntity
  8
_Übersetzung
  6
Continuous
 62
     7
100
AcDbLine
 10
252.6280185347
 20
378.3669085984
 30
0.0
 11
252.6280185347
 21
308.3669085984
 31
0.0
  0
INSERT
  5
C4
330
1F
100
AcDbEntity
  8
Default
 62
     7
100
AcDbBlockReference
  2
SE
 10
22.191669338
 20
283.3669085984
 30
0.0
  0
INSERT
  5
D6
330
1F
100
AcDbEntity
  8
Default
 62
     7
100
AcDbBlockReference
  2
SE1
 10
22.191669338
 20
101.739317375
 30
0.0
  0
INSERT
  5
DF
330
1F
100
AcDbEntity
  8
Default
 62
     7
100
AcDbBlockReference
  2
SE2
 10
283.8192605614
 20
283.3669085984
 30
0.0
  0
DIMENSION
  5
F2
330
1F
100
AcDbEntity
  8
Default
  6
Continuous
 62
     7
100
AcDbDimension
  2
DMBLK1
 10
212.191669338
 20
270.0169107138
 30
0.0
 11
217.1916691784
 21
270.0169107138
 31
0.0
 70
   160
  1
\A1;<>
 71
     5
 42
-1.0
  3
ISO
100
AcDbAlignedDimension
 13
222.191669338
 23
303.3669085984
 33
0.0
 14
212.191669338
 24
293.3669085984
 34
0.0
100
AcDbRotatedDimension
  0
DIMENSION
  5
FC
330
1F
100
AcDbEntity
  8
Default
  6
Continuous
 62
     7
100
AcDbDimension
  2
DMBLK2
 10
122.191669338
 20
263.0169070455
 30
0.0
 11
172.1916685871
 21
263.0169070455
 31
0.0
 70
   161
  1
\A1;<>
 71
     5
 42
-1.0
  3
ISO
100
AcDbAlignedDimension
 13
122.191669338
 23
308.3669085984
 33
0.0
 14
222.191669338
 24
308.3669085984
 34
0.0
  0
DIMENSION
  5
106
330
1F
100
AcDbEntity
  8
Default
  6
Continuous
 62
     7
100
AcDbDimension
  2
DMBLK3
 10
373.8192606058
 20
342.8593473845
 30
0.0
 11
343.8192596483
 21
342.8593447619
 31
0.0
 70
   161
  1
\A1;<>
 71
     5
 42
-1.0
  3
ISO
100
AcDbAlignedDimension
 13
373.8192605614
 23
343.3669112211
 33
0.0
 14
313.8192605614
 24
343.3669059758
 34
0.0
1001
ACAD
1000
DSTYLE
1002
{
1070
    73
1070
     1
1070
    74
1070
     1
1070
    77
1070
     0
1070
     0
1002
}
  0
DIMENSION
  5
10F
330
1F
100
AcDbEntity
  8
Default
  6
Continuous
 62
     7
100
AcDbDimension
  2
DMBLK4
 10
308.8192605614
 20
263.1728577269
 30
0.0
 11
343.8192605051
 21
263.1728577269
 31
0.0
 70
   161
  1
\A1;<>
 71
     5
 42
-1.0
  3
ISO
100
AcDbAlignedDimension
 13
308.8192605614
 23
343.3669085984
 33
0.0
 14
378.8192605614
 24
343.3669085984
 34
0.0
1001
ACAD
1000
DSTYLE
1002
{
1070
    73
1070
     1
1070
    74
1070
     1
1070
    77
1070
     0
1070
     0
1002
}
  0
DIMENSION
  5
11A
330
1F
100
AcDbEntity
  8
Default
  6
Continuous
 62
     7
100
AcDbDimension
  2
DMBLK5
 10
293.8192605614
 20
254.7129874561
 30
0.0
 11
343.8192598105
 21
254.7129874561
 31
0.0
 70
   161
  1
\A1;<>
 71
     5
 42
-1.0
  3
ISO
100
AcDbAlignedDimension
 13
293.8192605614
 23
343.3669085984
 33
0.0
 14
393.8192605614
 24
343.3669085984
 34
0.0
1001
ACAD
1000
DSTYLE
1002
{
1070
    73
1070
     1
1070
    74
1070
     1
1070
    77
1070
     0
1070
     0
1002
}
  0
DIMENSION
  5
125
330
1F
100
AcDbEntity
  8
Default
  6
Continuous
 62
     7
100
AcDbDimension
  2
DMBLK6
 10
283.8192605614
 20
246.5260219793
 30
0.0
 11
343.8192624763
 21
246.5260219793
 31
0.0
 70
   161
  1
\A1;<>
 71
     5
 42
-1.0
  3
ISO
100
AcDbAlignedDimension
 13
283.8192605614
 23
343.3669085984
 33
0.0
 14
403.8192605614
 24
343.3669085984
 34
0.0
1001
ACAD
1000
DSTYLE
1002
{
1070
    73
1070
     1
1070
    74
1070
     1
1070
    77
1070
     0
1070
     0
1002
}
  0
DIMENSION
  5
130
330
1F
100
AcDbEntity
  8
Default
  6
Continuous
 62
     7
100
AcDbDimension
  2
DMBLK7
 10
122.191669338
 20
88.3893205604
 30
0.0
 11
172.1916700889
 21
88.3893205604
 31
0.0
 70
   160
  1
\A1;<>
 71
     5
 42
-1.0
  3
ISO
100
AcDbAlignedDimension
 13
222.191669338
 23
161.739317375
 33
0.0
 14
122.191669338
 24
161.739317375
 34
0.0
100
AcDbRotatedDimension
  0
DIMENSION
  5
13A
330
1F
100
AcDbEntity
  8
Default
  6
Continuous
 62
     7
100
AcDbDimension
  2
DMBLK8
 10
22.191669338
 20
88.3893205604
 30
0.0
 11
72.1916685871
 21
88.3893205604
 31
0.0
 70
   161
  1
\A1;<>
 71
     5
 42
-1.0
  3
ISO
100
AcDbAlignedDimension
 13
22.191669338
 23
161.739317375
 33
0.0
 14
122.191669338
 24
161.739317375
 34
0.0
  0
DIMENSION
  5
144
330
1F
100
AcDbEntity
  8
Default
  6
Continuous
 62
     7
100
AcDbDimension
  2
DMBLK9
 10
237.5098535373
 20
373.3669085984
 30
0.0
 11
237.5098535373
 21
343.3669095558
 31
0.0
 70
   160
  1
\A1;<>
 71
     5
 42
-1.0
  3
ISO
100
AcDbAlignedDimension
 13
22.191669338
 23
313.3669085984
 33
0.0
 14
72.191669338
 24
373.3669085984
 34
0.0
 50
90.0
100
AcDbRotatedDimension
  0
DIMENSION
  5
14E
330
1F
100
AcDbEntity
  8
Default
  6
Continuous
 62
     7
100
AcDbDimension
  2
DMBLK10
 10
252.6280185347
 20
308.3669085984
 30
0.0
 11
252.6280185347
 21
343.3669086547
 31
0.0
 70
   160
  1
\A1;<>
 71
     5
 42
-1.0
  3
ISO
100
AcDbAlignedDimension
 13
222.191669338
 23
378.3669085984
 33
0.0
 14
172.191669338
 24
308.3669085984
 34
0.0
 50
90.0
100
AcDbRotatedDimension
  0
INSERT
  5
15C
330
1F
100
AcDbEntity
  8
Default
 62
     7
100
AcDbBlockReference
  2
SEANNOT_GROUP
 10
0.0
 20
0.0
 30
0.0
  0
INSERT
  5
161
330
1F
100
AcDbEntity
  8
Default
 62
     7
100
AcDbBlockReference
  2
SEANNOT_GROUP1
 10
-0.4264045819
 20
0.4468720018
 30
0.0
  0
INSERT
  5
166
330
1F
100
AcDbEntity
  8
Default
 62
     7
100
AcDbBlockReference
  2
SEANNOT_GROUP5
 10
0.0
 20
0.0
 30
0.0
  0
INSERT
  5
16B
330
1F
100
AcDbEntity
  8
Default
 62
     7
100
AcDbBlockReference
  2
SEANNOT_GROUP6
 10
0.0
 20
0.0
 30
0.0
  0
ENDSEC
  0
SECTION
  2
OBJECTS
  0
DICTIONARY
  5
C
330
0
100
AcDbDictionary
281
     1
  3
ACAD_GROUP
350
D
  3
ACAD_LAYOUT
350
1A
  3
ACAD_MATERIAL
350
3B
  3
ACAD_MLEADERSTYLE
350
16E
  3
ACAD_MLINESTYLE
350
17
  3
ACAD_PLOTSETTINGS
350
19
  3
ACAD_PLOTSTYLENAME
350
E
  3
ACAD_VISUALSTYLE
350
2A
  3
AcDbVariableDictionary
350
16C
  0
DICTIONARY
  5
D
102
{ACAD_REACTORS
330
C
102
}
330
C
100
AcDbDictionary
281
     1
  0
DICTIONARY
  5
1A
102
{ACAD_REACTORS
330
C
102
}
330
C
100
AcDbDictionary
281
     1
  3
Layout1
350
1E
  3
Model
350
22
  0
DICTIONARY
  5
3B
102
{ACAD_REACTORS
330
C
102
}
330
C
100
AcDbDictionary
281
     1
  3
ByBlock
350
3D
  3
ByLayer
350
3C
  3
Global
350
3E
  0
DICTIONARY
  5
16E
102
{ACAD_REACTORS
330
C
102
}
330
C
100
AcDbDictionary
281
     1
  0
DICTIONARY
  5
17
102
{ACAD_REACTORS
330
C
102
}
330
C
100
AcDbDictionary
281
     1
  3
Standard
350
18
  0
DICTIONARY
  5
19
102
{ACAD_REACTORS
330
C
102
}
330
C
100
AcDbDictionary
281
     1
  0
ACDBDICTIONARYWDFLT
  5
E
102
{ACAD_REACTORS
330
C
102
}
330
C
100
AcDbDictionary
281
     1
  3
Normal
350
F
100
AcDbDictionaryWithDefault
340
F
  0
DICTIONARY
  5
2A
102
{ACAD_REACTORS
330
C
102
}
330
C
100
AcDbDictionary
281
     1
  3
2dWireframe
350
2F
  3
3D Hidden
350
31
  3
3dWireframe
350
30
  3
Basic
350
32
  3
Brighten
350
36
  3
ColorChange
350
3A
  3
Conceptual
350
34
  3
Dim
350
35
  3
Facepattern
350
39
  3
Flat
350
2B
  3
FlatWithEdges
350
2C
  3
Gouraud
350
2D
  3
GouraudWithEdges
350
2E
  3
Linepattern
350
38
  3
Realistic
350
33
  3
Thicken
350
37
  0
DICTIONARY
  5
16C
102
{ACAD_REACTORS
330
C
102
}
330
C
100
AcDbDictionary
281
     1
  3
DIMASSOC
350
16F
  3
HIDETEXT
350
170
  0
LAYOUT
  5
1E
102
{ACAD_REACTORS
330
1A
102
}
330
1A
100
AcDbPlotSettings
  1

  2
none_device
  4

  6

 40
0.0
 41
0.0
 42
0.0
 43
0.0
 44
0.0
 45
0.0
 46
0.0
 47
0.0
 48
0.0
 49
0.0
140
0.0
141
0.0
142
1.0
143
1.0
 70
   688
 72
     0
 73
     0
 74
     5
  7

 75
    16
147
1.0
148
0.0
149
0.0
100
AcDbLayout
  1
Layout1
 70
     1
 71
     1
 10
0.0
 20
0.0
 11
23.38578
 21
16.5354
 12
0.0
 22
0.0
 32
0.0
 14
0.0
 24
0.0
 34
0.0
 15
23.38578
 25
16.5354
 35
0.0
146
0.0
 13
0.0
 23
0.0
 33
0.0
 16
1.0
 26
0.0
 36
0.0
 17
0.0
 27
1.0
 37
0.0
 76
     0
330
1B
  0
LAYOUT
  5
22
102
{ACAD_REACTORS
330
1A
102
}
330
1A
100
AcDbPlotSettings
  1

  2
none_device
  4

  6

 40
0.0
 41
0.0
 42
0.0
 43
0.0
 44
0.0
 45
0.0
 46
0.0
 47
0.0
 48
0.0
 49
0.0
140
0.0
141
0.0
142
1.0
143
1.0
 70
  1712
 72
     0
 73
     0
 74
     0
  7

 75
     0
147
1.0
148
0.0
149
0.0
100
AcDbLayout
  1
Model
 70
     1
 71
     0
 10
0.0
 20
0.0
 11
23.38578
 21
16.5354
 12
0.0
 22
0.0
 32
0.0
 14
0.0
 24
0.0
 34
0.0
 15
23.38578
 25
16.5354
 35
0.0
146
0.0
 13
0.0
 23
0.0
 33
0.0
 16
1.0
 26
0.0
 36
0.0
 17
0.0
 27
1.0
 37
0.0
 76
     0
330
1F
331
29
  0
MATERIAL
  5
3D
102
{ACAD_REACTORS
330
3B
102
}
102
{ACAD_XDICTIONARY
360
193
102
}
330
3B
100
AcDbMaterial
  1
ByBlock
  0
MATERIAL
  5
3C
102
{ACAD_REACTORS
330
3B
102
}
102
{ACAD_XDICTIONARY
360
191
102
}
330
3B
100
AcDbMaterial
  1
ByLayer
  0
MATERIAL
  5
3E
102
{ACAD_REACTORS
330
3B
102
}
102
{ACAD_XDICTIONARY
360
195
102
}
330
3B
100
AcDbMaterial
  1
Global
  0
MLINESTYLE
  5
18
102
{ACAD_REACTORS
330
17
102
}
330
17
100
AcDbMlineStyle
  2
Standard
 70
     0
  3

 62
   256
 51
90.0
 52
90.0
 71
     2
 49
0.5
 62
   256
  6
BYLAYER
 49
-0.5
 62
   256
  6
BYLAYER
  0
ACDBPLACEHOLDER
  5
F
102
{ACAD_REACTORS
330
E
102
}
330
E
  0
VISUALSTYLE
  5
2F
102
{ACAD_REACTORS
330
2A
102
}
102
{ACAD_XDICTIONARY
360
179
102
}
330
2A
100
AcDbVisualStyle
  2
2dWireframe
 70
     4
 71
     0
 72
     2
 73
     0
 90
        0
 40
-0.6
 41
-30.0
 62
     5
 63
     7
 74
     1
 91
        4
 64
     7
 65
   257
 75
     1
175
     1
 42
1.0
 92
        0
 66
   257
 43
1.0
 76
     1
 77
     6
 78
     2
 67
     7
 79
     5
170
     0
171
     0
290
     0
174
     0
 93
        1
 44
0.0
173
     0
291
     0
 45
0.0
1001
ACAD
1000
AcDbSavedByObjectVersion
1070
     0
  0
VISUALSTYLE
  5
31
102
{ACAD_REACTORS
330
2A
102
}
102
{ACAD_XDICTIONARY
360
17D
102
}
330
2A
100
AcDbVisualStyle
  2
3D Hidden
 70
     6
 71
     1
 72
     2
 73
     2
 90
        0
 40
-0.6
 41
-30.0
 62
     5
 63
     7
 74
     2
 91
        2
 64
     7
 65
   257
 75
     2
175
     1
 42
40.0
 92
        0
 66
   257
 43
1.0
 76
     1
 77
     6
 78
     2
 67
     7
 79
     3
170
     0
171
     0
290
     0
174
     0
 93
        1
 44
0.0
173
     0
291
     0
 45
0.0
1001
ACAD
1000
AcDbSavedByObjectVersion
1070
     0
  0
VISUALSTYLE
  5
30
102
{ACAD_REACTORS
330
2A
102
}
102
{ACAD_XDICTIONARY
360
17B
102
}
330
2A
100
AcDbVisualStyle
  2
3dWireframe
 70
     5
 71
     0
 72
     2
 73
     0
 90
        0
 40
-0.6
 41
-30.0
 62
     5
 63
     7
 74
     1
 91
        4
 64
     7
 65
   257
 75
     1
175
     1
 42
1.0
 92
        0
 66
   257
 43
1.0
 76
     1
 77
     6
 78
     2
 67
     7
 79
     5
170
     0
171
     0
290
     0
174
     0
 93
        1
 44
0.0
173
     0
291
     0
 45
0.0
1001
ACAD
1000
AcDbSavedByObjectVersion
1070
     0
  0
VISUALSTYLE
  5
32
102
{ACAD_REACTORS
330
2A
102
}
102
{ACAD_XDICTIONARY
360
17F
102
}
330
2A
100
AcDbVisualStyle
  2
Basic
 70
     7
 71
     1
 72
     0
 73
     1
 90
        0
 40
-0.6
 41
-30.0
 62
     5
 63
     7
 74
     0
 91
        4
 64
     7
 65
   257
 75
     1
175
     1
 42
1.0
 92
        8
 66
     7
 43
1.0
 76
     1
 77
     6
 78
     2
 67
     7
 79
     5
170
     0
171
     0
290
     0
174
     0
 93
        1
 44
0.0
173
     0
291
     1
 45
0.0
1001
ACAD
1000
AcDbSavedByObjectVersion
1070
     0
  0
VISUALSTYLE
  5
36
102
{ACAD_REACTORS
330
2A
102
}
102
{ACAD_XDICTIONARY
360
187
102
}
330
2A
100
AcDbVisualStyle
  2
Brighten
 70
    12
 71
     2
 72
     2
 73
     0
 90
        0
 40
-0.6
 41
-30.0
 62
     5
 63
     7
 74
     1
 91
        4
 64
     7
 65
   257
 75
     1
175
     1
 42
1.0
 92
        8
 66
     7
 43
1.0
 76
     1
 77
     6
 78
     2
 67
     7
 79
     5
170
     0
171
     0
290
     0
174
     0
 93
        1
 44
50.0
173
     0
291
     1
 45
0.0
1001
ACAD
1000
AcDbSavedByObjectVersion
1070
     0
  0
VISUALSTYLE
  5
3A
102
{ACAD_REACTORS
330
2A
102
}
102
{ACAD_XDICTIONARY
360
18F
102
}
330
2A
100
AcDbVisualStyle
  2
ColorChange
 70
    16
 71
     2
 72
     2
 73
     3
 90
        0
 40
-0.6
 41
-30.0
 62
     5
 63
     8
 74
     1
 91
        4
 64
     7
 65
   257
 75
     1
175
     1
 42
1.0
 92
        8
 66
     8
 43
1.0
 76
     1
 77
     6
 78
     2
 67
     7
 79
     5
170
     0
171
     0
290
     0
174
     0
 93
        1
 44
0.0
173
     0
291
     1
 45
0.0
1001
ACAD
1000
AcDbSavedByObjectVersion
1070
     0
  0
VISUALSTYLE
  5
34
102
{ACAD_REACTORS
330
2A
102
}
102
{ACAD_XDICTIONARY
360
183
102
}
330
2A
100
AcDbVisualStyle
  2
Conceptual
 70
     9
 71
     3
 72
     2
 73
     0
 90
        0
 40
-0.6
 41
-30.0
 62
     5
 63
     7
 74
     2
 91
        2
 64
     7
 65
   257
 75
     1
175
     1
 42
40.0
 92
        8
 66
     7
 43
1.0
 76
     1
 77
     6
 78
     2
 67
     7
 79
     3
170
     0
171
     0
290
     0
174
     0
 93
        1
 44
0.0
173
     0
291
     0
 45
0.0
1001
ACAD
1000
AcDbSavedByObjectVersion
1070
     0
  0
VISUALSTYLE
  5
35
102
{ACAD_REACTORS
330
2A
102
}
102
{ACAD_XDICTIONARY
360
185
102
}
330
2A
100
AcDbVisualStyle
  2
Dim
 70
    11
 71
     2
 72
     2
 73
     0
 90
        0
 40
-0.6
 41
-30.0
 62
     5
 63
     7
 74
     1
 91
        4
 64
     7
 65
   257
 75
     1
175
     1
 42
1.0
 92
        8
 66
     7
 43
1.0
 76
     1
 77
     6
 78
     2
 67
     7
 79
     5
170
     0
171
     0
290
     0
174
     0
 93
        1
 44
-50.0
173
     0
291
     1
 45
0.0
1001
ACAD
1000
AcDbSavedByObjectVersion
1070
     0
  0
VISUALSTYLE
  5
39
102
{ACAD_REACTORS
330
2A
102
}
102
{ACAD_XDICTIONARY
360
18D
102
}
330
2A
100
AcDbVisualStyle
  2
Facepattern
 70
    15
 71
     2
 72
     2
 73
     0
 90
        0
 40
-0.6
 41
-30.0
 62
     5
 63
     7
 74
     1
 91
        4
 64
     7
 65
   257
 75
     1
175
     1
 42
1.0
 92
        8
 66
     7
 43
1.0
 76
     1
 77
     6
 78
     2
 67
     7
 79
     5
170
     0
171
     0
290
     0
174
     0
 93
        1
 44
0.0
173
     0
291
     1
 45
0.0
1001
ACAD
1000
AcDbSavedByObjectVersion
1070
     0
  0
VISUALSTYLE
  5
2B
102
{ACAD_REACTORS
330
2A
102
}
102
{ACAD_XDICTIONARY
360
171
102
}
330
2A
100
AcDbVisualStyle
  2
Flat
 70
     0
 71
     2
 72
     1
 73
     1
 90
        2
 40
-0.6
 41
30.0
 62
     5
 63
     7
 74
     0
 91
        4
 64
     7
 65
   257
 75
     1
175
     1
 42
1.0
 92
        8
 66
     7
 43
1.0
 76
     1
 77
     6
 78
     2
 67
     7
 79
     5
170
     0
171
     0
290
     0
174
     0
 93
       13
 44
0.0
173
     0
291
     1
 45
0.0
1001
ACAD
1000
AcDbSavedByObjectVersion
1070
     0
  0
VISUALSTYLE
  5
2C
102
{ACAD_REACTORS
330
2A
102
}
102
{ACAD_XDICTIONARY
360
173
102
}
330
2A
100
AcDbVisualStyle
  2
FlatWithEdges
 70
     1
 71
     2
 72
     1
 73
     1
 90
        2
 40
-0.6
 41
30.0
 62
     5
 63
     7
 74
     1
 91
        4
 64
     7
 65
   257
 75
     1
175
     1
 42
1.0
 92
        0
 66
   257
 43
1.0
 76
     1
 77
     6
 78
     2
 67
     7
 79
     5
170
     0
171
     0
290
     0
174
     0
 93
       13
 44
0.0
173
     0
291
     1
 45
0.0
1001
ACAD
1000
AcDbSavedByObjectVersion
1070
     0
  0
VISUALSTYLE
  5
2D
102
{ACAD_REACTORS
330
2A
102
}
102
{ACAD_XDICTIONARY
360
175
102
}
330
2A
100
AcDbVisualStyle
  2
Gouraud
 70
     2
 71
     2
 72
     2
 73
     1
 90
        2
 40
-0.6
 41
30.0
 62
     5
 63
     7
 74
     0
 91
        4
 64
     7
 65
   257
 75
     1
175
     1
 42
1.0
 92
        0
 66
     7
 43
1.0
 76
     1
 77
     6
 78
     2
 67
     7
 79
     5
170
     0
171
     0
290
     0
174
     0
 93
       13
 44
0.0
173
     0
291
     1
 45
0.0
1001
ACAD
1000
AcDbSavedByObjectVersion
1070
     0
  0
VISUALSTYLE
  5
2E
102
{ACAD_REACTORS
330
2A
102
}
102
{ACAD_XDICTIONARY
360
177
102
}
330
2A
100
AcDbVisualStyle
  2
GouraudWithEdges
 70
     3
 71
     2
 72
     2
 73
     1
 90
        2
 40
-0.6
 41
30.0
 62
     5
 63
     7
 74
     1
 91
        4
 64
     7
 65
   257
 75
     1
175
     1
 42
1.0
 92
        0
 66
   257
 43
1.0
 76
     1
 77
     6
 78
     2
 67
     7
 79
     5
170
     0
171
     0
290
     0
174
     0
 93
       13
 44
0.0
173
     0
291
     1
 45
0.0
1001
ACAD
1000
AcDbSavedByObjectVersion
1070
     0
  0
VISUALSTYLE
  5
38
102
{ACAD_REACTORS
330
2A
102
}
102
{ACAD_XDICTIONARY
360
18B
102
}
330
2A
100
AcDbVisualStyle
  2
Linepattern
 70
    14
 71
     2
 72
     2
 73
     0
 90
        0
 40
-0.6
 41
-30.0
 62
     5
 63
     7
 74
     1
 91
        4
 64
     7
 65
   257
 75
     7
175
     7
 42
1.0
 92
        8
 66
     7
 43
1.0
 76
     1
 77
     6
 78
     2
 67
     7
 79
     5
170
     0
171
     0
290
     0
174
     0
 93
        1
 44
0.0
173
     0
291
     1
 45
0.0
1001
ACAD
1000
AcDbSavedByObjectVersion
1070
     0
  0
VISUALSTYLE
  5
33
102
{ACAD_REACTORS
330
2A
102
}
102
{ACAD_XDICTIONARY
360
181
102
}
330
2A
100
AcDbVisualStyle
  2
Realistic
 70
     8
 71
     2
 72
     2
 73
     0
 90
        0
 40
-0.6
 41
-30.0
 62
     5
 63
     7
 74
     1
 91
        0
 64
     7
 65
   257
 75
     1
175
     1
 42
1.0
 92
        8
 66
     8
 43
1.0
 76
     1
 77
     6
 78
     2
 67
     7
 79
     5
170
     0
171
     0
290
     0
174
     0
 93
       13
 44
0.0
173
     0
291
     0
 45
0.0
1001
ACAD
1000
AcDbSavedByObjectVersion
1070
     0
  0
VISUALSTYLE
  5
37
102
{ACAD_REACTORS
330
2A
102
}
102
{ACAD_XDICTIONARY
360
189
102
}
330
2A
100
AcDbVisualStyle
  2
Thicken
 70
    13
 71
     2
 72
     2
 73
     0
 90
        0
 40
-0.6
 41
-30.0
 62
     5
 63
     7
 74
     1
 91
        4
 64
     7
 65
   257
 75
     1
175
     1
 42
1.0
 92
       12
 66
     7
 43
1.0
 76
     1
 77
     6
 78
     2
 67
     7
 79
     5
170
     0
171
     0
290
     0
174
     0
 93
        1
 44
0.0
173
     0
291
     1
 45
0.0
1001
ACAD
1000
AcDbSavedByObjectVersion
1070
     0
  0
DICTIONARYVAR
  5
16F
102
{ACAD_REACTORS
330
16C
102
}
330
16C
100
DictionaryVariables
280
     0
  1
2
  0
DICTIONARYVAR
  5
170
102
{ACAD_REACTORS
330
16C
102
}
330
16C
100
DictionaryVariables
280
     0
  1
1
  0
DICTIONARY
  5
193
330
3D
100
AcDbDictionary
280
     1
281
     1
  3
ACAD_XREC_ROUNDTRIP
360
194
  0
DICTIONARY
  5
191
330
3C
100
AcDbDictionary
280
     1
281
     1
  3
ACAD_XREC_ROUNDTRIP
360
192
  0
DICTIONARY
  5
195
330
3E
100
AcDbDictionary
280
     1
281
     1
  3
ACAD_XREC_ROUNDTRIP
360
196
  0
DICTIONARY
  5
179
330
2F
100
AcDbDictionary
280
     1
281
     1
  3
ACAD_XREC_ROUNDTRIP
360
17A
  0
DICTIONARY
  5
17D
330
31
100
AcDbDictionary
280
     1
281
     1
  3
ACAD_XREC_ROUNDTRIP
360
17E
  0
DICTIONARY
  5
17B
330
30
100
AcDbDictionary
280
     1
281
     1
  3
ACAD_XREC_ROUNDTRIP
360
17C
  0
DICTIONARY
  5
17F
330
32
100
AcDbDictionary
280
     1
281
     1
  3
ACAD_XREC_ROUNDTRIP
360
180
  0
DICTIONARY
  5
187
330
36
100
AcDbDictionary
280
     1
281
     1
  3
ACAD_XREC_ROUNDTRIP
360
188
  0
DICTIONARY
  5
18F
330
3A
100
AcDbDictionary
280
     1
281
     1
  3
ACAD_XREC_ROUNDTRIP
360
190
  0
DICTIONARY
  5
183
330
34
100
AcDbDictionary
280
     1
281
     1
  3
ACAD_XREC_ROUNDTRIP
360
184
  0
DICTIONARY
  5
185
330
35
100
AcDbDictionary
280
     1
281
     1
  3
ACAD_XREC_ROUNDTRIP
360
186
  0
DICTIONARY
  5
18D
330
39
100
AcDbDictionary
280
     1
281
     1
  3
ACAD_XREC_ROUNDTRIP
360
18E
  0
DICTIONARY
  5
171
330
2B
100
AcDbDictionary
280
     1
281
     1
  3
ACAD_XREC_ROUNDTRIP
360
172
  0
DICTIONARY
  5
173
330
2C
100
AcDbDictionary
280
     1
281
     1
  3
ACAD_XREC_ROUNDTRIP
360
174
  0
DICTIONARY
  5
175
330
2D
100
AcDbDictionary
280
     1
281
     1
  3
ACAD_XREC_ROUNDTRIP
360
176
  0
DICTIONARY
  5
177
330
2E
100
AcDbDictionary
280
     1
281
     1
  3
ACAD_XREC_ROUNDTRIP
360
178
  0
DICTIONARY
  5
18B
330
38
100
AcDbDictionary
280
     1
281
     1
  3
ACAD_XREC_ROUNDTRIP
360
18C
  0
DICTIONARY
  5
181
330
33
100
AcDbDictionary
280
     1
281
     1
  3
ACAD_XREC_ROUNDTRIP
360
182
  0
DICTIONARY
  5
189
330
37
100
AcDbDictionary
280
     1
281
     1
  3
ACAD_XREC_ROUNDTRIP
360
18A
  0
XRECORD
  5
194
102
{ACAD_REACTORS
330
193
102
}
330
193
100
AcDbXrecord
280
     1
102
MATERIAL
148
0.0
149
0.0
149
0.0
 93
        0
 94
      127
282
     0
 72
     1
 77
     1
171
     1
175
     1
179
     1
273
     0
  0
XRECORD
  5
192
102
{ACAD_REACTORS
330
191
102
}
330
191
100
AcDbXrecord
280
     1
102
MATERIAL
148
0.0
149
0.0
149
0.0
 93
        0
 94
      127
282
     0
 72
     1
 77
     1
171
     1
175
     1
179
     1
273
     0
  0
XRECORD
  5
196
102
{ACAD_REACTORS
330
195
102
}
330
195
100
AcDbXrecord
280
     1
102
MATERIAL
148
0.0
149
0.0
149
0.0
 93
        0
 94
      127
282
     0
 72
     1
 77
     1
171
     1
175
     1
179
     1
273
     0
  0
XRECORD
  5
17A
102
{ACAD_REACTORS
330
179
102
}
330
179
100
AcDbXrecord
280
     1
102
RTVSPropertyOp0
 70
     1
102
RTVSPropertyOp1
 70
     1
102
RTVSPropertyOp2
 70
     1
102
RTVSPropertyOp3
 70
     1
102
RTVSPropertyOp4
 70
     1
102
RTVSPropertyOp5
 70
     1
102
RTVSPropertyOp6
 70
     1
102
RTVSPropertyOp7
 70
     1
102
RTVSPropertyOp8
 70
     1
102
RTVSPropertyOp9
 70
     1
102
RTVSPropertyOp10
 70
     1
102
RTVSPropertyOp11
 70
     1
102
RTVSPropertyOp12
 70
     1
102
RTVSPropertyOp13
 70
     1
102
RTVSPropertyOp14
 70
     1
102
RTVSPropertyOp15
 70
     1
102
RTVSPropertyOp16
 70
     1
102
RTVSPropertyOp17
 70
     1
102
RTVSPropertyOp18
 70
     1
102
RTVSPropertyOp19
 70
     1
102
RTVSPropertyOp20
 70
     1
102
RTVSPropertyOp21
 70
     1
102
RTVSPropertyOp22
 70
     1
102
RTVSPropertyOp23
 70
     1
102
RTVSPropertyOp24
 70
     1
102
RTVSPropertyOp25
 70
     1
102
RTVSPropertyOp26
 70
     1
102
RTVSPropertyOp27
 70
     1
102
RTVSPropertyOp28
 70
     1
102
RTVSPropertyOp29
 70
     1
102
RTVSPropertyOp30
 70
     1
102
RTVSPropertyOp31
 70
     1
102
RTVSPropertyOp32
 70
     1
  0
XRECORD
  5
17E
102
{ACAD_REACTORS
330
17D
102
}
330
17D
100
AcDbXrecord
280
     1
102
RTVSPropertyOp0
 70
     1
102
RTVSPropertyOp1
 70
     1
102
RTVSPropertyOp2
 70
     1
102
RTVSPropertyOp3
 70
     1
102
RTVSPropertyOp4
 70
     1
102
RTVSPropertyOp5
 70
     1
102
RTVSPropertyOp6
 70
     1
102
RTVSPropertyOp7
 70
     1
102
RTVSPropertyOp8
 70
     1
102
RTVSPropertyOp9
 70
     1
102
RTVSPropertyOp10
 70
     1
102
RTVSPropertyOp11
 70
     1
102
RTVSPropertyOp12
 70
     1
102
RTVSPropertyOp13
 70
     1
102
RTVSPropertyOp14
 70
     1
102
RTVSPropertyOp15
 70
     1
102
RTVSPropertyOp16
 70
     1
102
RTVSPropertyOp17
 70
     1
102
RTVSPropertyOp18
 70
     1
102
RTVSPropertyOp19
 70
     1
102
RTVSPropertyOp20
 70
     1
102
RTVSPropertyOp21
 70
     1
102
RTVSPropertyOp22
 70
     1
102
RTVSPropertyOp23
 70
     1
102
RTVSPropertyOp24
 70
     1
102
RTVSPropertyOp25
 70
     1
102
RTVSPropertyOp26
 70
     1
102
RTVSPropertyOp27
 70
     1
102
RTVSPropertyOp28
 70
     1
102
RTVSPropertyOp29
 70
     1
102
RTVSPropertyOp30
 70
     1
102
RTVSPropertyOp31
 70
     1
102
RTVSPropertyOp32
 70
     1
  0
XRECORD
  5
17C
102
{ACAD_REACTORS
330
17B
102
}
330
17B
100
AcDbXrecord
280
     1
102
RTVSPropertyOp0
 70
     1
102
RTVSPropertyOp1
 70
     1
102
RTVSPropertyOp2
 70
     1
102
RTVSPropertyOp3
 70
     1
102
RTVSPropertyOp4
 70
     1
102
RTVSPropertyOp5
 70
     1
102
RTVSPropertyOp6
 70
     1
102
RTVSPropertyOp7
 70
     1
102
RTVSPropertyOp8
 70
     1
102
RTVSPropertyOp9
 70
     1
102
RTVSPropertyOp10
 70
     1
102
RTVSPropertyOp11
 70
     1
102
RTVSPropertyOp12
 70
     1
102
RTVSPropertyOp13
 70
     1
102
RTVSPropertyOp14
 70
     1
102
RTVSPropertyOp15
 70
     1
102
RTVSPropertyOp16
 70
     1
102
RTVSPropertyOp17
 70
     1
102
RTVSPropertyOp18
 70
     1
102
RTVSPropertyOp19
 70
     1
102
RTVSPropertyOp20
 70
     1
102
RTVSPropertyOp21
 70
     1
102
RTVSPropertyOp22
 70
     1
102
RTVSPropertyOp23
 70
     1
102
RTVSPropertyOp24
 70
     1
102
RTVSPropertyOp25
 70
     1
102
RTVSPropertyOp26
 70
     1
102
RTVSPropertyOp27
 70
     1
102
RTVSPropertyOp28
 70
     1
102
RTVSPropertyOp29
 70
     1
102
RTVSPropertyOp30
 70
     1
102
RTVSPropertyOp31
 70
     1
102
RTVSPropertyOp32
 70
     1
  0
XRECORD
  5
180
102
{ACAD_REACTORS
330
17F
102
}
330
17F
100
AcDbXrecord
280
     1
102
RTVSPropertyOp0
 70
     1
102
RTVSPropertyOp1
 70
     1
102
RTVSPropertyOp2
 70
     1
102
RTVSPropertyOp3
 70
     1
102
RTVSPropertyOp4
 70
     1
102
RTVSPropertyOp5
 70
     1
102
RTVSPropertyOp6
 70
     1
102
RTVSPropertyOp7
 70
     1
102
RTVSPropertyOp8
 70
     1
102
RTVSPropertyOp9
 70
     1
102
RTVSPropertyOp10
 70
     1
102
RTVSPropertyOp11
 70
     1
102
RTVSPropertyOp12
 70
     1
102
RTVSPropertyOp13
 70
     1
102
RTVSPropertyOp14
 70
     1
102
RTVSPropertyOp15
 70
     1
102
RTVSPropertyOp16
 70
     1
102
RTVSPropertyOp17
 70
     1
102
RTVSPropertyOp18
 70
     1
102
RTVSPropertyOp19
 70
     1
102
RTVSPropertyOp20
 70
     1
102
RTVSPropertyOp21
 70
     1
102
RTVSPropertyOp22
 70
     1
102
RTVSPropertyOp23
 70
     1
102
RTVSPropertyOp24
 70
     1
102
RTVSPropertyOp25
 70
     1
102
RTVSPropertyOp26
 70
     1
102
RTVSPropertyOp27
 70
     1
102
RTVSPropertyOp28
 70
     1
102
RTVSPropertyOp29
 70
     1
102
RTVSPropertyOp30
 70
     1
102
RTVSPropertyOp31
 70
     1
102
RTVSPropertyOp32
 70
     1
  0
XRECORD
  5
188
102
{ACAD_REACTORS
330
187
102
}
330
187
100
AcDbXrecord
280
     1
102
RTVSPropertyOp0
 70
     1
102
RTVSPropertyOp1
 70
     1
102
RTVSPropertyOp2
 70
     1
102
RTVSPropertyOp3
 70
     1
102
RTVSPropertyOp4
 70
     1
102
RTVSPropertyOp5
 70
     1
102
RTVSPropertyOp6
 70
     1
102
RTVSPropertyOp7
 70
     1
102
RTVSPropertyOp8
 70
     1
102
RTVSPropertyOp9
 70
     1
102
RTVSPropertyOp10
 70
     1
102
RTVSPropertyOp11
 70
     1
102
RTVSPropertyOp12
 70
     1
102
RTVSPropertyOp13
 70
     1
102
RTVSPropertyOp14
 70
     1
102
RTVSPropertyOp15
 70
     1
102
RTVSPropertyOp16
 70
     1
102
RTVSPropertyOp17
 70
     1
102
RTVSPropertyOp18
 70
     1
102
RTVSPropertyOp19
 70
     1
102
RTVSPropertyOp20
 70
     1
102
RTVSPropertyOp21
 70
     1
102
RTVSPropertyOp22
 70
     1
102
RTVSPropertyOp23
 70
     1
102
RTVSPropertyOp24
 70
     1
102
RTVSPropertyOp25
 70
     1
102
RTVSPropertyOp26
 70
     1
102
RTVSPropertyOp27
 70
     1
102
RTVSPropertyOp28
 70
     1
102
RTVSPropertyOp29
 70
     1
102
RTVSPropertyOp30
 70
     1
102
RTVSPropertyOp31
 70
     1
102
RTVSPropertyOp32
 70
     1
  0
XRECORD
  5
190
102
{ACAD_REACTORS
330
18F
102
}
330
18F
100
AcDbXrecord
280
     1
102
RTVSPropertyOp0
 70
     1
102
RTVSPropertyOp1
 70
     1
102
RTVSPropertyOp2
 70
     1
102
RTVSPropertyOp3
 70
     1
102
RTVSPropertyOp4
 70
     1
102
RTVSPropertyOp5
 70
     1
102
RTVSPropertyOp6
 70
     1
102
RTVSPropertyOp7
 70
     1
102
RTVSPropertyOp8
 70
     1
102
RTVSPropertyOp9
 70
     1
102
RTVSPropertyOp10
 70
     1
102
RTVSPropertyOp11
 70
     1
102
RTVSPropertyOp12
 70
     1
102
RTVSPropertyOp13
 70
     1
102
RTVSPropertyOp14
 70
     1
102
RTVSPropertyOp15
 70
     1
102
RTVSPropertyOp16
 70
     1
102
RTVSPropertyOp17
 70
     1
102
RTVSPropertyOp18
 70
     1
102
RTVSPropertyOp19
 70
     1
102
RTVSPropertyOp20
 70
     1
102
RTVSPropertyOp21
 70
     1
102
RTVSPropertyOp22
 70
     1
102
RTVSPropertyOp23
 70
     1
102
RTVSPropertyOp24
 70
     1
102
RTVSPropertyOp25
 70
     1
102
RTVSPropertyOp26
 70
     1
102
RTVSPropertyOp27
 70
     1
102
RTVSPropertyOp28
 70
     1
102
RTVSPropertyOp29
 70
     1
102
RTVSPropertyOp30
 70
     1
102
RTVSPropertyOp31
 70
     1
102
RTVSPropertyOp32
 70
     1
  0
XRECORD
  5
184
102
{ACAD_REACTORS
330
183
102
}
330
183
100
AcDbXrecord
280
     1
102
RTVSPropertyOp0
 70
     1
102
RTVSPropertyOp1
 70
     1
102
RTVSPropertyOp2
 70
     1
102
RTVSPropertyOp3
 70
     1
102
RTVSPropertyOp4
 70
     1
102
RTVSPropertyOp5
 70
     1
102
RTVSPropertyOp6
 70
     1
102
RTVSPropertyOp7
 70
     1
102
RTVSPropertyOp8
 70
     1
102
RTVSPropertyOp9
 70
     1
102
RTVSPropertyOp10
 70
     1
102
RTVSPropertyOp11
 70
     1
102
RTVSPropertyOp12
 70
     1
102
RTVSPropertyOp13
 70
     1
102
RTVSPropertyOp14
 70
     1
102
RTVSPropertyOp15
 70
     1
102
RTVSPropertyOp16
 70
     1
102
RTVSPropertyOp17
 70
     1
102
RTVSPropertyOp18
 70
     1
102
RTVSPropertyOp19
 70
     1
102
RTVSPropertyOp20
 70
     1
102
RTVSPropertyOp21
 70
     1
102
RTVSPropertyOp22
 70
     1
102
RTVSPropertyOp23
 70
     1
102
RTVSPropertyOp24
 70
     1
102
RTVSPropertyOp25
 70
     1
102
RTVSPropertyOp26
 70
     1
102
RTVSPropertyOp27
 70
     1
102
RTVSPropertyOp28
 70
     1
102
RTVSPropertyOp29
 70
     1
102
RTVSPropertyOp30
 70
     1
102
RTVSPropertyOp31
 70
     1
102
RTVSPropertyOp32
 70
     1
  0
XRECORD
  5
186
102
{ACAD_REACTORS
330
185
102
}
330
185
100
AcDbXrecord
280
     1
102
RTVSPropertyOp0
 70
     1
102
RTVSPropertyOp1
 70
     1
102
RTVSPropertyOp2
 70
     1
102
RTVSPropertyOp3
 70
     1
102
RTVSPropertyOp4
 70
     1
102
RTVSPropertyOp5
 70
     1
102
RTVSPropertyOp6
 70
     1
102
RTVSPropertyOp7
 70
     1
102
RTVSPropertyOp8
 70
     1
102
RTVSPropertyOp9
 70
     1
102
RTVSPropertyOp10
 70
     1
102
RTVSPropertyOp11
 70
     1
102
RTVSPropertyOp12
 70
     1
102
RTVSPropertyOp13
 70
     1
102
RTVSPropertyOp14
 70
     1
102
RTVSPropertyOp15
 70
     1
102
RTVSPropertyOp16
 70
     1
102
RTVSPropertyOp17
 70
     1
102
RTVSPropertyOp18
 70
     1
102
RTVSPropertyOp19
 70
     1
102
RTVSPropertyOp20
 70
     1
102
RTVSPropertyOp21
 70
     1
102
RTVSPropertyOp22
 70
     1
102
RTVSPropertyOp23
 70
     1
102
RTVSPropertyOp24
 70
     1
102
RTVSPropertyOp25
 70
     1
102
RTVSPropertyOp26
 70
     1
102
RTVSPropertyOp27
 70
     1
102
RTVSPropertyOp28
 70
     1
102
RTVSPropertyOp29
 70
     1
102
RTVSPropertyOp30
 70
     1
102
RTVSPropertyOp31
 70
     1
102
RTVSPropertyOp32
 70
     1
  0
XRECORD
  5
18E
102
{ACAD_REACTORS
330
18D
102
}
330
18D
100
AcDbXrecord
280
     1
102
RTVSPropertyOp0
 70
     1
102
RTVSPropertyOp1
 70
     1
102
RTVSPropertyOp2
 70
     1
102
RTVSPropertyOp3
 70
     1
102
RTVSPropertyOp4
 70
     1
102
RTVSPropertyOp5
 70
     1
102
RTVSPropertyOp6
 70
     1
102
RTVSPropertyOp7
 70
     1
102
RTVSPropertyOp8
 70
     1
102
RTVSPropertyOp9
 70
     1
102
RTVSPropertyOp10
 70
     1
102
RTVSPropertyOp11
 70
     1
102
RTVSPropertyOp12
 70
     1
102
RTVSPropertyOp13
 70
     1
102
RTVSPropertyOp14
 70
     1
102
RTVSPropertyOp15
 70
     1
102
RTVSPropertyOp16
 70
     1
102
RTVSPropertyOp17
 70
     1
102
RTVSPropertyOp18
 70
     1
102
RTVSPropertyOp19
 70
     1
102
RTVSPropertyOp20
 70
     1
102
RTVSPropertyOp21
 70
     1
102
RTVSPropertyOp22
 70
     1
102
RTVSPropertyOp23
 70
     1
102
RTVSPropertyOp24
 70
     1
102
RTVSPropertyOp25
 70
     1
102
RTVSPropertyOp26
 70
     1
102
RTVSPropertyOp27
 70
     1
102
RTVSPropertyOp28
 70
     1
102
RTVSPropertyOp29
 70
     1
102
RTVSPropertyOp30
 70
     1
102
RTVSPropertyOp31
 70
     1
102
RTVSPropertyOp32
 70
     1
  0
XRECORD
  5
172
102
{ACAD_REACTORS
330
171
102
}
330
171
100
AcDbXrecord
280
     1
102
RTVSPropertyOp0
 70
     1
102
RTVSPropertyOp1
 70
     1
102
RTVSPropertyOp2
 70
     1
102
RTVSPropertyOp3
 70
     1
102
RTVSPropertyOp4
 70
     1
102
RTVSPropertyOp5
 70
     1
102
RTVSPropertyOp6
 70
     1
102
RTVSPropertyOp7
 70
     1
102
RTVSPropertyOp8
 70
     1
102
RTVSPropertyOp9
 70
     1
102
RTVSPropertyOp10
 70
     1
102
RTVSPropertyOp11
 70
     1
102
RTVSPropertyOp12
 70
     1
102
RTVSPropertyOp13
 70
     1
102
RTVSPropertyOp14
 70
     1
102
RTVSPropertyOp15
 70
     1
102
RTVSPropertyOp16
 70
     1
102
RTVSPropertyOp17
 70
     1
102
RTVSPropertyOp18
 70
     1
102
RTVSPropertyOp19
 70
     1
102
RTVSPropertyOp20
 70
     1
102
RTVSPropertyOp21
 70
     1
102
RTVSPropertyOp22
 70
     1
102
RTVSPropertyOp23
 70
     1
102
RTVSPropertyOp24
 70
     1
102
RTVSPropertyOp25
 70
     1
102
RTVSPropertyOp26
 70
     1
102
RTVSPropertyOp27
 70
     1
102
RTVSPropertyOp28
 70
     1
102
RTVSPropertyOp29
 70
     1
102
RTVSPropertyOp30
 70
     1
102
RTVSPropertyOp31
 70
     1
102
RTVSPropertyOp32
 70
     1
  0
XRECORD
  5
174
102
{ACAD_REACTORS
330
173
102
}
330
173
100
AcDbXrecord
280
     1
102
RTVSPropertyOp0
 70
     1
102
RTVSPropertyOp1
 70
     1
102
RTVSPropertyOp2
 70
     1
102
RTVSPropertyOp3
 70
     1
102
RTVSPropertyOp4
 70
     1
102
RTVSPropertyOp5
 70
     1
102
RTVSPropertyOp6
 70
     1
102
RTVSPropertyOp7
 70
     1
102
RTVSPropertyOp8
 70
     1
102
RTVSPropertyOp9
 70
     1
102
RTVSPropertyOp10
 70
     1
102
RTVSPropertyOp11
 70
     1
102
RTVSPropertyOp12
 70
     1
102
RTVSPropertyOp13
 70
     1
102
RTVSPropertyOp14
 70
     1
102
RTVSPropertyOp15
 70
     1
102
RTVSPropertyOp16
 70
     1
102
RTVSPropertyOp17
 70
     1
102
RTVSPropertyOp18
 70
     1
102
RTVSPropertyOp19
 70
     1
102
RTVSPropertyOp20
 70
     1
102
RTVSPropertyOp21
 70
     1
102
RTVSPropertyOp22
 70
     1
102
RTVSPropertyOp23
 70
     1
102
RTVSPropertyOp24
 70
     1
102
RTVSPropertyOp25
 70
     1
102
RTVSPropertyOp26
 70
     1
102
RTVSPropertyOp27
 70
     1
102
RTVSPropertyOp28
 70
     1
102
RTVSPropertyOp29
 70
     1
102
RTVSPropertyOp30
 70
     1
102
RTVSPropertyOp31
 70
     1
102
RTVSPropertyOp32
 70
     1
  0
XRECORD
  5
176
102
{ACAD_REACTORS
330
175
102
}
330
175
100
AcDbXrecord
280
     1
102
RTVSPropertyOp0
 70
     1
102
RTVSPropertyOp1
 70
     1
102
RTVSPropertyOp2
 70
     1
102
RTVSPropertyOp3
 70
     1
102
RTVSPropertyOp4
 70
     1
102
RTVSPropertyOp5
 70
     1
102
RTVSPropertyOp6
 70
     1
102
RTVSPropertyOp7
 70
     1
102
RTVSPropertyOp8
 70
     1
102
RTVSPropertyOp9
 70
     1
102
RTVSPropertyOp10
 70
     1
102
RTVSPropertyOp11
 70
     1
102
RTVSPropertyOp12
 70
     1
102
RTVSPropertyOp13
 70
     1
102
RTVSPropertyOp14
 70
     1
102
RTVSPropertyOp15
 70
     1
102
RTVSPropertyOp16
 70
     1
102
RTVSPropertyOp17
 70
     1
102
RTVSPropertyOp18
 70
     1
102
RTVSPropertyOp19
 70
     1
102
RTVSPropertyOp20
 70
     1
102
RTVSPropertyOp21
 70
     1
102
RTVSPropertyOp22
 70
     1
102
RTVSPropertyOp23
 70
     1
102
RTVSPropertyOp24
 70
     1
102
RTVSPropertyOp25
 70
     1
102
RTVSPropertyOp26
 70
     1
102
RTVSPropertyOp27
 70
     1
102
RTVSPropertyOp28
 70
     1
102
RTVSPropertyOp29
 70
     1
102
RTVSPropertyOp30
 70
     1
102
RTVSPropertyOp31
 70
     1
102
RTVSPropertyOp32
 70
     1
  0
XRECORD
  5
178
102
{ACAD_REACTORS
330
177
102
}
330
177
100
AcDbXrecord
280
     1
102
RTVSPropertyOp0
 70
     1
102
RTVSPropertyOp1
 70
     1
102
RTVSPropertyOp2
 70
     1
102
RTVSPropertyOp3
 70
     1
102
RTVSPropertyOp4
 70
     1
102
RTVSPropertyOp5
 70
     1
102
RTVSPropertyOp6
 70
     1
102
RTVSPropertyOp7
 70
     1
102
RTVSPropertyOp8
 70
     1
102
RTVSPropertyOp9
 70
     1
102
RTVSPropertyOp10
 70
     1
102
RTVSPropertyOp11
 70
     1
102
RTVSPropertyOp12
 70
     1
102
RTVSPropertyOp13
 70
     1
102
RTVSPropertyOp14
 70
     1
102
RTVSPropertyOp15
 70
     1
102
RTVSPropertyOp16
 70
     1
102
RTVSPropertyOp17
 70
     1
102
RTVSPropertyOp18
 70
     1
102
RTVSPropertyOp19
 70
     1
102
RTVSPropertyOp20
 70
     1
102
RTVSPropertyOp21
 70
     1
102
RTVSPropertyOp22
 70
     1
102
RTVSPropertyOp23
 70
     1
102
RTVSPropertyOp24
 70
     1
102
RTVSPropertyOp25
 70
     1
102
RTVSPropertyOp26
 70
     1
102
RTVSPropertyOp27
 70
     1
102
RTVSPropertyOp28
 70
     1
102
RTVSPropertyOp29
 70
     1
102
RTVSPropertyOp30
 70
     1
102
RTVSPropertyOp31
 70
     1
102
RTVSPropertyOp32
 70
     1
  0
XRECORD
  5
18C
102
{ACAD_REACTORS
330
18B
102
}
330
18B
100
AcDbXrecord
280
     1
102
RTVSPropertyOp0
 70
     1
102
RTVSPropertyOp1
 70
     1
102
RTVSPropertyOp2
 70
     1
102
RTVSPropertyOp3
 70
     1
102
RTVSPropertyOp4
 70
     1
102
RTVSPropertyOp5
 70
     1
102
RTVSPropertyOp6
 70
     1
102
RTVSPropertyOp7
 70
     1
102
RTVSPropertyOp8
 70
     1
102
RTVSPropertyOp9
 70
     1
102
RTVSPropertyOp10
 70
     1
102
RTVSPropertyOp11
 70
     1
102
RTVSPropertyOp12
 70
     1
102
RTVSPropertyOp13
 70
     1
102
RTVSPropertyOp14
 70
     1
102
RTVSPropertyOp15
 70
     1
102
RTVSPropertyOp16
 70
     1
102
RTVSPropertyOp17
 70
     1
102
RTVSPropertyOp18
 70
     1
102
RTVSPropertyOp19
 70
     1
102
RTVSPropertyOp20
 70
     1
102
RTVSPropertyOp21
 70
     1
102
RTVSPropertyOp22
 70
     1
102
RTVSPropertyOp23
 70
     1
102
RTVSPropertyOp24
 70
     1
102
RTVSPropertyOp25
 70
     1
102
RTVSPropertyOp26
 70
     1
102
RTVSPropertyOp27
 70
     1
102
RTVSPropertyOp28
 70
     1
102
RTVSPropertyOp29
 70
     1
102
RTVSPropertyOp30
 70
     1
102
RTVSPropertyOp31
 70
     1
102
RTVSPropertyOp32
 70
     1
  0
XRECORD
  5
182
102
{ACAD_REACTORS
330
181
102
}
330
181
100
AcDbXrecord
280
     1
102
RTVSPropertyOp0
 70
     1
102
RTVSPropertyOp1
 70
     1
102
RTVSPropertyOp2
 70
     1
102
RTVSPropertyOp3
 70
     1
102
RTVSPropertyOp4
 70
     1
102
RTVSPropertyOp5
 70
     1
102
RTVSPropertyOp6
 70
     1
102
RTVSPropertyOp7
 70
     1
102
RTVSPropertyOp8
 70
     1
102
RTVSPropertyOp9
 70
     1
102
RTVSPropertyOp10
 70
     1
102
RTVSPropertyOp11
 70
     1
102
RTVSPropertyOp12
 70
     1
102
RTVSPropertyOp13
 70
     1
102
RTVSPropertyOp14
 70
     1
102
RTVSPropertyOp15
 70
     1
102
RTVSPropertyOp16
 70
     1
102
RTVSPropertyOp17
 70
     1
102
RTVSPropertyOp18
 70
     1
102
RTVSPropertyOp19
 70
     1
102
RTVSPropertyOp20
 70
     1
102
RTVSPropertyOp21
 70
     1
102
RTVSPropertyOp22
 70
     1
102
RTVSPropertyOp23
 70
     1
102
RTVSPropertyOp24
 70
     1
102
RTVSPropertyOp25
 70
     1
102
RTVSPropertyOp26
 70
     1
102
RTVSPropertyOp27
 70
     1
102
RTVSPropertyOp28
 70
     1
102
RTVSPropertyOp29
 70
     1
102
RTVSPropertyOp30
 70
     1
102
RTVSPropertyOp31
 70
     1
102
RTVSPropertyOp32
 70
     1
  0
XRECORD
  5
18A
102
{ACAD_REACTORS
330
189
102
}
330
189
100
AcDbXrecord
280
     1
102
RTVSPropertyOp0
 70
     1
102
RTVSPropertyOp1
 70
     1
102
RTVSPropertyOp2
 70
     1
102
RTVSPropertyOp3
 70
     1
102
RTVSPropertyOp4
 70
     1
102
RTVSPropertyOp5
 70
     1
102
RTVSPropertyOp6
 70
     1
102
RTVSPropertyOp7
 70
     1
102
RTVSPropertyOp8
 70
     1
102
RTVSPropertyOp9
 70
     1
102
RTVSPropertyOp10
 70
     1
102
RTVSPropertyOp11
 70
     1
102
RTVSPropertyOp12
 70
     1
102
RTVSPropertyOp13
 70
     1
102
RTVSPropertyOp14
 70
     1
102
RTVSPropertyOp15
 70
     1
102
RTVSPropertyOp16
 70
     1
102
RTVSPropertyOp17
 70
     1
102
RTVSPropertyOp18
 70
     1
102
RTVSPropertyOp19
 70
     1
102
RTVSPropertyOp20
 70
     1
102
RTVSPropertyOp21
 70
     1
102
RTVSPropertyOp22
 70
     1
102
RTVSPropertyOp23
 70
     1
102
RTVSPropertyOp24
 70
     1
102
RTVSPropertyOp25
 70
     1
102
RTVSPropertyOp26
 70
     1
102
RTVSPropertyOp27
 70
     1
102
RTVSPropertyOp28
 70
     1
102
RTVSPropertyOp29
 70
     1
102
RTVSPropertyOp30
 70
     1
102
RTVSPropertyOp31
 70
     1
102
RTVSPropertyOp32
 70
     1
  0
ENDSEC
  0
EOF
